M48
INCH,TZ
T1C0.0157
T2C0.0394
%
G90
G05
T1
X3366Y29705
X4094Y31063
X6161Y38583
X6870Y30197
X6870Y29114
X6909Y36614
X7205Y31516
X8760Y29705
X8760Y28602
X8760Y24783
X8760Y22717
X9291Y29724
X9291Y28622
X9685Y31673
X10886Y29705
X11634Y31063
X13642Y38543
X14350Y30098
X14350Y29114
X14409Y36614
X14882Y30118
X14882Y29114
X21850Y31181
X21870Y37618
X21870Y36476
X22736Y23445
X24587Y23465
X25335Y11535
X25335Y9449
X25807Y22224
X25807Y7205
X26457Y23563
X26594Y8563
X28740Y16063
X29390Y22638
X29390Y21614
X29390Y14114
X29409Y7598
X29409Y6614
X31457Y25630
X31457Y23957
X31457Y22067
X31457Y21220
X31457Y17756
X31457Y16693
X31457Y14587
X31457Y13720
X31457Y10256
X31457Y9232
X31457Y7067
X31457Y6240
X31457Y2815
X31457Y2028
X33287Y22205
X33346Y7205
X33937Y23563
X33996Y8583
X36201Y16063
X36870Y22618
X36870Y21614
X36870Y14114
X36890Y6614
X36909Y7598
X39016Y23976
X39016Y22067
X39016Y21142
X39016Y17835
X39016Y16654
X39016Y14587
X39016Y13740
X39016Y10354
X39016Y9173
X39016Y7067
X39016Y6260
X39016Y2756
X39016Y1988
X39508Y23976
X39508Y22047
X39508Y21122
X39508Y19035
X39508Y16634
X39508Y14567
X39508Y13740
X39508Y11496
X39508Y9193
X39508Y7008
X39508Y6260
X39961Y23976
X39961Y22047
X39961Y21102
X39961Y19035
X39961Y16634
X39961Y14567
X39961Y13720
X40413Y23976
X40413Y22047
X40413Y21083
X40591Y25689
X40846Y22205
X40866Y7205
X41083Y25689
X41476Y23583
X41535Y25669
X41575Y8563
X41988Y25650
X43720Y16063
X44370Y7579
X44370Y6614
X44390Y22598
X44390Y21614
X44390Y14114
X46122Y27028
X46555Y23976
X46555Y22067
X46555Y21260
X46555Y17736
X46555Y16654
X46555Y14587
X46555Y13701
X46555Y10276
X46555Y9272
X46555Y7067
X46555Y6240
X46555Y2776
X46555Y1969
X48130Y25669
X48248Y22205
X48327Y7205
X48976Y23563
X49094Y8563
X49744Y26358
X50492Y26358
X51240Y16063
X51575Y30295
X51594Y30886
X51870Y22657
X51870Y21614
X51890Y14114
X51909Y29232
X51909Y25472
X52598Y30886
X52677Y24409
X52933Y17067
X53031Y30295
X53543Y9626
X54134Y35748
X54626Y24429
X54626Y17067
X54626Y9626
T2
X16043Y15112
X16043Y14112
X16043Y13112
X16043Y12112
X16043Y11112
X23386Y35976
X23386Y34976
X23386Y33976
X23386Y32976
X23386Y31976
X23386Y30976
X23386Y29976
X23386Y28976
X29980Y35374
X32303Y35374
X34171Y39370
X35171Y39370
X36171Y39370
T0
M30
