%TF.GenerationSoftware,KiCad,Pcbnew,(6.0.8)*%
%TF.CreationDate,2022-10-26T23:50:22+02:00*%
%TF.ProjectId,KeypadV2,4b657970-6164-4563-922e-6b696361645f,rev?*%
%TF.SameCoordinates,Original*%
%TF.FileFunction,Profile,NP*%
%FSLAX46Y46*%
G04 Gerber Fmt 4.6, Leading zero omitted, Abs format (unit mm)*
G04 Created by KiCad (PCBNEW (6.0.8)) date 2022-10-26 23:50:22*
%MOMM*%
%LPD*%
G01*
G04 APERTURE LIST*
%TA.AperFunction,Profile*%
%ADD10C,0.100000*%
%TD*%
%TA.AperFunction,Profile*%
%ADD11C,0.000100*%
%TD*%
%TA.AperFunction,Profile*%
%ADD12C,0.000025*%
%TD*%
G04 APERTURE END LIST*
D10*
X140850000Y51100000D02*
G75*
G03*
X140850000Y51100000I-1550000J0D01*
G01*
X2550000Y51100000D02*
G75*
G03*
X2550000Y51100000I-1550000J0D01*
G01*
X71700000Y1000000D02*
G75*
G03*
X71700000Y1000000I-1550000J0D01*
G01*
X71700000Y101200000D02*
G75*
G03*
X71700000Y101200000I-1550000J0D01*
G01*
X2550000Y1000000D02*
G75*
G03*
X2550000Y1000000I-1550000J0D01*
G01*
X140850000Y1000000D02*
G75*
G03*
X140850000Y1000000I-1550000J0D01*
G01*
X140850000Y101200000D02*
G75*
G03*
X140850000Y101200000I-1550000J0D01*
G01*
X2550000Y101200000D02*
G75*
G03*
X2550000Y101200000I-1550000J0D01*
G01*
X144300000Y-1000000D02*
X144300000Y103200000D01*
X-1000000Y-4000000D02*
X141300000Y-4000000D01*
X-4000000Y103200000D02*
X-4000000Y-1000000D01*
X-1000000Y106200000D02*
X141300000Y106200000D01*
X-1000000Y106200000D02*
G75*
G03*
X-4000000Y103200000I0J-3000000D01*
G01*
X-4000000Y-1000000D02*
G75*
G03*
X-1000000Y-4000000I3000000J0D01*
G01*
X141300000Y-4000000D02*
G75*
G03*
X144300000Y-1000000I0J3000000D01*
G01*
X144300000Y103200000D02*
G75*
G03*
X141300000Y106200000I-3000000J0D01*
G01*
X31250000Y32050000D02*
G75*
G03*
X31250000Y32050000I-10000000J0D01*
G01*
D11*
%TO.C,D27*%
X91010000Y38110000D02*
X91010000Y35110000D01*
X87410000Y35110000D02*
X87410000Y38110000D01*
X88210000Y38110000D02*
X90210000Y38110000D01*
X90210000Y35110000D02*
X88210000Y35110000D01*
D12*
X87410000Y35110000D02*
G75*
G03*
X88210000Y35110000I400000J0D01*
G01*
X88210000Y38110000D02*
G75*
G03*
X87410000Y38110000I-400000J0D01*
G01*
X90210000Y35110000D02*
G75*
G03*
X91010000Y35110000I400000J0D01*
G01*
X91010000Y38110000D02*
G75*
G03*
X90210000Y38110000I-400000J0D01*
G01*
D11*
%TO.C,D25*%
X128310000Y35110000D02*
X126310000Y35110000D01*
X129110000Y38110000D02*
X129110000Y35110000D01*
X126310000Y38110000D02*
X128310000Y38110000D01*
X125510000Y35110000D02*
X125510000Y38110000D01*
D12*
X129110000Y38110000D02*
G75*
G03*
X128310000Y38110000I-400000J0D01*
G01*
X126310000Y38110000D02*
G75*
G03*
X125510000Y38110000I-400000J0D01*
G01*
X125510000Y35110000D02*
G75*
G03*
X126310000Y35110000I400000J0D01*
G01*
X128310000Y35110000D02*
G75*
G03*
X129110000Y35110000I400000J0D01*
G01*
D11*
%TO.C,D32*%
X126310000Y19060000D02*
X128310000Y19060000D01*
X128310000Y16060000D02*
X126310000Y16060000D01*
X129110000Y19060000D02*
X129110000Y16060000D01*
X125510000Y16060000D02*
X125510000Y19060000D01*
D12*
X128310000Y16060000D02*
G75*
G03*
X129110000Y16060000I400000J0D01*
G01*
X126310000Y19060000D02*
G75*
G03*
X125510000Y19060000I-400000J0D01*
G01*
X125510000Y16060000D02*
G75*
G03*
X126310000Y16060000I400000J0D01*
G01*
X129110000Y19060000D02*
G75*
G03*
X128310000Y19060000I-400000J0D01*
G01*
D11*
%TO.C,D30*%
X88210000Y19060000D02*
X90210000Y19060000D01*
X90210000Y16060000D02*
X88210000Y16060000D01*
X87410000Y16060000D02*
X87410000Y19060000D01*
X91010000Y19060000D02*
X91010000Y16060000D01*
D12*
X87410000Y16060000D02*
G75*
G03*
X88210000Y16060000I400000J0D01*
G01*
X90210000Y16060000D02*
G75*
G03*
X91010000Y16060000I400000J0D01*
G01*
X91010000Y19060000D02*
G75*
G03*
X90210000Y19060000I-400000J0D01*
G01*
X88210000Y19060000D02*
G75*
G03*
X87410000Y19060000I-400000J0D01*
G01*
D11*
%TO.C,D18*%
X14010000Y92260000D02*
X12010000Y92260000D01*
X14810000Y95260000D02*
X14810000Y92260000D01*
X12010000Y95260000D02*
X14010000Y95260000D01*
X11210000Y92260000D02*
X11210000Y95260000D01*
D12*
X14010000Y92260000D02*
G75*
G03*
X14810000Y92260000I400000J0D01*
G01*
X11210000Y92260000D02*
G75*
G03*
X12010000Y92260000I400000J0D01*
G01*
X14810000Y95260000D02*
G75*
G03*
X14010000Y95260000I-400000J0D01*
G01*
X12010000Y95260000D02*
G75*
G03*
X11210000Y95260000I-400000J0D01*
G01*
D11*
%TO.C,D22*%
X87410000Y54160000D02*
X87410000Y57160000D01*
X91010000Y57160000D02*
X91010000Y54160000D01*
X88210000Y57160000D02*
X90210000Y57160000D01*
X90210000Y54160000D02*
X88210000Y54160000D01*
D12*
X87410000Y54160000D02*
G75*
G03*
X88210000Y54160000I400000J0D01*
G01*
X91010000Y57160000D02*
G75*
G03*
X90210000Y57160000I-400000J0D01*
G01*
X90210000Y54160000D02*
G75*
G03*
X91010000Y54160000I400000J0D01*
G01*
X88210000Y57160000D02*
G75*
G03*
X87410000Y57160000I-400000J0D01*
G01*
D11*
%TO.C,D23*%
X106460000Y54160000D02*
X106460000Y57160000D01*
X107260000Y57160000D02*
X109260000Y57160000D01*
X109260000Y54160000D02*
X107260000Y54160000D01*
X110060000Y57160000D02*
X110060000Y54160000D01*
D12*
X106460000Y54160000D02*
G75*
G03*
X107260000Y54160000I400000J0D01*
G01*
X107260000Y57160000D02*
G75*
G03*
X106460000Y57160000I-400000J0D01*
G01*
X110060000Y57160000D02*
G75*
G03*
X109260000Y57160000I-400000J0D01*
G01*
X109260000Y54160000D02*
G75*
G03*
X110060000Y54160000I400000J0D01*
G01*
D11*
%TO.C,D28*%
X71160000Y35110000D02*
X69160000Y35110000D01*
X69160000Y38110000D02*
X71160000Y38110000D01*
X71960000Y38110000D02*
X71960000Y35110000D01*
X68360000Y35110000D02*
X68360000Y38110000D01*
D12*
X68360000Y35110000D02*
G75*
G03*
X69160000Y35110000I400000J0D01*
G01*
X71960000Y38110000D02*
G75*
G03*
X71160000Y38110000I-400000J0D01*
G01*
X69160000Y38110000D02*
G75*
G03*
X68360000Y38110000I-400000J0D01*
G01*
X71160000Y35110000D02*
G75*
G03*
X71960000Y35110000I400000J0D01*
G01*
D11*
%TO.C,D24*%
X128310000Y54160000D02*
X126310000Y54160000D01*
X129110000Y57160000D02*
X129110000Y54160000D01*
X125510000Y54160000D02*
X125510000Y57160000D01*
X126310000Y57160000D02*
X128310000Y57160000D01*
D12*
X126310000Y57160000D02*
G75*
G03*
X125510000Y57160000I-400000J0D01*
G01*
X125510000Y54160000D02*
G75*
G03*
X126310000Y54160000I400000J0D01*
G01*
X129110000Y57160000D02*
G75*
G03*
X128310000Y57160000I-400000J0D01*
G01*
X128310000Y54160000D02*
G75*
G03*
X129110000Y54160000I400000J0D01*
G01*
D11*
%TO.C,D17*%
X33060000Y92260000D02*
X31060000Y92260000D01*
X33860000Y95260000D02*
X33860000Y92260000D01*
X30260000Y92260000D02*
X30260000Y95260000D01*
X31060000Y95260000D02*
X33060000Y95260000D01*
D12*
X31060000Y95260000D02*
G75*
G03*
X30260000Y95260000I-400000J0D01*
G01*
X33860000Y95260000D02*
G75*
G03*
X33060000Y95260000I-400000J0D01*
G01*
X30260000Y92260000D02*
G75*
G03*
X31060000Y92260000I400000J0D01*
G01*
X33060000Y92260000D02*
G75*
G03*
X33860000Y92260000I400000J0D01*
G01*
D11*
%TO.C,D19*%
X11210000Y73210000D02*
X11210000Y76210000D01*
X14810000Y76210000D02*
X14810000Y73210000D01*
X14010000Y73210000D02*
X12010000Y73210000D01*
X12010000Y76210000D02*
X14010000Y76210000D01*
D12*
X11210000Y73210000D02*
G75*
G03*
X12010000Y73210000I400000J0D01*
G01*
X12010000Y76210000D02*
G75*
G03*
X11210000Y76210000I-400000J0D01*
G01*
X14810000Y76210000D02*
G75*
G03*
X14010000Y76210000I-400000J0D01*
G01*
X14010000Y73210000D02*
G75*
G03*
X14810000Y73210000I400000J0D01*
G01*
D11*
%TO.C,D20*%
X31060000Y76210000D02*
X33060000Y76210000D01*
X33060000Y73210000D02*
X31060000Y73210000D01*
X30260000Y73210000D02*
X30260000Y76210000D01*
X33860000Y76210000D02*
X33860000Y73210000D01*
D12*
X33860000Y76210000D02*
G75*
G03*
X33060000Y76210000I-400000J0D01*
G01*
X30260000Y73210000D02*
G75*
G03*
X31060000Y73210000I400000J0D01*
G01*
X31060000Y76210000D02*
G75*
G03*
X30260000Y76210000I-400000J0D01*
G01*
X33060000Y73210000D02*
G75*
G03*
X33860000Y73210000I400000J0D01*
G01*
D11*
%TO.C,D31*%
X109260000Y16060000D02*
X107260000Y16060000D01*
X107260000Y19060000D02*
X109260000Y19060000D01*
X106460000Y16060000D02*
X106460000Y19060000D01*
X110060000Y19060000D02*
X110060000Y16060000D01*
D12*
X109260000Y16060000D02*
G75*
G03*
X110060000Y16060000I400000J0D01*
G01*
X106460000Y16060000D02*
G75*
G03*
X107260000Y16060000I400000J0D01*
G01*
X110060000Y19060000D02*
G75*
G03*
X109260000Y19060000I-400000J0D01*
G01*
X107260000Y19060000D02*
G75*
G03*
X106460000Y19060000I-400000J0D01*
G01*
D11*
%TO.C,D21*%
X69160000Y57160000D02*
X71160000Y57160000D01*
X71960000Y57160000D02*
X71960000Y54160000D01*
X68360000Y54160000D02*
X68360000Y57160000D01*
X71160000Y54160000D02*
X69160000Y54160000D01*
D12*
X68360000Y54160000D02*
G75*
G03*
X69160000Y54160000I400000J0D01*
G01*
X71960000Y57160000D02*
G75*
G03*
X71160000Y57160000I-400000J0D01*
G01*
X71160000Y54160000D02*
G75*
G03*
X71960000Y54160000I400000J0D01*
G01*
X69160000Y57160000D02*
G75*
G03*
X68360000Y57160000I-400000J0D01*
G01*
D11*
%TO.C,D29*%
X68360000Y16060000D02*
X68360000Y19060000D01*
X69160000Y19060000D02*
X71160000Y19060000D01*
X71160000Y16060000D02*
X69160000Y16060000D01*
X71960000Y19060000D02*
X71960000Y16060000D01*
D12*
X71160000Y16060000D02*
G75*
G03*
X71960000Y16060000I400000J0D01*
G01*
X68360000Y16060000D02*
G75*
G03*
X69160000Y16060000I400000J0D01*
G01*
X69160000Y19060000D02*
G75*
G03*
X68360000Y19060000I-400000J0D01*
G01*
X71960000Y19060000D02*
G75*
G03*
X71160000Y19060000I-400000J0D01*
G01*
D11*
%TO.C,D26*%
X109260000Y35110000D02*
X107260000Y35110000D01*
X110060000Y38110000D02*
X110060000Y35110000D01*
X107260000Y38110000D02*
X109260000Y38110000D01*
X106460000Y35110000D02*
X106460000Y38110000D01*
D12*
X106460000Y35110000D02*
G75*
G03*
X107260000Y35110000I400000J0D01*
G01*
X110060000Y38110000D02*
G75*
G03*
X109260000Y38110000I-400000J0D01*
G01*
X107260000Y38110000D02*
G75*
G03*
X106460000Y38110000I-400000J0D01*
G01*
X109260000Y35110000D02*
G75*
G03*
X110060000Y35110000I400000J0D01*
G01*
%TD*%
M02*
