%TF.GenerationSoftware,KiCad,Pcbnew,(6.0.8)*%
%TF.CreationDate,2022-10-26T23:50:22+02:00*%
%TF.ProjectId,KeypadV2,4b657970-6164-4563-922e-6b696361645f,rev?*%
%TF.SameCoordinates,Original*%
%TF.FileFunction,Soldermask,Bot*%
%TF.FilePolarity,Negative*%
%FSLAX46Y46*%
G04 Gerber Fmt 4.6, Leading zero omitted, Abs format (unit mm)*
G04 Created by KiCad (PCBNEW (6.0.8)) date 2022-10-26 23:50:22*
%MOMM*%
%LPD*%
G01*
G04 APERTURE LIST*
G04 Aperture macros list*
%AMRoundRect*
0 Rectangle with rounded corners*
0 $1 Rounding radius*
0 $2 $3 $4 $5 $6 $7 $8 $9 X,Y pos of 4 corners*
0 Add a 4 corners polygon primitive as box body*
4,1,4,$2,$3,$4,$5,$6,$7,$8,$9,$2,$3,0*
0 Add four circle primitives for the rounded corners*
1,1,$1+$1,$2,$3*
1,1,$1+$1,$4,$5*
1,1,$1+$1,$6,$7*
1,1,$1+$1,$8,$9*
0 Add four rect primitives between the rounded corners*
20,1,$1+$1,$2,$3,$4,$5,0*
20,1,$1+$1,$4,$5,$6,$7,0*
20,1,$1+$1,$6,$7,$8,$9,0*
20,1,$1+$1,$8,$9,$2,$3,0*%
G04 Aperture macros list end*
%TA.AperFunction,Profile*%
%ADD10C,0.100000*%
%TD*%
%TA.AperFunction,Profile*%
%ADD11C,0.000100*%
%TD*%
%TA.AperFunction,Profile*%
%ADD12C,0.000025*%
%TD*%
%ADD13R,1.700000X1.700000*%
%ADD14O,1.700000X1.700000*%
%ADD15C,4.000000*%
%ADD16C,1.701800*%
%ADD17C,3.000000*%
%ADD18R,2.550000X2.500000*%
%ADD19R,1.200000X0.900000*%
%ADD20R,1.800000X0.820000*%
%ADD21RoundRect,0.250000X-0.337500X-0.475000X0.337500X-0.475000X0.337500X0.475000X-0.337500X0.475000X0*%
%ADD22RoundRect,0.250000X0.337500X0.475000X-0.337500X0.475000X-0.337500X-0.475000X0.337500X-0.475000X0*%
%ADD23RoundRect,0.250000X0.350000X0.450000X-0.350000X0.450000X-0.350000X-0.450000X0.350000X-0.450000X0*%
%ADD24RoundRect,0.395400X0.370000X-0.630000X0.370000X0.630000X-0.370000X0.630000X-0.370000X-0.630000X0*%
%ADD25RoundRect,0.381000X0.355600X-0.644400X0.355600X0.644400X-0.355600X0.644400X-0.355600X-0.644400X0*%
%ADD26RoundRect,0.250000X-0.450000X0.350000X-0.450000X-0.350000X0.450000X-0.350000X0.450000X0.350000X0*%
%ADD27R,1.500000X1.000000*%
%ADD28RoundRect,0.250000X0.450000X-0.350000X0.450000X0.350000X-0.450000X0.350000X-0.450000X-0.350000X0*%
G04 APERTURE END LIST*
D10*
X140850000Y51100000D02*
G75*
G03*
X140850000Y51100000I-1550000J0D01*
G01*
X2550000Y51100000D02*
G75*
G03*
X2550000Y51100000I-1550000J0D01*
G01*
X71700000Y1000000D02*
G75*
G03*
X71700000Y1000000I-1550000J0D01*
G01*
X71700000Y101200000D02*
G75*
G03*
X71700000Y101200000I-1550000J0D01*
G01*
X2550000Y1000000D02*
G75*
G03*
X2550000Y1000000I-1550000J0D01*
G01*
X140850000Y1000000D02*
G75*
G03*
X140850000Y1000000I-1550000J0D01*
G01*
X140850000Y101200000D02*
G75*
G03*
X140850000Y101200000I-1550000J0D01*
G01*
X2550000Y101200000D02*
G75*
G03*
X2550000Y101200000I-1550000J0D01*
G01*
X144300000Y-1000000D02*
X144300000Y103200000D01*
X-1000000Y-4000000D02*
X141300000Y-4000000D01*
X-4000000Y103200000D02*
X-4000000Y-1000000D01*
X-1000000Y106200000D02*
X141300000Y106200000D01*
X-1000000Y106200000D02*
G75*
G03*
X-4000000Y103200000I0J-3000000D01*
G01*
X-4000000Y-1000000D02*
G75*
G03*
X-1000000Y-4000000I3000000J0D01*
G01*
X141300000Y-4000000D02*
G75*
G03*
X144300000Y-1000000I0J3000000D01*
G01*
X144300000Y103200000D02*
G75*
G03*
X141300000Y106200000I-3000000J0D01*
G01*
X31250000Y32050000D02*
G75*
G03*
X31250000Y32050000I-10000000J0D01*
G01*
D11*
%TO.C,D27*%
X91010000Y38110000D02*
X91010000Y35110000D01*
X87410000Y35110000D02*
X87410000Y38110000D01*
X88210000Y38110000D02*
X90210000Y38110000D01*
X90210000Y35110000D02*
X88210000Y35110000D01*
D12*
X87410000Y35110000D02*
G75*
G03*
X88210000Y35110000I400000J0D01*
G01*
X88210000Y38110000D02*
G75*
G03*
X87410000Y38110000I-400000J0D01*
G01*
X90210000Y35110000D02*
G75*
G03*
X91010000Y35110000I400000J0D01*
G01*
X91010000Y38110000D02*
G75*
G03*
X90210000Y38110000I-400000J0D01*
G01*
D11*
%TO.C,D25*%
X128310000Y35110000D02*
X126310000Y35110000D01*
X129110000Y38110000D02*
X129110000Y35110000D01*
X126310000Y38110000D02*
X128310000Y38110000D01*
X125510000Y35110000D02*
X125510000Y38110000D01*
D12*
X129110000Y38110000D02*
G75*
G03*
X128310000Y38110000I-400000J0D01*
G01*
X126310000Y38110000D02*
G75*
G03*
X125510000Y38110000I-400000J0D01*
G01*
X125510000Y35110000D02*
G75*
G03*
X126310000Y35110000I400000J0D01*
G01*
X128310000Y35110000D02*
G75*
G03*
X129110000Y35110000I400000J0D01*
G01*
D11*
%TO.C,D32*%
X126310000Y19060000D02*
X128310000Y19060000D01*
X128310000Y16060000D02*
X126310000Y16060000D01*
X129110000Y19060000D02*
X129110000Y16060000D01*
X125510000Y16060000D02*
X125510000Y19060000D01*
D12*
X128310000Y16060000D02*
G75*
G03*
X129110000Y16060000I400000J0D01*
G01*
X126310000Y19060000D02*
G75*
G03*
X125510000Y19060000I-400000J0D01*
G01*
X125510000Y16060000D02*
G75*
G03*
X126310000Y16060000I400000J0D01*
G01*
X129110000Y19060000D02*
G75*
G03*
X128310000Y19060000I-400000J0D01*
G01*
D11*
%TO.C,D30*%
X88210000Y19060000D02*
X90210000Y19060000D01*
X90210000Y16060000D02*
X88210000Y16060000D01*
X87410000Y16060000D02*
X87410000Y19060000D01*
X91010000Y19060000D02*
X91010000Y16060000D01*
D12*
X87410000Y16060000D02*
G75*
G03*
X88210000Y16060000I400000J0D01*
G01*
X90210000Y16060000D02*
G75*
G03*
X91010000Y16060000I400000J0D01*
G01*
X91010000Y19060000D02*
G75*
G03*
X90210000Y19060000I-400000J0D01*
G01*
X88210000Y19060000D02*
G75*
G03*
X87410000Y19060000I-400000J0D01*
G01*
D11*
%TO.C,D18*%
X14010000Y92260000D02*
X12010000Y92260000D01*
X14810000Y95260000D02*
X14810000Y92260000D01*
X12010000Y95260000D02*
X14010000Y95260000D01*
X11210000Y92260000D02*
X11210000Y95260000D01*
D12*
X14010000Y92260000D02*
G75*
G03*
X14810000Y92260000I400000J0D01*
G01*
X11210000Y92260000D02*
G75*
G03*
X12010000Y92260000I400000J0D01*
G01*
X14810000Y95260000D02*
G75*
G03*
X14010000Y95260000I-400000J0D01*
G01*
X12010000Y95260000D02*
G75*
G03*
X11210000Y95260000I-400000J0D01*
G01*
D11*
%TO.C,D22*%
X87410000Y54160000D02*
X87410000Y57160000D01*
X91010000Y57160000D02*
X91010000Y54160000D01*
X88210000Y57160000D02*
X90210000Y57160000D01*
X90210000Y54160000D02*
X88210000Y54160000D01*
D12*
X87410000Y54160000D02*
G75*
G03*
X88210000Y54160000I400000J0D01*
G01*
X91010000Y57160000D02*
G75*
G03*
X90210000Y57160000I-400000J0D01*
G01*
X90210000Y54160000D02*
G75*
G03*
X91010000Y54160000I400000J0D01*
G01*
X88210000Y57160000D02*
G75*
G03*
X87410000Y57160000I-400000J0D01*
G01*
D11*
%TO.C,D23*%
X106460000Y54160000D02*
X106460000Y57160000D01*
X107260000Y57160000D02*
X109260000Y57160000D01*
X109260000Y54160000D02*
X107260000Y54160000D01*
X110060000Y57160000D02*
X110060000Y54160000D01*
D12*
X106460000Y54160000D02*
G75*
G03*
X107260000Y54160000I400000J0D01*
G01*
X107260000Y57160000D02*
G75*
G03*
X106460000Y57160000I-400000J0D01*
G01*
X110060000Y57160000D02*
G75*
G03*
X109260000Y57160000I-400000J0D01*
G01*
X109260000Y54160000D02*
G75*
G03*
X110060000Y54160000I400000J0D01*
G01*
D11*
%TO.C,D28*%
X71160000Y35110000D02*
X69160000Y35110000D01*
X69160000Y38110000D02*
X71160000Y38110000D01*
X71960000Y38110000D02*
X71960000Y35110000D01*
X68360000Y35110000D02*
X68360000Y38110000D01*
D12*
X68360000Y35110000D02*
G75*
G03*
X69160000Y35110000I400000J0D01*
G01*
X71960000Y38110000D02*
G75*
G03*
X71160000Y38110000I-400000J0D01*
G01*
X69160000Y38110000D02*
G75*
G03*
X68360000Y38110000I-400000J0D01*
G01*
X71160000Y35110000D02*
G75*
G03*
X71960000Y35110000I400000J0D01*
G01*
D11*
%TO.C,D24*%
X128310000Y54160000D02*
X126310000Y54160000D01*
X129110000Y57160000D02*
X129110000Y54160000D01*
X125510000Y54160000D02*
X125510000Y57160000D01*
X126310000Y57160000D02*
X128310000Y57160000D01*
D12*
X126310000Y57160000D02*
G75*
G03*
X125510000Y57160000I-400000J0D01*
G01*
X125510000Y54160000D02*
G75*
G03*
X126310000Y54160000I400000J0D01*
G01*
X129110000Y57160000D02*
G75*
G03*
X128310000Y57160000I-400000J0D01*
G01*
X128310000Y54160000D02*
G75*
G03*
X129110000Y54160000I400000J0D01*
G01*
D11*
%TO.C,D17*%
X33060000Y92260000D02*
X31060000Y92260000D01*
X33860000Y95260000D02*
X33860000Y92260000D01*
X30260000Y92260000D02*
X30260000Y95260000D01*
X31060000Y95260000D02*
X33060000Y95260000D01*
D12*
X31060000Y95260000D02*
G75*
G03*
X30260000Y95260000I-400000J0D01*
G01*
X33860000Y95260000D02*
G75*
G03*
X33060000Y95260000I-400000J0D01*
G01*
X30260000Y92260000D02*
G75*
G03*
X31060000Y92260000I400000J0D01*
G01*
X33060000Y92260000D02*
G75*
G03*
X33860000Y92260000I400000J0D01*
G01*
D11*
%TO.C,D19*%
X11210000Y73210000D02*
X11210000Y76210000D01*
X14810000Y76210000D02*
X14810000Y73210000D01*
X14010000Y73210000D02*
X12010000Y73210000D01*
X12010000Y76210000D02*
X14010000Y76210000D01*
D12*
X11210000Y73210000D02*
G75*
G03*
X12010000Y73210000I400000J0D01*
G01*
X12010000Y76210000D02*
G75*
G03*
X11210000Y76210000I-400000J0D01*
G01*
X14810000Y76210000D02*
G75*
G03*
X14010000Y76210000I-400000J0D01*
G01*
X14010000Y73210000D02*
G75*
G03*
X14810000Y73210000I400000J0D01*
G01*
D11*
%TO.C,D20*%
X31060000Y76210000D02*
X33060000Y76210000D01*
X33060000Y73210000D02*
X31060000Y73210000D01*
X30260000Y73210000D02*
X30260000Y76210000D01*
X33860000Y76210000D02*
X33860000Y73210000D01*
D12*
X33860000Y76210000D02*
G75*
G03*
X33060000Y76210000I-400000J0D01*
G01*
X30260000Y73210000D02*
G75*
G03*
X31060000Y73210000I400000J0D01*
G01*
X31060000Y76210000D02*
G75*
G03*
X30260000Y76210000I-400000J0D01*
G01*
X33060000Y73210000D02*
G75*
G03*
X33860000Y73210000I400000J0D01*
G01*
D11*
%TO.C,D31*%
X109260000Y16060000D02*
X107260000Y16060000D01*
X107260000Y19060000D02*
X109260000Y19060000D01*
X106460000Y16060000D02*
X106460000Y19060000D01*
X110060000Y19060000D02*
X110060000Y16060000D01*
D12*
X109260000Y16060000D02*
G75*
G03*
X110060000Y16060000I400000J0D01*
G01*
X106460000Y16060000D02*
G75*
G03*
X107260000Y16060000I400000J0D01*
G01*
X110060000Y19060000D02*
G75*
G03*
X109260000Y19060000I-400000J0D01*
G01*
X107260000Y19060000D02*
G75*
G03*
X106460000Y19060000I-400000J0D01*
G01*
D11*
%TO.C,D21*%
X69160000Y57160000D02*
X71160000Y57160000D01*
X71960000Y57160000D02*
X71960000Y54160000D01*
X68360000Y54160000D02*
X68360000Y57160000D01*
X71160000Y54160000D02*
X69160000Y54160000D01*
D12*
X68360000Y54160000D02*
G75*
G03*
X69160000Y54160000I400000J0D01*
G01*
X71960000Y57160000D02*
G75*
G03*
X71160000Y57160000I-400000J0D01*
G01*
X71160000Y54160000D02*
G75*
G03*
X71960000Y54160000I400000J0D01*
G01*
X69160000Y57160000D02*
G75*
G03*
X68360000Y57160000I-400000J0D01*
G01*
D11*
%TO.C,D29*%
X68360000Y16060000D02*
X68360000Y19060000D01*
X69160000Y19060000D02*
X71160000Y19060000D01*
X71160000Y16060000D02*
X69160000Y16060000D01*
X71960000Y19060000D02*
X71960000Y16060000D01*
D12*
X71160000Y16060000D02*
G75*
G03*
X71960000Y16060000I400000J0D01*
G01*
X68360000Y16060000D02*
G75*
G03*
X69160000Y16060000I400000J0D01*
G01*
X69160000Y19060000D02*
G75*
G03*
X68360000Y19060000I-400000J0D01*
G01*
X71960000Y19060000D02*
G75*
G03*
X71160000Y19060000I-400000J0D01*
G01*
D11*
%TO.C,D26*%
X109260000Y35110000D02*
X107260000Y35110000D01*
X110060000Y38110000D02*
X110060000Y35110000D01*
X107260000Y38110000D02*
X109260000Y38110000D01*
X106460000Y35110000D02*
X106460000Y38110000D01*
D12*
X106460000Y35110000D02*
G75*
G03*
X107260000Y35110000I400000J0D01*
G01*
X110060000Y38110000D02*
G75*
G03*
X109260000Y38110000I-400000J0D01*
G01*
X107260000Y38110000D02*
G75*
G03*
X106460000Y38110000I-400000J0D01*
G01*
X109260000Y35110000D02*
G75*
G03*
X110060000Y35110000I400000J0D01*
G01*
%TD*%
D13*
%TO.C,SW1*%
X91875000Y100000000D03*
D14*
X89335000Y100000000D03*
X86795000Y100000000D03*
%TD*%
D15*
%TO.C,SW12*%
X108260000Y13010000D03*
D16*
X103180000Y13010000D03*
D17*
X112070000Y10470000D03*
D16*
X113340000Y13010000D03*
D17*
X105720000Y7930000D03*
D18*
X101970000Y7930000D03*
X115820000Y10470000D03*
%TD*%
D15*
%TO.C,SW16*%
X13010000Y70160000D03*
D17*
X10470000Y65080000D03*
D16*
X7930000Y70160000D03*
D17*
X16820000Y67620000D03*
D16*
X18090000Y70160000D03*
D18*
X6720000Y65080000D03*
X20570000Y67620000D03*
%TD*%
D16*
%TO.C,SW4*%
X113340000Y51110000D03*
D15*
X108260000Y51110000D03*
D17*
X112070000Y48570000D03*
X105720000Y46030000D03*
D16*
X103180000Y51110000D03*
D18*
X101970000Y46030000D03*
X115820000Y48570000D03*
%TD*%
D17*
%TO.C,SW10*%
X67620000Y7930000D03*
D15*
X70160000Y13010000D03*
D17*
X73970000Y10470000D03*
D16*
X75240000Y13010000D03*
X65080000Y13010000D03*
D18*
X63870000Y7930000D03*
X77720000Y10470000D03*
%TD*%
D17*
%TO.C,SW3*%
X93020000Y48570000D03*
D15*
X89210000Y51110000D03*
D16*
X94290000Y51110000D03*
D17*
X86670000Y46030000D03*
D16*
X84130000Y51110000D03*
D18*
X82920000Y46030000D03*
X96770000Y48570000D03*
%TD*%
D13*
%TO.C,U2*%
X40750000Y28225000D03*
D14*
X40750000Y30765000D03*
X40750000Y33305000D03*
X40750000Y35845000D03*
X40750000Y38385000D03*
%TD*%
D16*
%TO.C,SW11*%
X94290000Y13010000D03*
D15*
X89210000Y13010000D03*
D17*
X93020000Y10470000D03*
X86670000Y7930000D03*
D16*
X84130000Y13010000D03*
D18*
X82920000Y7930000D03*
X96770000Y10470000D03*
%TD*%
D17*
%TO.C,SW5*%
X124770000Y46030000D03*
D16*
X122230000Y51110000D03*
D17*
X131120000Y48570000D03*
D15*
X127310000Y51110000D03*
D16*
X132390000Y51110000D03*
D18*
X121020000Y46030000D03*
X134870000Y48570000D03*
%TD*%
D17*
%TO.C,SW14*%
X10470000Y84130000D03*
D15*
X13010000Y89210000D03*
D16*
X18090000Y89210000D03*
X7930000Y89210000D03*
D17*
X16820000Y86670000D03*
D18*
X6720000Y84130000D03*
X20570000Y86670000D03*
%TD*%
D17*
%TO.C,SW15*%
X29520000Y84130000D03*
D16*
X26980000Y89210000D03*
X37140000Y89210000D03*
D17*
X35870000Y86670000D03*
D15*
X32060000Y89210000D03*
D18*
X25770000Y84130000D03*
X39620000Y86670000D03*
%TD*%
D13*
%TO.C,U1*%
X59400000Y73600000D03*
D14*
X59400000Y76140000D03*
X59400000Y78680000D03*
X59400000Y81220000D03*
X59400000Y83760000D03*
X59400000Y86300000D03*
X59400000Y88840000D03*
X59400000Y91380000D03*
%TD*%
D13*
%TO.C,J2*%
X82050000Y89850000D03*
%TD*%
D16*
%TO.C,SW9*%
X122230000Y32060000D03*
D17*
X124770000Y26980000D03*
X131120000Y29520000D03*
D15*
X127310000Y32060000D03*
D16*
X132390000Y32060000D03*
D18*
X121020000Y26980000D03*
X134870000Y29520000D03*
%TD*%
D17*
%TO.C,SW8*%
X112070000Y29520000D03*
D16*
X113340000Y32060000D03*
D17*
X105720000Y26980000D03*
D16*
X103180000Y32060000D03*
D15*
X108260000Y32060000D03*
D18*
X101970000Y26980000D03*
X115820000Y29520000D03*
%TD*%
D16*
%TO.C,SW13*%
X122230000Y13010000D03*
D17*
X124770000Y7930000D03*
D15*
X127310000Y13010000D03*
D17*
X131120000Y10470000D03*
D16*
X132390000Y13010000D03*
D18*
X121020000Y7930000D03*
X134870000Y10470000D03*
%TD*%
D13*
%TO.C,J1*%
X76150000Y89850000D03*
%TD*%
D15*
%TO.C,SW6*%
X70160000Y32060000D03*
D17*
X67620000Y26980000D03*
D16*
X75240000Y32060000D03*
D17*
X73970000Y29520000D03*
D16*
X65080000Y32060000D03*
D18*
X63870000Y26980000D03*
X77720000Y29520000D03*
%TD*%
D16*
%TO.C,SW2*%
X75240000Y51110000D03*
D17*
X67620000Y46030000D03*
D15*
X70160000Y51110000D03*
D16*
X65080000Y51110000D03*
D17*
X73970000Y48570000D03*
D18*
X63870000Y46030000D03*
X77720000Y48570000D03*
%TD*%
D15*
%TO.C,SW7*%
X89210000Y32060000D03*
D16*
X94290000Y32060000D03*
X84130000Y32060000D03*
D17*
X93020000Y29520000D03*
X86670000Y26980000D03*
D18*
X82920000Y26980000D03*
X96770000Y29520000D03*
%TD*%
D15*
%TO.C,SW17*%
X32060000Y70160000D03*
D17*
X35870000Y67620000D03*
D16*
X37140000Y70160000D03*
D17*
X29520000Y65080000D03*
D16*
X26980000Y70160000D03*
D18*
X25770000Y65080000D03*
X39620000Y67620000D03*
%TD*%
D19*
%TO.C,D5*%
X77720000Y37020000D03*
X77720000Y33720000D03*
%TD*%
D20*
%TO.C,D27*%
X91910000Y35860000D03*
X91910000Y37360000D03*
X86510000Y37360000D03*
X86510000Y35860000D03*
%TD*%
D19*
%TO.C,D3*%
X115820000Y56070000D03*
X115820000Y52770000D03*
%TD*%
D21*
%TO.C,C12*%
X126272500Y40810000D03*
X128347500Y40810000D03*
%TD*%
D22*
%TO.C,C6*%
X90247500Y59860000D03*
X88172500Y59860000D03*
%TD*%
D23*
%TO.C,R1*%
X129350000Y64600000D03*
X127350000Y64600000D03*
%TD*%
D20*
%TO.C,D25*%
X130010000Y35860000D03*
X130010000Y37360000D03*
X124610000Y37360000D03*
X124610000Y35860000D03*
%TD*%
%TO.C,D32*%
X124610000Y18310000D03*
X124610000Y16810000D03*
X130010000Y16810000D03*
X130010000Y18310000D03*
%TD*%
D22*
%TO.C,C5*%
X71197500Y59860000D03*
X69122500Y59860000D03*
%TD*%
D20*
%TO.C,D30*%
X86510000Y18310000D03*
X86510000Y16810000D03*
X91910000Y16810000D03*
X91910000Y18310000D03*
%TD*%
D21*
%TO.C,C10*%
X88172500Y40810000D03*
X90247500Y40810000D03*
%TD*%
D20*
%TO.C,D18*%
X15710000Y93010000D03*
X15710000Y94510000D03*
X10310000Y94510000D03*
X10310000Y93010000D03*
%TD*%
%TO.C,D22*%
X86510000Y56410000D03*
X86510000Y54910000D03*
X91910000Y54910000D03*
X91910000Y56410000D03*
%TD*%
D22*
%TO.C,C16*%
X128347500Y21760000D03*
X126272500Y21760000D03*
%TD*%
D20*
%TO.C,D23*%
X105560000Y56410000D03*
X105560000Y54910000D03*
X110960000Y54910000D03*
X110960000Y56410000D03*
%TD*%
D21*
%TO.C,C1*%
X31022500Y97960000D03*
X33097500Y97960000D03*
%TD*%
D20*
%TO.C,D28*%
X72860000Y35860000D03*
X72860000Y37360000D03*
X67460000Y37360000D03*
X67460000Y35860000D03*
%TD*%
D22*
%TO.C,C4*%
X33097500Y78910000D03*
X31022500Y78910000D03*
%TD*%
%TO.C,C8*%
X128347500Y59860000D03*
X126272500Y59860000D03*
%TD*%
D23*
%TO.C,R2*%
X131850000Y66950000D03*
X129850000Y66950000D03*
%TD*%
D22*
%TO.C,C14*%
X90247500Y21760000D03*
X88172500Y21760000D03*
%TD*%
D20*
%TO.C,D24*%
X124610000Y56410000D03*
X124610000Y54910000D03*
X130010000Y54910000D03*
X130010000Y56410000D03*
%TD*%
D24*
%TO.C,U3*%
X140024000Y88775000D03*
X137480000Y88775000D03*
X134944000Y88775000D03*
X132404000Y88775000D03*
X129864000Y88775000D03*
X127324000Y88775000D03*
X124784000Y88775000D03*
X122244000Y88775000D03*
X119704000Y88775000D03*
X117164000Y88775000D03*
X114624000Y88775000D03*
X112084000Y88775000D03*
D25*
X109544000Y88775000D03*
X107004000Y88775000D03*
X104464000Y88775000D03*
X101924000Y88775000D03*
X99384000Y88775000D03*
X99376422Y70575000D03*
X101916422Y70575000D03*
X104456422Y70575000D03*
X106996422Y70575000D03*
X109536422Y70575000D03*
D24*
X112076422Y70575000D03*
X114616422Y70575000D03*
X117156422Y70575000D03*
X119696422Y70575000D03*
X122236422Y70575000D03*
X124776422Y70575000D03*
X127316422Y70575000D03*
X129856422Y70575000D03*
X132396422Y70575000D03*
X134936422Y70575000D03*
X137472422Y70575000D03*
X140016422Y70575000D03*
%TD*%
D19*
%TO.C,D11*%
X115820000Y17970000D03*
X115820000Y14670000D03*
%TD*%
D20*
%TO.C,D17*%
X34760000Y93010000D03*
X34760000Y94510000D03*
X29360000Y94510000D03*
X29360000Y93010000D03*
%TD*%
D26*
%TO.C,R4*%
X55500000Y82700000D03*
X55500000Y80700000D03*
%TD*%
D19*
%TO.C,D14*%
X39620000Y79170000D03*
X39620000Y82470000D03*
%TD*%
%TO.C,D9*%
X77720000Y17970000D03*
X77720000Y14670000D03*
%TD*%
D21*
%TO.C,C9*%
X69122500Y40810000D03*
X71197500Y40810000D03*
%TD*%
D19*
%TO.C,D10*%
X96770000Y17970000D03*
X96770000Y14670000D03*
%TD*%
D22*
%TO.C,C13*%
X71197500Y21760000D03*
X69122500Y21760000D03*
%TD*%
D19*
%TO.C,D12*%
X134870000Y17970000D03*
X134870000Y14670000D03*
%TD*%
D27*
%TO.C,JP1*%
X112042500Y96350000D03*
X112042500Y97650000D03*
X112042500Y98950000D03*
%TD*%
D19*
%TO.C,D13*%
X20570000Y79170000D03*
X20570000Y82470000D03*
%TD*%
D20*
%TO.C,D19*%
X10310000Y75460000D03*
X10310000Y73960000D03*
X15710000Y73960000D03*
X15710000Y75460000D03*
%TD*%
D19*
%TO.C,D7*%
X115820000Y37020000D03*
X115820000Y33720000D03*
%TD*%
D28*
%TO.C,R3*%
X52500000Y80700000D03*
X52500000Y82700000D03*
%TD*%
D20*
%TO.C,D20*%
X29360000Y75460000D03*
X29360000Y73960000D03*
X34760000Y73960000D03*
X34760000Y75460000D03*
%TD*%
D22*
%TO.C,C3*%
X14047500Y78910000D03*
X11972500Y78910000D03*
%TD*%
D19*
%TO.C,D6*%
X96770000Y37020000D03*
X96770000Y33720000D03*
%TD*%
D21*
%TO.C,C11*%
X107222500Y40810000D03*
X109297500Y40810000D03*
%TD*%
D20*
%TO.C,D31*%
X105560000Y18310000D03*
X105560000Y16810000D03*
X110960000Y16810000D03*
X110960000Y18310000D03*
%TD*%
D19*
%TO.C,D15*%
X20570000Y60120000D03*
X20570000Y63420000D03*
%TD*%
D22*
%TO.C,C15*%
X109297500Y21760000D03*
X107222500Y21760000D03*
%TD*%
%TO.C,C7*%
X109297500Y59860000D03*
X107222500Y59860000D03*
%TD*%
D21*
%TO.C,C2*%
X11972500Y97960000D03*
X14047500Y97960000D03*
%TD*%
D20*
%TO.C,D21*%
X67460000Y56410000D03*
X67460000Y54910000D03*
X72860000Y54910000D03*
X72860000Y56410000D03*
%TD*%
%TO.C,D29*%
X67460000Y18310000D03*
X67460000Y16810000D03*
X72860000Y16810000D03*
X72860000Y18310000D03*
%TD*%
D23*
%TO.C,R5*%
X44750000Y94500000D03*
X42750000Y94500000D03*
%TD*%
D19*
%TO.C,D2*%
X96770000Y56070000D03*
X96770000Y52770000D03*
%TD*%
%TO.C,D4*%
X134870000Y56070000D03*
X134870000Y52770000D03*
%TD*%
%TO.C,D1*%
X77720000Y56070000D03*
X77720000Y52770000D03*
%TD*%
%TO.C,D8*%
X134870000Y37020000D03*
X134870000Y33720000D03*
%TD*%
%TO.C,D16*%
X39620000Y60120000D03*
X39620000Y63420000D03*
%TD*%
D20*
%TO.C,D26*%
X110960000Y35860000D03*
X110960000Y37360000D03*
X105560000Y37360000D03*
X105560000Y35860000D03*
%TD*%
M02*
