%TF.GenerationSoftware,KiCad,Pcbnew,(6.0.8)*%
%TF.CreationDate,2022-10-26T23:50:22+02:00*%
%TF.ProjectId,KeypadV2,4b657970-6164-4563-922e-6b696361645f,rev?*%
%TF.SameCoordinates,Original*%
%TF.FileFunction,Legend,Bot*%
%TF.FilePolarity,Positive*%
%FSLAX46Y46*%
G04 Gerber Fmt 4.6, Leading zero omitted, Abs format (unit mm)*
G04 Created by KiCad (PCBNEW (6.0.8)) date 2022-10-26 23:50:22*
%MOMM*%
%LPD*%
G01*
G04 APERTURE LIST*
%TA.AperFunction,Profile*%
%ADD10C,0.100000*%
%TD*%
%ADD11C,0.200000*%
%ADD12C,0.150000*%
%ADD13C,0.120000*%
%TA.AperFunction,Profile*%
%ADD14C,0.000100*%
%TD*%
%TA.AperFunction,Profile*%
%ADD15C,0.000025*%
%TD*%
G04 APERTURE END LIST*
D10*
X140850000Y51100000D02*
G75*
G03*
X140850000Y51100000I-1550000J0D01*
G01*
X2550000Y51100000D02*
G75*
G03*
X2550000Y51100000I-1550000J0D01*
G01*
X71700000Y1000000D02*
G75*
G03*
X71700000Y1000000I-1550000J0D01*
G01*
X71700000Y101200000D02*
G75*
G03*
X71700000Y101200000I-1550000J0D01*
G01*
X2550000Y1000000D02*
G75*
G03*
X2550000Y1000000I-1550000J0D01*
G01*
X140850000Y1000000D02*
G75*
G03*
X140850000Y1000000I-1550000J0D01*
G01*
X140850000Y101200000D02*
G75*
G03*
X140850000Y101200000I-1550000J0D01*
G01*
X2550000Y101200000D02*
G75*
G03*
X2550000Y101200000I-1550000J0D01*
G01*
X144300000Y-1000000D02*
X144300000Y103200000D01*
X-1000000Y-4000000D02*
X141300000Y-4000000D01*
X-4000000Y103200000D02*
X-4000000Y-1000000D01*
X-1000000Y106200000D02*
X141300000Y106200000D01*
X-1000000Y106200000D02*
G75*
G03*
X-4000000Y103200000I0J-3000000D01*
G01*
X-4000000Y-1000000D02*
G75*
G03*
X-1000000Y-4000000I3000000J0D01*
G01*
X141300000Y-4000000D02*
G75*
G03*
X144300000Y-1000000I0J3000000D01*
G01*
X144300000Y103200000D02*
G75*
G03*
X141300000Y106200000I-3000000J0D01*
G01*
D11*
X52050122Y32050000D02*
G75*
G03*
X52050122Y32050000I-20000122J0D01*
G01*
D10*
X31250000Y32050000D02*
G75*
G03*
X31250000Y32050000I-10000000J0D01*
G01*
D12*
X108764285Y94147619D02*
X109240476Y94147619D01*
X109240476Y95147619D01*
X108430952Y94147619D02*
X108430952Y95147619D01*
X108192857Y95147619D01*
X108050000Y95100000D01*
X107954761Y95004761D01*
X107907142Y94909523D01*
X107859523Y94719047D01*
X107859523Y94576190D01*
X107907142Y94385714D01*
X107954761Y94290476D01*
X108050000Y94195238D01*
X108192857Y94147619D01*
X108430952Y94147619D01*
X107240476Y95147619D02*
X107050000Y95147619D01*
X106954761Y95100000D01*
X106859523Y95004761D01*
X106811904Y94814285D01*
X106811904Y94480952D01*
X106859523Y94290476D01*
X106954761Y94195238D01*
X107050000Y94147619D01*
X107240476Y94147619D01*
X107335714Y94195238D01*
X107430952Y94290476D01*
X107478571Y94480952D01*
X107478571Y94814285D01*
X107430952Y95004761D01*
X107335714Y95100000D01*
X107240476Y95147619D01*
X109692857Y101297619D02*
X109359523Y100297619D01*
X109026190Y101297619D01*
X108359523Y100821428D02*
X108216666Y100773809D01*
X108169047Y100726190D01*
X108121428Y100630952D01*
X108121428Y100488095D01*
X108169047Y100392857D01*
X108216666Y100345238D01*
X108311904Y100297619D01*
X108692857Y100297619D01*
X108692857Y101297619D01*
X108359523Y101297619D01*
X108264285Y101250000D01*
X108216666Y101202380D01*
X108169047Y101107142D01*
X108169047Y101011904D01*
X108216666Y100916666D01*
X108264285Y100869047D01*
X108359523Y100821428D01*
X108692857Y100821428D01*
X107740476Y100583333D02*
X107264285Y100583333D01*
X107835714Y100297619D02*
X107502380Y101297619D01*
X107169047Y100297619D01*
X106978571Y101297619D02*
X106407142Y101297619D01*
X106692857Y100297619D02*
X106692857Y101297619D01*
%TO.C,SW12*%
X110069523Y4350238D02*
X109926666Y4302619D01*
X109688571Y4302619D01*
X109593333Y4350238D01*
X109545714Y4397857D01*
X109498095Y4493095D01*
X109498095Y4588333D01*
X109545714Y4683571D01*
X109593333Y4731190D01*
X109688571Y4778809D01*
X109879047Y4826428D01*
X109974285Y4874047D01*
X110021904Y4921666D01*
X110069523Y5016904D01*
X110069523Y5112142D01*
X110021904Y5207380D01*
X109974285Y5255000D01*
X109879047Y5302619D01*
X109640952Y5302619D01*
X109498095Y5255000D01*
X109164761Y5302619D02*
X108926666Y4302619D01*
X108736190Y5016904D01*
X108545714Y4302619D01*
X108307619Y5302619D01*
X107402857Y4302619D02*
X107974285Y4302619D01*
X107688571Y4302619D02*
X107688571Y5302619D01*
X107783809Y5159761D01*
X107879047Y5064523D01*
X107974285Y5016904D01*
X107021904Y5207380D02*
X106974285Y5255000D01*
X106879047Y5302619D01*
X106640952Y5302619D01*
X106545714Y5255000D01*
X106498095Y5207380D01*
X106450476Y5112142D01*
X106450476Y5016904D01*
X106498095Y4874047D01*
X107069523Y4302619D01*
X106450476Y4302619D01*
%TO.C,SW16*%
X14819523Y61500238D02*
X14676666Y61452619D01*
X14438571Y61452619D01*
X14343333Y61500238D01*
X14295714Y61547857D01*
X14248095Y61643095D01*
X14248095Y61738333D01*
X14295714Y61833571D01*
X14343333Y61881190D01*
X14438571Y61928809D01*
X14629047Y61976428D01*
X14724285Y62024047D01*
X14771904Y62071666D01*
X14819523Y62166904D01*
X14819523Y62262142D01*
X14771904Y62357380D01*
X14724285Y62405000D01*
X14629047Y62452619D01*
X14390952Y62452619D01*
X14248095Y62405000D01*
X13914761Y62452619D02*
X13676666Y61452619D01*
X13486190Y62166904D01*
X13295714Y61452619D01*
X13057619Y62452619D01*
X12152857Y61452619D02*
X12724285Y61452619D01*
X12438571Y61452619D02*
X12438571Y62452619D01*
X12533809Y62309761D01*
X12629047Y62214523D01*
X12724285Y62166904D01*
X11295714Y62452619D02*
X11486190Y62452619D01*
X11581428Y62405000D01*
X11629047Y62357380D01*
X11724285Y62214523D01*
X11771904Y62024047D01*
X11771904Y61643095D01*
X11724285Y61547857D01*
X11676666Y61500238D01*
X11581428Y61452619D01*
X11390952Y61452619D01*
X11295714Y61500238D01*
X11248095Y61547857D01*
X11200476Y61643095D01*
X11200476Y61881190D01*
X11248095Y61976428D01*
X11295714Y62024047D01*
X11390952Y62071666D01*
X11581428Y62071666D01*
X11676666Y62024047D01*
X11724285Y61976428D01*
X11771904Y61881190D01*
%TO.C,SW4*%
X109593333Y42450238D02*
X109450476Y42402619D01*
X109212380Y42402619D01*
X109117142Y42450238D01*
X109069523Y42497857D01*
X109021904Y42593095D01*
X109021904Y42688333D01*
X109069523Y42783571D01*
X109117142Y42831190D01*
X109212380Y42878809D01*
X109402857Y42926428D01*
X109498095Y42974047D01*
X109545714Y43021666D01*
X109593333Y43116904D01*
X109593333Y43212142D01*
X109545714Y43307380D01*
X109498095Y43355000D01*
X109402857Y43402619D01*
X109164761Y43402619D01*
X109021904Y43355000D01*
X108688571Y43402619D02*
X108450476Y42402619D01*
X108260000Y43116904D01*
X108069523Y42402619D01*
X107831428Y43402619D01*
X107021904Y43069285D02*
X107021904Y42402619D01*
X107260000Y43450238D02*
X107498095Y42735952D01*
X106879047Y42735952D01*
%TO.C,SW10*%
X71969523Y4350238D02*
X71826666Y4302619D01*
X71588571Y4302619D01*
X71493333Y4350238D01*
X71445714Y4397857D01*
X71398095Y4493095D01*
X71398095Y4588333D01*
X71445714Y4683571D01*
X71493333Y4731190D01*
X71588571Y4778809D01*
X71779047Y4826428D01*
X71874285Y4874047D01*
X71921904Y4921666D01*
X71969523Y5016904D01*
X71969523Y5112142D01*
X71921904Y5207380D01*
X71874285Y5255000D01*
X71779047Y5302619D01*
X71540952Y5302619D01*
X71398095Y5255000D01*
X71064761Y5302619D02*
X70826666Y4302619D01*
X70636190Y5016904D01*
X70445714Y4302619D01*
X70207619Y5302619D01*
X69302857Y4302619D02*
X69874285Y4302619D01*
X69588571Y4302619D02*
X69588571Y5302619D01*
X69683809Y5159761D01*
X69779047Y5064523D01*
X69874285Y5016904D01*
X68683809Y5302619D02*
X68588571Y5302619D01*
X68493333Y5255000D01*
X68445714Y5207380D01*
X68398095Y5112142D01*
X68350476Y4921666D01*
X68350476Y4683571D01*
X68398095Y4493095D01*
X68445714Y4397857D01*
X68493333Y4350238D01*
X68588571Y4302619D01*
X68683809Y4302619D01*
X68779047Y4350238D01*
X68826666Y4397857D01*
X68874285Y4493095D01*
X68921904Y4683571D01*
X68921904Y4921666D01*
X68874285Y5112142D01*
X68826666Y5207380D01*
X68779047Y5255000D01*
X68683809Y5302619D01*
%TO.C,SW3*%
X90543333Y42450238D02*
X90400476Y42402619D01*
X90162380Y42402619D01*
X90067142Y42450238D01*
X90019523Y42497857D01*
X89971904Y42593095D01*
X89971904Y42688333D01*
X90019523Y42783571D01*
X90067142Y42831190D01*
X90162380Y42878809D01*
X90352857Y42926428D01*
X90448095Y42974047D01*
X90495714Y43021666D01*
X90543333Y43116904D01*
X90543333Y43212142D01*
X90495714Y43307380D01*
X90448095Y43355000D01*
X90352857Y43402619D01*
X90114761Y43402619D01*
X89971904Y43355000D01*
X89638571Y43402619D02*
X89400476Y42402619D01*
X89210000Y43116904D01*
X89019523Y42402619D01*
X88781428Y43402619D01*
X88495714Y43402619D02*
X87876666Y43402619D01*
X88210000Y43021666D01*
X88067142Y43021666D01*
X87971904Y42974047D01*
X87924285Y42926428D01*
X87876666Y42831190D01*
X87876666Y42593095D01*
X87924285Y42497857D01*
X87971904Y42450238D01*
X88067142Y42402619D01*
X88352857Y42402619D01*
X88448095Y42450238D01*
X88495714Y42497857D01*
%TO.C,SW11*%
X91019523Y4350238D02*
X90876666Y4302619D01*
X90638571Y4302619D01*
X90543333Y4350238D01*
X90495714Y4397857D01*
X90448095Y4493095D01*
X90448095Y4588333D01*
X90495714Y4683571D01*
X90543333Y4731190D01*
X90638571Y4778809D01*
X90829047Y4826428D01*
X90924285Y4874047D01*
X90971904Y4921666D01*
X91019523Y5016904D01*
X91019523Y5112142D01*
X90971904Y5207380D01*
X90924285Y5255000D01*
X90829047Y5302619D01*
X90590952Y5302619D01*
X90448095Y5255000D01*
X90114761Y5302619D02*
X89876666Y4302619D01*
X89686190Y5016904D01*
X89495714Y4302619D01*
X89257619Y5302619D01*
X88352857Y4302619D02*
X88924285Y4302619D01*
X88638571Y4302619D02*
X88638571Y5302619D01*
X88733809Y5159761D01*
X88829047Y5064523D01*
X88924285Y5016904D01*
X87400476Y4302619D02*
X87971904Y4302619D01*
X87686190Y4302619D02*
X87686190Y5302619D01*
X87781428Y5159761D01*
X87876666Y5064523D01*
X87971904Y5016904D01*
%TO.C,SW5*%
X128643333Y42450238D02*
X128500476Y42402619D01*
X128262380Y42402619D01*
X128167142Y42450238D01*
X128119523Y42497857D01*
X128071904Y42593095D01*
X128071904Y42688333D01*
X128119523Y42783571D01*
X128167142Y42831190D01*
X128262380Y42878809D01*
X128452857Y42926428D01*
X128548095Y42974047D01*
X128595714Y43021666D01*
X128643333Y43116904D01*
X128643333Y43212142D01*
X128595714Y43307380D01*
X128548095Y43355000D01*
X128452857Y43402619D01*
X128214761Y43402619D01*
X128071904Y43355000D01*
X127738571Y43402619D02*
X127500476Y42402619D01*
X127310000Y43116904D01*
X127119523Y42402619D01*
X126881428Y43402619D01*
X126024285Y43402619D02*
X126500476Y43402619D01*
X126548095Y42926428D01*
X126500476Y42974047D01*
X126405238Y43021666D01*
X126167142Y43021666D01*
X126071904Y42974047D01*
X126024285Y42926428D01*
X125976666Y42831190D01*
X125976666Y42593095D01*
X126024285Y42497857D01*
X126071904Y42450238D01*
X126167142Y42402619D01*
X126405238Y42402619D01*
X126500476Y42450238D01*
X126548095Y42497857D01*
%TO.C,SW14*%
X14819523Y80550238D02*
X14676666Y80502619D01*
X14438571Y80502619D01*
X14343333Y80550238D01*
X14295714Y80597857D01*
X14248095Y80693095D01*
X14248095Y80788333D01*
X14295714Y80883571D01*
X14343333Y80931190D01*
X14438571Y80978809D01*
X14629047Y81026428D01*
X14724285Y81074047D01*
X14771904Y81121666D01*
X14819523Y81216904D01*
X14819523Y81312142D01*
X14771904Y81407380D01*
X14724285Y81455000D01*
X14629047Y81502619D01*
X14390952Y81502619D01*
X14248095Y81455000D01*
X13914761Y81502619D02*
X13676666Y80502619D01*
X13486190Y81216904D01*
X13295714Y80502619D01*
X13057619Y81502619D01*
X12152857Y80502619D02*
X12724285Y80502619D01*
X12438571Y80502619D02*
X12438571Y81502619D01*
X12533809Y81359761D01*
X12629047Y81264523D01*
X12724285Y81216904D01*
X11295714Y81169285D02*
X11295714Y80502619D01*
X11533809Y81550238D02*
X11771904Y80835952D01*
X11152857Y80835952D01*
%TO.C,SW15*%
X33869523Y80550238D02*
X33726666Y80502619D01*
X33488571Y80502619D01*
X33393333Y80550238D01*
X33345714Y80597857D01*
X33298095Y80693095D01*
X33298095Y80788333D01*
X33345714Y80883571D01*
X33393333Y80931190D01*
X33488571Y80978809D01*
X33679047Y81026428D01*
X33774285Y81074047D01*
X33821904Y81121666D01*
X33869523Y81216904D01*
X33869523Y81312142D01*
X33821904Y81407380D01*
X33774285Y81455000D01*
X33679047Y81502619D01*
X33440952Y81502619D01*
X33298095Y81455000D01*
X32964761Y81502619D02*
X32726666Y80502619D01*
X32536190Y81216904D01*
X32345714Y80502619D01*
X32107619Y81502619D01*
X31202857Y80502619D02*
X31774285Y80502619D01*
X31488571Y80502619D02*
X31488571Y81502619D01*
X31583809Y81359761D01*
X31679047Y81264523D01*
X31774285Y81216904D01*
X30298095Y81502619D02*
X30774285Y81502619D01*
X30821904Y81026428D01*
X30774285Y81074047D01*
X30679047Y81121666D01*
X30440952Y81121666D01*
X30345714Y81074047D01*
X30298095Y81026428D01*
X30250476Y80931190D01*
X30250476Y80693095D01*
X30298095Y80597857D01*
X30345714Y80550238D01*
X30440952Y80502619D01*
X30679047Y80502619D01*
X30774285Y80550238D01*
X30821904Y80597857D01*
%TO.C,SW9*%
X128643333Y23400238D02*
X128500476Y23352619D01*
X128262380Y23352619D01*
X128167142Y23400238D01*
X128119523Y23447857D01*
X128071904Y23543095D01*
X128071904Y23638333D01*
X128119523Y23733571D01*
X128167142Y23781190D01*
X128262380Y23828809D01*
X128452857Y23876428D01*
X128548095Y23924047D01*
X128595714Y23971666D01*
X128643333Y24066904D01*
X128643333Y24162142D01*
X128595714Y24257380D01*
X128548095Y24305000D01*
X128452857Y24352619D01*
X128214761Y24352619D01*
X128071904Y24305000D01*
X127738571Y24352619D02*
X127500476Y23352619D01*
X127310000Y24066904D01*
X127119523Y23352619D01*
X126881428Y24352619D01*
X126452857Y23352619D02*
X126262380Y23352619D01*
X126167142Y23400238D01*
X126119523Y23447857D01*
X126024285Y23590714D01*
X125976666Y23781190D01*
X125976666Y24162142D01*
X126024285Y24257380D01*
X126071904Y24305000D01*
X126167142Y24352619D01*
X126357619Y24352619D01*
X126452857Y24305000D01*
X126500476Y24257380D01*
X126548095Y24162142D01*
X126548095Y23924047D01*
X126500476Y23828809D01*
X126452857Y23781190D01*
X126357619Y23733571D01*
X126167142Y23733571D01*
X126071904Y23781190D01*
X126024285Y23828809D01*
X125976666Y23924047D01*
%TO.C,SW8*%
X109593333Y23400238D02*
X109450476Y23352619D01*
X109212380Y23352619D01*
X109117142Y23400238D01*
X109069523Y23447857D01*
X109021904Y23543095D01*
X109021904Y23638333D01*
X109069523Y23733571D01*
X109117142Y23781190D01*
X109212380Y23828809D01*
X109402857Y23876428D01*
X109498095Y23924047D01*
X109545714Y23971666D01*
X109593333Y24066904D01*
X109593333Y24162142D01*
X109545714Y24257380D01*
X109498095Y24305000D01*
X109402857Y24352619D01*
X109164761Y24352619D01*
X109021904Y24305000D01*
X108688571Y24352619D02*
X108450476Y23352619D01*
X108260000Y24066904D01*
X108069523Y23352619D01*
X107831428Y24352619D01*
X107307619Y23924047D02*
X107402857Y23971666D01*
X107450476Y24019285D01*
X107498095Y24114523D01*
X107498095Y24162142D01*
X107450476Y24257380D01*
X107402857Y24305000D01*
X107307619Y24352619D01*
X107117142Y24352619D01*
X107021904Y24305000D01*
X106974285Y24257380D01*
X106926666Y24162142D01*
X106926666Y24114523D01*
X106974285Y24019285D01*
X107021904Y23971666D01*
X107117142Y23924047D01*
X107307619Y23924047D01*
X107402857Y23876428D01*
X107450476Y23828809D01*
X107498095Y23733571D01*
X107498095Y23543095D01*
X107450476Y23447857D01*
X107402857Y23400238D01*
X107307619Y23352619D01*
X107117142Y23352619D01*
X107021904Y23400238D01*
X106974285Y23447857D01*
X106926666Y23543095D01*
X106926666Y23733571D01*
X106974285Y23828809D01*
X107021904Y23876428D01*
X107117142Y23924047D01*
%TO.C,SW13*%
X129119523Y4350238D02*
X128976666Y4302619D01*
X128738571Y4302619D01*
X128643333Y4350238D01*
X128595714Y4397857D01*
X128548095Y4493095D01*
X128548095Y4588333D01*
X128595714Y4683571D01*
X128643333Y4731190D01*
X128738571Y4778809D01*
X128929047Y4826428D01*
X129024285Y4874047D01*
X129071904Y4921666D01*
X129119523Y5016904D01*
X129119523Y5112142D01*
X129071904Y5207380D01*
X129024285Y5255000D01*
X128929047Y5302619D01*
X128690952Y5302619D01*
X128548095Y5255000D01*
X128214761Y5302619D02*
X127976666Y4302619D01*
X127786190Y5016904D01*
X127595714Y4302619D01*
X127357619Y5302619D01*
X126452857Y4302619D02*
X127024285Y4302619D01*
X126738571Y4302619D02*
X126738571Y5302619D01*
X126833809Y5159761D01*
X126929047Y5064523D01*
X127024285Y5016904D01*
X126119523Y5302619D02*
X125500476Y5302619D01*
X125833809Y4921666D01*
X125690952Y4921666D01*
X125595714Y4874047D01*
X125548095Y4826428D01*
X125500476Y4731190D01*
X125500476Y4493095D01*
X125548095Y4397857D01*
X125595714Y4350238D01*
X125690952Y4302619D01*
X125976666Y4302619D01*
X126071904Y4350238D01*
X126119523Y4397857D01*
%TO.C,SW6*%
X71493333Y23400238D02*
X71350476Y23352619D01*
X71112380Y23352619D01*
X71017142Y23400238D01*
X70969523Y23447857D01*
X70921904Y23543095D01*
X70921904Y23638333D01*
X70969523Y23733571D01*
X71017142Y23781190D01*
X71112380Y23828809D01*
X71302857Y23876428D01*
X71398095Y23924047D01*
X71445714Y23971666D01*
X71493333Y24066904D01*
X71493333Y24162142D01*
X71445714Y24257380D01*
X71398095Y24305000D01*
X71302857Y24352619D01*
X71064761Y24352619D01*
X70921904Y24305000D01*
X70588571Y24352619D02*
X70350476Y23352619D01*
X70160000Y24066904D01*
X69969523Y23352619D01*
X69731428Y24352619D01*
X68921904Y24352619D02*
X69112380Y24352619D01*
X69207619Y24305000D01*
X69255238Y24257380D01*
X69350476Y24114523D01*
X69398095Y23924047D01*
X69398095Y23543095D01*
X69350476Y23447857D01*
X69302857Y23400238D01*
X69207619Y23352619D01*
X69017142Y23352619D01*
X68921904Y23400238D01*
X68874285Y23447857D01*
X68826666Y23543095D01*
X68826666Y23781190D01*
X68874285Y23876428D01*
X68921904Y23924047D01*
X69017142Y23971666D01*
X69207619Y23971666D01*
X69302857Y23924047D01*
X69350476Y23876428D01*
X69398095Y23781190D01*
%TO.C,SW2*%
X71493333Y42450238D02*
X71350476Y42402619D01*
X71112380Y42402619D01*
X71017142Y42450238D01*
X70969523Y42497857D01*
X70921904Y42593095D01*
X70921904Y42688333D01*
X70969523Y42783571D01*
X71017142Y42831190D01*
X71112380Y42878809D01*
X71302857Y42926428D01*
X71398095Y42974047D01*
X71445714Y43021666D01*
X71493333Y43116904D01*
X71493333Y43212142D01*
X71445714Y43307380D01*
X71398095Y43355000D01*
X71302857Y43402619D01*
X71064761Y43402619D01*
X70921904Y43355000D01*
X70588571Y43402619D02*
X70350476Y42402619D01*
X70160000Y43116904D01*
X69969523Y42402619D01*
X69731428Y43402619D01*
X69398095Y43307380D02*
X69350476Y43355000D01*
X69255238Y43402619D01*
X69017142Y43402619D01*
X68921904Y43355000D01*
X68874285Y43307380D01*
X68826666Y43212142D01*
X68826666Y43116904D01*
X68874285Y42974047D01*
X69445714Y42402619D01*
X68826666Y42402619D01*
%TO.C,SW7*%
X90543333Y23400238D02*
X90400476Y23352619D01*
X90162380Y23352619D01*
X90067142Y23400238D01*
X90019523Y23447857D01*
X89971904Y23543095D01*
X89971904Y23638333D01*
X90019523Y23733571D01*
X90067142Y23781190D01*
X90162380Y23828809D01*
X90352857Y23876428D01*
X90448095Y23924047D01*
X90495714Y23971666D01*
X90543333Y24066904D01*
X90543333Y24162142D01*
X90495714Y24257380D01*
X90448095Y24305000D01*
X90352857Y24352619D01*
X90114761Y24352619D01*
X89971904Y24305000D01*
X89638571Y24352619D02*
X89400476Y23352619D01*
X89210000Y24066904D01*
X89019523Y23352619D01*
X88781428Y24352619D01*
X88495714Y24352619D02*
X87829047Y24352619D01*
X88257619Y23352619D01*
%TO.C,SW17*%
X33869523Y61500238D02*
X33726666Y61452619D01*
X33488571Y61452619D01*
X33393333Y61500238D01*
X33345714Y61547857D01*
X33298095Y61643095D01*
X33298095Y61738333D01*
X33345714Y61833571D01*
X33393333Y61881190D01*
X33488571Y61928809D01*
X33679047Y61976428D01*
X33774285Y62024047D01*
X33821904Y62071666D01*
X33869523Y62166904D01*
X33869523Y62262142D01*
X33821904Y62357380D01*
X33774285Y62405000D01*
X33679047Y62452619D01*
X33440952Y62452619D01*
X33298095Y62405000D01*
X32964761Y62452619D02*
X32726666Y61452619D01*
X32536190Y62166904D01*
X32345714Y61452619D01*
X32107619Y62452619D01*
X31202857Y61452619D02*
X31774285Y61452619D01*
X31488571Y61452619D02*
X31488571Y62452619D01*
X31583809Y62309761D01*
X31679047Y62214523D01*
X31774285Y62166904D01*
X30869523Y62452619D02*
X30202857Y62452619D01*
X30631428Y61452619D01*
%TO.C,D5*%
X76172380Y36108095D02*
X75172380Y36108095D01*
X75172380Y35870000D01*
X75220000Y35727142D01*
X75315238Y35631904D01*
X75410476Y35584285D01*
X75600952Y35536666D01*
X75743809Y35536666D01*
X75934285Y35584285D01*
X76029523Y35631904D01*
X76124761Y35727142D01*
X76172380Y35870000D01*
X76172380Y36108095D01*
X75172380Y34631904D02*
X75172380Y35108095D01*
X75648571Y35155714D01*
X75600952Y35108095D01*
X75553333Y35012857D01*
X75553333Y34774761D01*
X75600952Y34679523D01*
X75648571Y34631904D01*
X75743809Y34584285D01*
X75981904Y34584285D01*
X76077142Y34631904D01*
X76124761Y34679523D01*
X76172380Y34774761D01*
X76172380Y35012857D01*
X76124761Y35108095D01*
X76077142Y35155714D01*
%TO.C,D27*%
X85927142Y38210476D02*
X85927142Y38850476D01*
X85774761Y38850476D01*
X85683333Y38820000D01*
X85622380Y38759047D01*
X85591904Y38698095D01*
X85561428Y38576190D01*
X85561428Y38484761D01*
X85591904Y38362857D01*
X85622380Y38301904D01*
X85683333Y38240952D01*
X85774761Y38210476D01*
X85927142Y38210476D01*
X85317619Y38789523D02*
X85287142Y38820000D01*
X85226190Y38850476D01*
X85073809Y38850476D01*
X85012857Y38820000D01*
X84982380Y38789523D01*
X84951904Y38728571D01*
X84951904Y38667619D01*
X84982380Y38576190D01*
X85348095Y38210476D01*
X84951904Y38210476D01*
X84738571Y38850476D02*
X84311904Y38850476D01*
X84586190Y38210476D01*
%TO.C,D3*%
X114272380Y55158095D02*
X113272380Y55158095D01*
X113272380Y54920000D01*
X113320000Y54777142D01*
X113415238Y54681904D01*
X113510476Y54634285D01*
X113700952Y54586666D01*
X113843809Y54586666D01*
X114034285Y54634285D01*
X114129523Y54681904D01*
X114224761Y54777142D01*
X114272380Y54920000D01*
X114272380Y55158095D01*
X113272380Y54253333D02*
X113272380Y53634285D01*
X113653333Y53967619D01*
X113653333Y53824761D01*
X113700952Y53729523D01*
X113748571Y53681904D01*
X113843809Y53634285D01*
X114081904Y53634285D01*
X114177142Y53681904D01*
X114224761Y53729523D01*
X114272380Y53824761D01*
X114272380Y54110476D01*
X114224761Y54205714D01*
X114177142Y54253333D01*
%TO.C,C12*%
X124292857Y40442857D02*
X124340476Y40395238D01*
X124483333Y40347619D01*
X124578571Y40347619D01*
X124721428Y40395238D01*
X124816666Y40490476D01*
X124864285Y40585714D01*
X124911904Y40776190D01*
X124911904Y40919047D01*
X124864285Y41109523D01*
X124816666Y41204761D01*
X124721428Y41300000D01*
X124578571Y41347619D01*
X124483333Y41347619D01*
X124340476Y41300000D01*
X124292857Y41252380D01*
X123340476Y40347619D02*
X123911904Y40347619D01*
X123626190Y40347619D02*
X123626190Y41347619D01*
X123721428Y41204761D01*
X123816666Y41109523D01*
X123911904Y41061904D01*
X122959523Y41252380D02*
X122911904Y41300000D01*
X122816666Y41347619D01*
X122578571Y41347619D01*
X122483333Y41300000D01*
X122435714Y41252380D01*
X122388095Y41157142D01*
X122388095Y41061904D01*
X122435714Y40919047D01*
X123007142Y40347619D01*
X122388095Y40347619D01*
%TO.C,C6*%
X89376666Y61182857D02*
X89424285Y61135238D01*
X89567142Y61087619D01*
X89662380Y61087619D01*
X89805238Y61135238D01*
X89900476Y61230476D01*
X89948095Y61325714D01*
X89995714Y61516190D01*
X89995714Y61659047D01*
X89948095Y61849523D01*
X89900476Y61944761D01*
X89805238Y62040000D01*
X89662380Y62087619D01*
X89567142Y62087619D01*
X89424285Y62040000D01*
X89376666Y61992380D01*
X88519523Y62087619D02*
X88710000Y62087619D01*
X88805238Y62040000D01*
X88852857Y61992380D01*
X88948095Y61849523D01*
X88995714Y61659047D01*
X88995714Y61278095D01*
X88948095Y61182857D01*
X88900476Y61135238D01*
X88805238Y61087619D01*
X88614761Y61087619D01*
X88519523Y61135238D01*
X88471904Y61182857D01*
X88424285Y61278095D01*
X88424285Y61516190D01*
X88471904Y61611428D01*
X88519523Y61659047D01*
X88614761Y61706666D01*
X88805238Y61706666D01*
X88900476Y61659047D01*
X88948095Y61611428D01*
X88995714Y61516190D01*
%TO.C,R1*%
X125316666Y64197619D02*
X125650000Y64673809D01*
X125888095Y64197619D02*
X125888095Y65197619D01*
X125507142Y65197619D01*
X125411904Y65150000D01*
X125364285Y65102380D01*
X125316666Y65007142D01*
X125316666Y64864285D01*
X125364285Y64769047D01*
X125411904Y64721428D01*
X125507142Y64673809D01*
X125888095Y64673809D01*
X124364285Y64197619D02*
X124935714Y64197619D01*
X124650000Y64197619D02*
X124650000Y65197619D01*
X124745238Y65054761D01*
X124840476Y64959523D01*
X124935714Y64911904D01*
%TO.C,D25*%
X124227142Y38160476D02*
X124227142Y38800476D01*
X124074761Y38800476D01*
X123983333Y38770000D01*
X123922380Y38709047D01*
X123891904Y38648095D01*
X123861428Y38526190D01*
X123861428Y38434761D01*
X123891904Y38312857D01*
X123922380Y38251904D01*
X123983333Y38190952D01*
X124074761Y38160476D01*
X124227142Y38160476D01*
X123617619Y38739523D02*
X123587142Y38770000D01*
X123526190Y38800476D01*
X123373809Y38800476D01*
X123312857Y38770000D01*
X123282380Y38739523D01*
X123251904Y38678571D01*
X123251904Y38617619D01*
X123282380Y38526190D01*
X123648095Y38160476D01*
X123251904Y38160476D01*
X122672857Y38800476D02*
X122977619Y38800476D01*
X123008095Y38495714D01*
X122977619Y38526190D01*
X122916666Y38556666D01*
X122764285Y38556666D01*
X122703333Y38526190D01*
X122672857Y38495714D01*
X122642380Y38434761D01*
X122642380Y38282380D01*
X122672857Y38221428D01*
X122703333Y38190952D01*
X122764285Y38160476D01*
X122916666Y38160476D01*
X122977619Y38190952D01*
X123008095Y38221428D01*
%TO.C,D32*%
X123427142Y18960476D02*
X123427142Y19600476D01*
X123274761Y19600476D01*
X123183333Y19570000D01*
X123122380Y19509047D01*
X123091904Y19448095D01*
X123061428Y19326190D01*
X123061428Y19234761D01*
X123091904Y19112857D01*
X123122380Y19051904D01*
X123183333Y18990952D01*
X123274761Y18960476D01*
X123427142Y18960476D01*
X122848095Y19600476D02*
X122451904Y19600476D01*
X122665238Y19356666D01*
X122573809Y19356666D01*
X122512857Y19326190D01*
X122482380Y19295714D01*
X122451904Y19234761D01*
X122451904Y19082380D01*
X122482380Y19021428D01*
X122512857Y18990952D01*
X122573809Y18960476D01*
X122756666Y18960476D01*
X122817619Y18990952D01*
X122848095Y19021428D01*
X122208095Y19539523D02*
X122177619Y19570000D01*
X122116666Y19600476D01*
X121964285Y19600476D01*
X121903333Y19570000D01*
X121872857Y19539523D01*
X121842380Y19478571D01*
X121842380Y19417619D01*
X121872857Y19326190D01*
X122238571Y18960476D01*
X121842380Y18960476D01*
%TO.C,C5*%
X70326666Y61182857D02*
X70374285Y61135238D01*
X70517142Y61087619D01*
X70612380Y61087619D01*
X70755238Y61135238D01*
X70850476Y61230476D01*
X70898095Y61325714D01*
X70945714Y61516190D01*
X70945714Y61659047D01*
X70898095Y61849523D01*
X70850476Y61944761D01*
X70755238Y62040000D01*
X70612380Y62087619D01*
X70517142Y62087619D01*
X70374285Y62040000D01*
X70326666Y61992380D01*
X69421904Y62087619D02*
X69898095Y62087619D01*
X69945714Y61611428D01*
X69898095Y61659047D01*
X69802857Y61706666D01*
X69564761Y61706666D01*
X69469523Y61659047D01*
X69421904Y61611428D01*
X69374285Y61516190D01*
X69374285Y61278095D01*
X69421904Y61182857D01*
X69469523Y61135238D01*
X69564761Y61087619D01*
X69802857Y61087619D01*
X69898095Y61135238D01*
X69945714Y61182857D01*
%TO.C,D30*%
X85277142Y18910476D02*
X85277142Y19550476D01*
X85124761Y19550476D01*
X85033333Y19520000D01*
X84972380Y19459047D01*
X84941904Y19398095D01*
X84911428Y19276190D01*
X84911428Y19184761D01*
X84941904Y19062857D01*
X84972380Y19001904D01*
X85033333Y18940952D01*
X85124761Y18910476D01*
X85277142Y18910476D01*
X84698095Y19550476D02*
X84301904Y19550476D01*
X84515238Y19306666D01*
X84423809Y19306666D01*
X84362857Y19276190D01*
X84332380Y19245714D01*
X84301904Y19184761D01*
X84301904Y19032380D01*
X84332380Y18971428D01*
X84362857Y18940952D01*
X84423809Y18910476D01*
X84606666Y18910476D01*
X84667619Y18940952D01*
X84698095Y18971428D01*
X83905714Y19550476D02*
X83844761Y19550476D01*
X83783809Y19520000D01*
X83753333Y19489523D01*
X83722857Y19428571D01*
X83692380Y19306666D01*
X83692380Y19154285D01*
X83722857Y19032380D01*
X83753333Y18971428D01*
X83783809Y18940952D01*
X83844761Y18910476D01*
X83905714Y18910476D01*
X83966666Y18940952D01*
X83997142Y18971428D01*
X84027619Y19032380D01*
X84058095Y19154285D01*
X84058095Y19306666D01*
X84027619Y19428571D01*
X83997142Y19489523D01*
X83966666Y19520000D01*
X83905714Y19550476D01*
%TO.C,C10*%
X86242857Y40442857D02*
X86290476Y40395238D01*
X86433333Y40347619D01*
X86528571Y40347619D01*
X86671428Y40395238D01*
X86766666Y40490476D01*
X86814285Y40585714D01*
X86861904Y40776190D01*
X86861904Y40919047D01*
X86814285Y41109523D01*
X86766666Y41204761D01*
X86671428Y41300000D01*
X86528571Y41347619D01*
X86433333Y41347619D01*
X86290476Y41300000D01*
X86242857Y41252380D01*
X85290476Y40347619D02*
X85861904Y40347619D01*
X85576190Y40347619D02*
X85576190Y41347619D01*
X85671428Y41204761D01*
X85766666Y41109523D01*
X85861904Y41061904D01*
X84671428Y41347619D02*
X84576190Y41347619D01*
X84480952Y41300000D01*
X84433333Y41252380D01*
X84385714Y41157142D01*
X84338095Y40966666D01*
X84338095Y40728571D01*
X84385714Y40538095D01*
X84433333Y40442857D01*
X84480952Y40395238D01*
X84576190Y40347619D01*
X84671428Y40347619D01*
X84766666Y40395238D01*
X84814285Y40442857D01*
X84861904Y40538095D01*
X84909523Y40728571D01*
X84909523Y40966666D01*
X84861904Y41157142D01*
X84814285Y41252380D01*
X84766666Y41300000D01*
X84671428Y41347619D01*
%TO.C,D18*%
X9827142Y95260476D02*
X9827142Y95900476D01*
X9674761Y95900476D01*
X9583333Y95870000D01*
X9522380Y95809047D01*
X9491904Y95748095D01*
X9461428Y95626190D01*
X9461428Y95534761D01*
X9491904Y95412857D01*
X9522380Y95351904D01*
X9583333Y95290952D01*
X9674761Y95260476D01*
X9827142Y95260476D01*
X8851904Y95260476D02*
X9217619Y95260476D01*
X9034761Y95260476D02*
X9034761Y95900476D01*
X9095714Y95809047D01*
X9156666Y95748095D01*
X9217619Y95717619D01*
X8486190Y95626190D02*
X8547142Y95656666D01*
X8577619Y95687142D01*
X8608095Y95748095D01*
X8608095Y95778571D01*
X8577619Y95839523D01*
X8547142Y95870000D01*
X8486190Y95900476D01*
X8364285Y95900476D01*
X8303333Y95870000D01*
X8272857Y95839523D01*
X8242380Y95778571D01*
X8242380Y95748095D01*
X8272857Y95687142D01*
X8303333Y95656666D01*
X8364285Y95626190D01*
X8486190Y95626190D01*
X8547142Y95595714D01*
X8577619Y95565238D01*
X8608095Y95504285D01*
X8608095Y95382380D01*
X8577619Y95321428D01*
X8547142Y95290952D01*
X8486190Y95260476D01*
X8364285Y95260476D01*
X8303333Y95290952D01*
X8272857Y95321428D01*
X8242380Y95382380D01*
X8242380Y95504285D01*
X8272857Y95565238D01*
X8303333Y95595714D01*
X8364285Y95626190D01*
%TO.C,D22*%
X85227142Y57110476D02*
X85227142Y57750476D01*
X85074761Y57750476D01*
X84983333Y57720000D01*
X84922380Y57659047D01*
X84891904Y57598095D01*
X84861428Y57476190D01*
X84861428Y57384761D01*
X84891904Y57262857D01*
X84922380Y57201904D01*
X84983333Y57140952D01*
X85074761Y57110476D01*
X85227142Y57110476D01*
X84617619Y57689523D02*
X84587142Y57720000D01*
X84526190Y57750476D01*
X84373809Y57750476D01*
X84312857Y57720000D01*
X84282380Y57689523D01*
X84251904Y57628571D01*
X84251904Y57567619D01*
X84282380Y57476190D01*
X84648095Y57110476D01*
X84251904Y57110476D01*
X84008095Y57689523D02*
X83977619Y57720000D01*
X83916666Y57750476D01*
X83764285Y57750476D01*
X83703333Y57720000D01*
X83672857Y57689523D01*
X83642380Y57628571D01*
X83642380Y57567619D01*
X83672857Y57476190D01*
X84038571Y57110476D01*
X83642380Y57110476D01*
%TO.C,C16*%
X131342857Y21392857D02*
X131390476Y21345238D01*
X131533333Y21297619D01*
X131628571Y21297619D01*
X131771428Y21345238D01*
X131866666Y21440476D01*
X131914285Y21535714D01*
X131961904Y21726190D01*
X131961904Y21869047D01*
X131914285Y22059523D01*
X131866666Y22154761D01*
X131771428Y22250000D01*
X131628571Y22297619D01*
X131533333Y22297619D01*
X131390476Y22250000D01*
X131342857Y22202380D01*
X130390476Y21297619D02*
X130961904Y21297619D01*
X130676190Y21297619D02*
X130676190Y22297619D01*
X130771428Y22154761D01*
X130866666Y22059523D01*
X130961904Y22011904D01*
X129533333Y22297619D02*
X129723809Y22297619D01*
X129819047Y22250000D01*
X129866666Y22202380D01*
X129961904Y22059523D01*
X130009523Y21869047D01*
X130009523Y21488095D01*
X129961904Y21392857D01*
X129914285Y21345238D01*
X129819047Y21297619D01*
X129628571Y21297619D01*
X129533333Y21345238D01*
X129485714Y21392857D01*
X129438095Y21488095D01*
X129438095Y21726190D01*
X129485714Y21821428D01*
X129533333Y21869047D01*
X129628571Y21916666D01*
X129819047Y21916666D01*
X129914285Y21869047D01*
X129961904Y21821428D01*
X130009523Y21726190D01*
%TO.C,D23*%
X104227142Y57110476D02*
X104227142Y57750476D01*
X104074761Y57750476D01*
X103983333Y57720000D01*
X103922380Y57659047D01*
X103891904Y57598095D01*
X103861428Y57476190D01*
X103861428Y57384761D01*
X103891904Y57262857D01*
X103922380Y57201904D01*
X103983333Y57140952D01*
X104074761Y57110476D01*
X104227142Y57110476D01*
X103617619Y57689523D02*
X103587142Y57720000D01*
X103526190Y57750476D01*
X103373809Y57750476D01*
X103312857Y57720000D01*
X103282380Y57689523D01*
X103251904Y57628571D01*
X103251904Y57567619D01*
X103282380Y57476190D01*
X103648095Y57110476D01*
X103251904Y57110476D01*
X103038571Y57750476D02*
X102642380Y57750476D01*
X102855714Y57506666D01*
X102764285Y57506666D01*
X102703333Y57476190D01*
X102672857Y57445714D01*
X102642380Y57384761D01*
X102642380Y57232380D01*
X102672857Y57171428D01*
X102703333Y57140952D01*
X102764285Y57110476D01*
X102947142Y57110476D01*
X103008095Y57140952D01*
X103038571Y57171428D01*
%TO.C,C1*%
X29266666Y97642857D02*
X29314285Y97595238D01*
X29457142Y97547619D01*
X29552380Y97547619D01*
X29695238Y97595238D01*
X29790476Y97690476D01*
X29838095Y97785714D01*
X29885714Y97976190D01*
X29885714Y98119047D01*
X29838095Y98309523D01*
X29790476Y98404761D01*
X29695238Y98500000D01*
X29552380Y98547619D01*
X29457142Y98547619D01*
X29314285Y98500000D01*
X29266666Y98452380D01*
X28314285Y97547619D02*
X28885714Y97547619D01*
X28600000Y97547619D02*
X28600000Y98547619D01*
X28695238Y98404761D01*
X28790476Y98309523D01*
X28885714Y98261904D01*
%TO.C,D28*%
X66427142Y38110476D02*
X66427142Y38750476D01*
X66274761Y38750476D01*
X66183333Y38720000D01*
X66122380Y38659047D01*
X66091904Y38598095D01*
X66061428Y38476190D01*
X66061428Y38384761D01*
X66091904Y38262857D01*
X66122380Y38201904D01*
X66183333Y38140952D01*
X66274761Y38110476D01*
X66427142Y38110476D01*
X65817619Y38689523D02*
X65787142Y38720000D01*
X65726190Y38750476D01*
X65573809Y38750476D01*
X65512857Y38720000D01*
X65482380Y38689523D01*
X65451904Y38628571D01*
X65451904Y38567619D01*
X65482380Y38476190D01*
X65848095Y38110476D01*
X65451904Y38110476D01*
X65086190Y38476190D02*
X65147142Y38506666D01*
X65177619Y38537142D01*
X65208095Y38598095D01*
X65208095Y38628571D01*
X65177619Y38689523D01*
X65147142Y38720000D01*
X65086190Y38750476D01*
X64964285Y38750476D01*
X64903333Y38720000D01*
X64872857Y38689523D01*
X64842380Y38628571D01*
X64842380Y38598095D01*
X64872857Y38537142D01*
X64903333Y38506666D01*
X64964285Y38476190D01*
X65086190Y38476190D01*
X65147142Y38445714D01*
X65177619Y38415238D01*
X65208095Y38354285D01*
X65208095Y38232380D01*
X65177619Y38171428D01*
X65147142Y38140952D01*
X65086190Y38110476D01*
X64964285Y38110476D01*
X64903333Y38140952D01*
X64872857Y38171428D01*
X64842380Y38232380D01*
X64842380Y38354285D01*
X64872857Y38415238D01*
X64903333Y38445714D01*
X64964285Y38476190D01*
%TO.C,C4*%
X35216666Y78592857D02*
X35264285Y78545238D01*
X35407142Y78497619D01*
X35502380Y78497619D01*
X35645238Y78545238D01*
X35740476Y78640476D01*
X35788095Y78735714D01*
X35835714Y78926190D01*
X35835714Y79069047D01*
X35788095Y79259523D01*
X35740476Y79354761D01*
X35645238Y79450000D01*
X35502380Y79497619D01*
X35407142Y79497619D01*
X35264285Y79450000D01*
X35216666Y79402380D01*
X34359523Y79164285D02*
X34359523Y78497619D01*
X34597619Y79545238D02*
X34835714Y78830952D01*
X34216666Y78830952D01*
%TO.C,C8*%
X127476666Y61182857D02*
X127524285Y61135238D01*
X127667142Y61087619D01*
X127762380Y61087619D01*
X127905238Y61135238D01*
X128000476Y61230476D01*
X128048095Y61325714D01*
X128095714Y61516190D01*
X128095714Y61659047D01*
X128048095Y61849523D01*
X128000476Y61944761D01*
X127905238Y62040000D01*
X127762380Y62087619D01*
X127667142Y62087619D01*
X127524285Y62040000D01*
X127476666Y61992380D01*
X126905238Y61659047D02*
X127000476Y61706666D01*
X127048095Y61754285D01*
X127095714Y61849523D01*
X127095714Y61897142D01*
X127048095Y61992380D01*
X127000476Y62040000D01*
X126905238Y62087619D01*
X126714761Y62087619D01*
X126619523Y62040000D01*
X126571904Y61992380D01*
X126524285Y61897142D01*
X126524285Y61849523D01*
X126571904Y61754285D01*
X126619523Y61706666D01*
X126714761Y61659047D01*
X126905238Y61659047D01*
X127000476Y61611428D01*
X127048095Y61563809D01*
X127095714Y61468571D01*
X127095714Y61278095D01*
X127048095Y61182857D01*
X127000476Y61135238D01*
X126905238Y61087619D01*
X126714761Y61087619D01*
X126619523Y61135238D01*
X126571904Y61182857D01*
X126524285Y61278095D01*
X126524285Y61468571D01*
X126571904Y61563809D01*
X126619523Y61611428D01*
X126714761Y61659047D01*
%TO.C,R2*%
X134016666Y66497619D02*
X134350000Y66973809D01*
X134588095Y66497619D02*
X134588095Y67497619D01*
X134207142Y67497619D01*
X134111904Y67450000D01*
X134064285Y67402380D01*
X134016666Y67307142D01*
X134016666Y67164285D01*
X134064285Y67069047D01*
X134111904Y67021428D01*
X134207142Y66973809D01*
X134588095Y66973809D01*
X133635714Y67402380D02*
X133588095Y67450000D01*
X133492857Y67497619D01*
X133254761Y67497619D01*
X133159523Y67450000D01*
X133111904Y67402380D01*
X133064285Y67307142D01*
X133064285Y67211904D01*
X133111904Y67069047D01*
X133683333Y66497619D01*
X133064285Y66497619D01*
%TO.C,C14*%
X93242857Y21442857D02*
X93290476Y21395238D01*
X93433333Y21347619D01*
X93528571Y21347619D01*
X93671428Y21395238D01*
X93766666Y21490476D01*
X93814285Y21585714D01*
X93861904Y21776190D01*
X93861904Y21919047D01*
X93814285Y22109523D01*
X93766666Y22204761D01*
X93671428Y22300000D01*
X93528571Y22347619D01*
X93433333Y22347619D01*
X93290476Y22300000D01*
X93242857Y22252380D01*
X92290476Y21347619D02*
X92861904Y21347619D01*
X92576190Y21347619D02*
X92576190Y22347619D01*
X92671428Y22204761D01*
X92766666Y22109523D01*
X92861904Y22061904D01*
X91433333Y22014285D02*
X91433333Y21347619D01*
X91671428Y22395238D02*
X91909523Y21680952D01*
X91290476Y21680952D01*
%TO.C,D24*%
X123227142Y57110476D02*
X123227142Y57750476D01*
X123074761Y57750476D01*
X122983333Y57720000D01*
X122922380Y57659047D01*
X122891904Y57598095D01*
X122861428Y57476190D01*
X122861428Y57384761D01*
X122891904Y57262857D01*
X122922380Y57201904D01*
X122983333Y57140952D01*
X123074761Y57110476D01*
X123227142Y57110476D01*
X122617619Y57689523D02*
X122587142Y57720000D01*
X122526190Y57750476D01*
X122373809Y57750476D01*
X122312857Y57720000D01*
X122282380Y57689523D01*
X122251904Y57628571D01*
X122251904Y57567619D01*
X122282380Y57476190D01*
X122648095Y57110476D01*
X122251904Y57110476D01*
X121703333Y57537142D02*
X121703333Y57110476D01*
X121855714Y57780952D02*
X122008095Y57323809D01*
X121611904Y57323809D01*
%TO.C,U3*%
X131447619Y78913095D02*
X130638095Y78913095D01*
X130542857Y78960714D01*
X130495238Y79008333D01*
X130447619Y79103571D01*
X130447619Y79294047D01*
X130495238Y79389285D01*
X130542857Y79436904D01*
X130638095Y79484523D01*
X131447619Y79484523D01*
X131447619Y79865476D02*
X131447619Y80484523D01*
X131066666Y80151190D01*
X131066666Y80294047D01*
X131019047Y80389285D01*
X130971428Y80436904D01*
X130876190Y80484523D01*
X130638095Y80484523D01*
X130542857Y80436904D01*
X130495238Y80389285D01*
X130447619Y80294047D01*
X130447619Y80008333D01*
X130495238Y79913095D01*
X130542857Y79865476D01*
%TO.C,D11*%
X114272380Y17534285D02*
X113272380Y17534285D01*
X113272380Y17296190D01*
X113320000Y17153333D01*
X113415238Y17058095D01*
X113510476Y17010476D01*
X113700952Y16962857D01*
X113843809Y16962857D01*
X114034285Y17010476D01*
X114129523Y17058095D01*
X114224761Y17153333D01*
X114272380Y17296190D01*
X114272380Y17534285D01*
X114272380Y16010476D02*
X114272380Y16581904D01*
X114272380Y16296190D02*
X113272380Y16296190D01*
X113415238Y16391428D01*
X113510476Y16486666D01*
X113558095Y16581904D01*
X114272380Y15058095D02*
X114272380Y15629523D01*
X114272380Y15343809D02*
X113272380Y15343809D01*
X113415238Y15439047D01*
X113510476Y15534285D01*
X113558095Y15629523D01*
%TO.C,D17*%
X28927142Y95260476D02*
X28927142Y95900476D01*
X28774761Y95900476D01*
X28683333Y95870000D01*
X28622380Y95809047D01*
X28591904Y95748095D01*
X28561428Y95626190D01*
X28561428Y95534761D01*
X28591904Y95412857D01*
X28622380Y95351904D01*
X28683333Y95290952D01*
X28774761Y95260476D01*
X28927142Y95260476D01*
X27951904Y95260476D02*
X28317619Y95260476D01*
X28134761Y95260476D02*
X28134761Y95900476D01*
X28195714Y95809047D01*
X28256666Y95748095D01*
X28317619Y95717619D01*
X27738571Y95900476D02*
X27311904Y95900476D01*
X27586190Y95260476D01*
%TO.C,R4*%
X56002380Y78016666D02*
X55526190Y78350000D01*
X56002380Y78588095D02*
X55002380Y78588095D01*
X55002380Y78207142D01*
X55050000Y78111904D01*
X55097619Y78064285D01*
X55192857Y78016666D01*
X55335714Y78016666D01*
X55430952Y78064285D01*
X55478571Y78111904D01*
X55526190Y78207142D01*
X55526190Y78588095D01*
X55335714Y77159523D02*
X56002380Y77159523D01*
X54954761Y77397619D02*
X55669047Y77635714D01*
X55669047Y77016666D01*
%TO.C,D14*%
X42072380Y82034285D02*
X41072380Y82034285D01*
X41072380Y81796190D01*
X41120000Y81653333D01*
X41215238Y81558095D01*
X41310476Y81510476D01*
X41500952Y81462857D01*
X41643809Y81462857D01*
X41834285Y81510476D01*
X41929523Y81558095D01*
X42024761Y81653333D01*
X42072380Y81796190D01*
X42072380Y82034285D01*
X42072380Y80510476D02*
X42072380Y81081904D01*
X42072380Y80796190D02*
X41072380Y80796190D01*
X41215238Y80891428D01*
X41310476Y80986666D01*
X41358095Y81081904D01*
X41405714Y79653333D02*
X42072380Y79653333D01*
X41024761Y79891428D02*
X41739047Y80129523D01*
X41739047Y79510476D01*
%TO.C,D9*%
X76172380Y17058095D02*
X75172380Y17058095D01*
X75172380Y16820000D01*
X75220000Y16677142D01*
X75315238Y16581904D01*
X75410476Y16534285D01*
X75600952Y16486666D01*
X75743809Y16486666D01*
X75934285Y16534285D01*
X76029523Y16581904D01*
X76124761Y16677142D01*
X76172380Y16820000D01*
X76172380Y17058095D01*
X76172380Y16010476D02*
X76172380Y15820000D01*
X76124761Y15724761D01*
X76077142Y15677142D01*
X75934285Y15581904D01*
X75743809Y15534285D01*
X75362857Y15534285D01*
X75267619Y15581904D01*
X75220000Y15629523D01*
X75172380Y15724761D01*
X75172380Y15915238D01*
X75220000Y16010476D01*
X75267619Y16058095D01*
X75362857Y16105714D01*
X75600952Y16105714D01*
X75696190Y16058095D01*
X75743809Y16010476D01*
X75791428Y15915238D01*
X75791428Y15724761D01*
X75743809Y15629523D01*
X75696190Y15581904D01*
X75600952Y15534285D01*
%TO.C,C9*%
X67266666Y40442857D02*
X67314285Y40395238D01*
X67457142Y40347619D01*
X67552380Y40347619D01*
X67695238Y40395238D01*
X67790476Y40490476D01*
X67838095Y40585714D01*
X67885714Y40776190D01*
X67885714Y40919047D01*
X67838095Y41109523D01*
X67790476Y41204761D01*
X67695238Y41300000D01*
X67552380Y41347619D01*
X67457142Y41347619D01*
X67314285Y41300000D01*
X67266666Y41252380D01*
X66790476Y40347619D02*
X66600000Y40347619D01*
X66504761Y40395238D01*
X66457142Y40442857D01*
X66361904Y40585714D01*
X66314285Y40776190D01*
X66314285Y41157142D01*
X66361904Y41252380D01*
X66409523Y41300000D01*
X66504761Y41347619D01*
X66695238Y41347619D01*
X66790476Y41300000D01*
X66838095Y41252380D01*
X66885714Y41157142D01*
X66885714Y40919047D01*
X66838095Y40823809D01*
X66790476Y40776190D01*
X66695238Y40728571D01*
X66504761Y40728571D01*
X66409523Y40776190D01*
X66361904Y40823809D01*
X66314285Y40919047D01*
%TO.C,D10*%
X95222380Y17534285D02*
X94222380Y17534285D01*
X94222380Y17296190D01*
X94270000Y17153333D01*
X94365238Y17058095D01*
X94460476Y17010476D01*
X94650952Y16962857D01*
X94793809Y16962857D01*
X94984285Y17010476D01*
X95079523Y17058095D01*
X95174761Y17153333D01*
X95222380Y17296190D01*
X95222380Y17534285D01*
X95222380Y16010476D02*
X95222380Y16581904D01*
X95222380Y16296190D02*
X94222380Y16296190D01*
X94365238Y16391428D01*
X94460476Y16486666D01*
X94508095Y16581904D01*
X94222380Y15391428D02*
X94222380Y15296190D01*
X94270000Y15200952D01*
X94317619Y15153333D01*
X94412857Y15105714D01*
X94603333Y15058095D01*
X94841428Y15058095D01*
X95031904Y15105714D01*
X95127142Y15153333D01*
X95174761Y15200952D01*
X95222380Y15296190D01*
X95222380Y15391428D01*
X95174761Y15486666D01*
X95127142Y15534285D01*
X95031904Y15581904D01*
X94841428Y15629523D01*
X94603333Y15629523D01*
X94412857Y15581904D01*
X94317619Y15534285D01*
X94270000Y15486666D01*
X94222380Y15391428D01*
%TO.C,C13*%
X74392857Y21342857D02*
X74440476Y21295238D01*
X74583333Y21247619D01*
X74678571Y21247619D01*
X74821428Y21295238D01*
X74916666Y21390476D01*
X74964285Y21485714D01*
X75011904Y21676190D01*
X75011904Y21819047D01*
X74964285Y22009523D01*
X74916666Y22104761D01*
X74821428Y22200000D01*
X74678571Y22247619D01*
X74583333Y22247619D01*
X74440476Y22200000D01*
X74392857Y22152380D01*
X73440476Y21247619D02*
X74011904Y21247619D01*
X73726190Y21247619D02*
X73726190Y22247619D01*
X73821428Y22104761D01*
X73916666Y22009523D01*
X74011904Y21961904D01*
X73107142Y22247619D02*
X72488095Y22247619D01*
X72821428Y21866666D01*
X72678571Y21866666D01*
X72583333Y21819047D01*
X72535714Y21771428D01*
X72488095Y21676190D01*
X72488095Y21438095D01*
X72535714Y21342857D01*
X72583333Y21295238D01*
X72678571Y21247619D01*
X72964285Y21247619D01*
X73059523Y21295238D01*
X73107142Y21342857D01*
%TO.C,D12*%
X133322380Y17534285D02*
X132322380Y17534285D01*
X132322380Y17296190D01*
X132370000Y17153333D01*
X132465238Y17058095D01*
X132560476Y17010476D01*
X132750952Y16962857D01*
X132893809Y16962857D01*
X133084285Y17010476D01*
X133179523Y17058095D01*
X133274761Y17153333D01*
X133322380Y17296190D01*
X133322380Y17534285D01*
X133322380Y16010476D02*
X133322380Y16581904D01*
X133322380Y16296190D02*
X132322380Y16296190D01*
X132465238Y16391428D01*
X132560476Y16486666D01*
X132608095Y16581904D01*
X132417619Y15629523D02*
X132370000Y15581904D01*
X132322380Y15486666D01*
X132322380Y15248571D01*
X132370000Y15153333D01*
X132417619Y15105714D01*
X132512857Y15058095D01*
X132608095Y15058095D01*
X132750952Y15105714D01*
X133322380Y15677142D01*
X133322380Y15058095D01*
%TO.C,JP1*%
X113294880Y98483333D02*
X114009166Y98483333D01*
X114152023Y98530952D01*
X114247261Y98626190D01*
X114294880Y98769047D01*
X114294880Y98864285D01*
X114294880Y98007142D02*
X113294880Y98007142D01*
X113294880Y97626190D01*
X113342500Y97530952D01*
X113390119Y97483333D01*
X113485357Y97435714D01*
X113628214Y97435714D01*
X113723452Y97483333D01*
X113771071Y97530952D01*
X113818690Y97626190D01*
X113818690Y98007142D01*
X114294880Y96483333D02*
X114294880Y97054761D01*
X114294880Y96769047D02*
X113294880Y96769047D01*
X113437738Y96864285D01*
X113532976Y96959523D01*
X113580595Y97054761D01*
%TO.C,D13*%
X23022380Y82034285D02*
X22022380Y82034285D01*
X22022380Y81796190D01*
X22070000Y81653333D01*
X22165238Y81558095D01*
X22260476Y81510476D01*
X22450952Y81462857D01*
X22593809Y81462857D01*
X22784285Y81510476D01*
X22879523Y81558095D01*
X22974761Y81653333D01*
X23022380Y81796190D01*
X23022380Y82034285D01*
X23022380Y80510476D02*
X23022380Y81081904D01*
X23022380Y80796190D02*
X22022380Y80796190D01*
X22165238Y80891428D01*
X22260476Y80986666D01*
X22308095Y81081904D01*
X22022380Y80177142D02*
X22022380Y79558095D01*
X22403333Y79891428D01*
X22403333Y79748571D01*
X22450952Y79653333D01*
X22498571Y79605714D01*
X22593809Y79558095D01*
X22831904Y79558095D01*
X22927142Y79605714D01*
X22974761Y79653333D01*
X23022380Y79748571D01*
X23022380Y80034285D01*
X22974761Y80129523D01*
X22927142Y80177142D01*
%TO.C,D19*%
X9177142Y76060476D02*
X9177142Y76700476D01*
X9024761Y76700476D01*
X8933333Y76670000D01*
X8872380Y76609047D01*
X8841904Y76548095D01*
X8811428Y76426190D01*
X8811428Y76334761D01*
X8841904Y76212857D01*
X8872380Y76151904D01*
X8933333Y76090952D01*
X9024761Y76060476D01*
X9177142Y76060476D01*
X8201904Y76060476D02*
X8567619Y76060476D01*
X8384761Y76060476D02*
X8384761Y76700476D01*
X8445714Y76609047D01*
X8506666Y76548095D01*
X8567619Y76517619D01*
X7897142Y76060476D02*
X7775238Y76060476D01*
X7714285Y76090952D01*
X7683809Y76121428D01*
X7622857Y76212857D01*
X7592380Y76334761D01*
X7592380Y76578571D01*
X7622857Y76639523D01*
X7653333Y76670000D01*
X7714285Y76700476D01*
X7836190Y76700476D01*
X7897142Y76670000D01*
X7927619Y76639523D01*
X7958095Y76578571D01*
X7958095Y76426190D01*
X7927619Y76365238D01*
X7897142Y76334761D01*
X7836190Y76304285D01*
X7714285Y76304285D01*
X7653333Y76334761D01*
X7622857Y76365238D01*
X7592380Y76426190D01*
%TO.C,D7*%
X114272380Y36108095D02*
X113272380Y36108095D01*
X113272380Y35870000D01*
X113320000Y35727142D01*
X113415238Y35631904D01*
X113510476Y35584285D01*
X113700952Y35536666D01*
X113843809Y35536666D01*
X114034285Y35584285D01*
X114129523Y35631904D01*
X114224761Y35727142D01*
X114272380Y35870000D01*
X114272380Y36108095D01*
X113272380Y35203333D02*
X113272380Y34536666D01*
X114272380Y34965238D01*
%TO.C,R3*%
X53052380Y78916666D02*
X52576190Y79250000D01*
X53052380Y79488095D02*
X52052380Y79488095D01*
X52052380Y79107142D01*
X52100000Y79011904D01*
X52147619Y78964285D01*
X52242857Y78916666D01*
X52385714Y78916666D01*
X52480952Y78964285D01*
X52528571Y79011904D01*
X52576190Y79107142D01*
X52576190Y79488095D01*
X52052380Y78583333D02*
X52052380Y77964285D01*
X52433333Y78297619D01*
X52433333Y78154761D01*
X52480952Y78059523D01*
X52528571Y78011904D01*
X52623809Y77964285D01*
X52861904Y77964285D01*
X52957142Y78011904D01*
X53004761Y78059523D01*
X53052380Y78154761D01*
X53052380Y78440476D01*
X53004761Y78535714D01*
X52957142Y78583333D01*
%TO.C,D20*%
X28227142Y76060476D02*
X28227142Y76700476D01*
X28074761Y76700476D01*
X27983333Y76670000D01*
X27922380Y76609047D01*
X27891904Y76548095D01*
X27861428Y76426190D01*
X27861428Y76334761D01*
X27891904Y76212857D01*
X27922380Y76151904D01*
X27983333Y76090952D01*
X28074761Y76060476D01*
X28227142Y76060476D01*
X27617619Y76639523D02*
X27587142Y76670000D01*
X27526190Y76700476D01*
X27373809Y76700476D01*
X27312857Y76670000D01*
X27282380Y76639523D01*
X27251904Y76578571D01*
X27251904Y76517619D01*
X27282380Y76426190D01*
X27648095Y76060476D01*
X27251904Y76060476D01*
X26855714Y76700476D02*
X26794761Y76700476D01*
X26733809Y76670000D01*
X26703333Y76639523D01*
X26672857Y76578571D01*
X26642380Y76456666D01*
X26642380Y76304285D01*
X26672857Y76182380D01*
X26703333Y76121428D01*
X26733809Y76090952D01*
X26794761Y76060476D01*
X26855714Y76060476D01*
X26916666Y76090952D01*
X26947142Y76121428D01*
X26977619Y76182380D01*
X27008095Y76304285D01*
X27008095Y76456666D01*
X26977619Y76578571D01*
X26947142Y76639523D01*
X26916666Y76670000D01*
X26855714Y76700476D01*
%TO.C,C3*%
X16066666Y78592857D02*
X16114285Y78545238D01*
X16257142Y78497619D01*
X16352380Y78497619D01*
X16495238Y78545238D01*
X16590476Y78640476D01*
X16638095Y78735714D01*
X16685714Y78926190D01*
X16685714Y79069047D01*
X16638095Y79259523D01*
X16590476Y79354761D01*
X16495238Y79450000D01*
X16352380Y79497619D01*
X16257142Y79497619D01*
X16114285Y79450000D01*
X16066666Y79402380D01*
X15733333Y79497619D02*
X15114285Y79497619D01*
X15447619Y79116666D01*
X15304761Y79116666D01*
X15209523Y79069047D01*
X15161904Y79021428D01*
X15114285Y78926190D01*
X15114285Y78688095D01*
X15161904Y78592857D01*
X15209523Y78545238D01*
X15304761Y78497619D01*
X15590476Y78497619D01*
X15685714Y78545238D01*
X15733333Y78592857D01*
%TO.C,D6*%
X95222380Y36108095D02*
X94222380Y36108095D01*
X94222380Y35870000D01*
X94270000Y35727142D01*
X94365238Y35631904D01*
X94460476Y35584285D01*
X94650952Y35536666D01*
X94793809Y35536666D01*
X94984285Y35584285D01*
X95079523Y35631904D01*
X95174761Y35727142D01*
X95222380Y35870000D01*
X95222380Y36108095D01*
X94222380Y34679523D02*
X94222380Y34870000D01*
X94270000Y34965238D01*
X94317619Y35012857D01*
X94460476Y35108095D01*
X94650952Y35155714D01*
X95031904Y35155714D01*
X95127142Y35108095D01*
X95174761Y35060476D01*
X95222380Y34965238D01*
X95222380Y34774761D01*
X95174761Y34679523D01*
X95127142Y34631904D01*
X95031904Y34584285D01*
X94793809Y34584285D01*
X94698571Y34631904D01*
X94650952Y34679523D01*
X94603333Y34774761D01*
X94603333Y34965238D01*
X94650952Y35060476D01*
X94698571Y35108095D01*
X94793809Y35155714D01*
%TO.C,C11*%
X105292857Y40442857D02*
X105340476Y40395238D01*
X105483333Y40347619D01*
X105578571Y40347619D01*
X105721428Y40395238D01*
X105816666Y40490476D01*
X105864285Y40585714D01*
X105911904Y40776190D01*
X105911904Y40919047D01*
X105864285Y41109523D01*
X105816666Y41204761D01*
X105721428Y41300000D01*
X105578571Y41347619D01*
X105483333Y41347619D01*
X105340476Y41300000D01*
X105292857Y41252380D01*
X104340476Y40347619D02*
X104911904Y40347619D01*
X104626190Y40347619D02*
X104626190Y41347619D01*
X104721428Y41204761D01*
X104816666Y41109523D01*
X104911904Y41061904D01*
X103388095Y40347619D02*
X103959523Y40347619D01*
X103673809Y40347619D02*
X103673809Y41347619D01*
X103769047Y41204761D01*
X103864285Y41109523D01*
X103959523Y41061904D01*
%TO.C,D31*%
X104427142Y18960476D02*
X104427142Y19600476D01*
X104274761Y19600476D01*
X104183333Y19570000D01*
X104122380Y19509047D01*
X104091904Y19448095D01*
X104061428Y19326190D01*
X104061428Y19234761D01*
X104091904Y19112857D01*
X104122380Y19051904D01*
X104183333Y18990952D01*
X104274761Y18960476D01*
X104427142Y18960476D01*
X103848095Y19600476D02*
X103451904Y19600476D01*
X103665238Y19356666D01*
X103573809Y19356666D01*
X103512857Y19326190D01*
X103482380Y19295714D01*
X103451904Y19234761D01*
X103451904Y19082380D01*
X103482380Y19021428D01*
X103512857Y18990952D01*
X103573809Y18960476D01*
X103756666Y18960476D01*
X103817619Y18990952D01*
X103848095Y19021428D01*
X102842380Y18960476D02*
X103208095Y18960476D01*
X103025238Y18960476D02*
X103025238Y19600476D01*
X103086190Y19509047D01*
X103147142Y19448095D01*
X103208095Y19417619D01*
%TO.C,D15*%
X23022380Y62984285D02*
X22022380Y62984285D01*
X22022380Y62746190D01*
X22070000Y62603333D01*
X22165238Y62508095D01*
X22260476Y62460476D01*
X22450952Y62412857D01*
X22593809Y62412857D01*
X22784285Y62460476D01*
X22879523Y62508095D01*
X22974761Y62603333D01*
X23022380Y62746190D01*
X23022380Y62984285D01*
X23022380Y61460476D02*
X23022380Y62031904D01*
X23022380Y61746190D02*
X22022380Y61746190D01*
X22165238Y61841428D01*
X22260476Y61936666D01*
X22308095Y62031904D01*
X22022380Y60555714D02*
X22022380Y61031904D01*
X22498571Y61079523D01*
X22450952Y61031904D01*
X22403333Y60936666D01*
X22403333Y60698571D01*
X22450952Y60603333D01*
X22498571Y60555714D01*
X22593809Y60508095D01*
X22831904Y60508095D01*
X22927142Y60555714D01*
X22974761Y60603333D01*
X23022380Y60698571D01*
X23022380Y60936666D01*
X22974761Y61031904D01*
X22927142Y61079523D01*
%TO.C,C15*%
X112342857Y21392857D02*
X112390476Y21345238D01*
X112533333Y21297619D01*
X112628571Y21297619D01*
X112771428Y21345238D01*
X112866666Y21440476D01*
X112914285Y21535714D01*
X112961904Y21726190D01*
X112961904Y21869047D01*
X112914285Y22059523D01*
X112866666Y22154761D01*
X112771428Y22250000D01*
X112628571Y22297619D01*
X112533333Y22297619D01*
X112390476Y22250000D01*
X112342857Y22202380D01*
X111390476Y21297619D02*
X111961904Y21297619D01*
X111676190Y21297619D02*
X111676190Y22297619D01*
X111771428Y22154761D01*
X111866666Y22059523D01*
X111961904Y22011904D01*
X110485714Y22297619D02*
X110961904Y22297619D01*
X111009523Y21821428D01*
X110961904Y21869047D01*
X110866666Y21916666D01*
X110628571Y21916666D01*
X110533333Y21869047D01*
X110485714Y21821428D01*
X110438095Y21726190D01*
X110438095Y21488095D01*
X110485714Y21392857D01*
X110533333Y21345238D01*
X110628571Y21297619D01*
X110866666Y21297619D01*
X110961904Y21345238D01*
X111009523Y21392857D01*
%TO.C,C7*%
X108426666Y61182857D02*
X108474285Y61135238D01*
X108617142Y61087619D01*
X108712380Y61087619D01*
X108855238Y61135238D01*
X108950476Y61230476D01*
X108998095Y61325714D01*
X109045714Y61516190D01*
X109045714Y61659047D01*
X108998095Y61849523D01*
X108950476Y61944761D01*
X108855238Y62040000D01*
X108712380Y62087619D01*
X108617142Y62087619D01*
X108474285Y62040000D01*
X108426666Y61992380D01*
X108093333Y62087619D02*
X107426666Y62087619D01*
X107855238Y61087619D01*
%TO.C,C2*%
X10166666Y97592857D02*
X10214285Y97545238D01*
X10357142Y97497619D01*
X10452380Y97497619D01*
X10595238Y97545238D01*
X10690476Y97640476D01*
X10738095Y97735714D01*
X10785714Y97926190D01*
X10785714Y98069047D01*
X10738095Y98259523D01*
X10690476Y98354761D01*
X10595238Y98450000D01*
X10452380Y98497619D01*
X10357142Y98497619D01*
X10214285Y98450000D01*
X10166666Y98402380D01*
X9785714Y98402380D02*
X9738095Y98450000D01*
X9642857Y98497619D01*
X9404761Y98497619D01*
X9309523Y98450000D01*
X9261904Y98402380D01*
X9214285Y98307142D01*
X9214285Y98211904D01*
X9261904Y98069047D01*
X9833333Y97497619D01*
X9214285Y97497619D01*
%TO.C,D21*%
X66127142Y57060476D02*
X66127142Y57700476D01*
X65974761Y57700476D01*
X65883333Y57670000D01*
X65822380Y57609047D01*
X65791904Y57548095D01*
X65761428Y57426190D01*
X65761428Y57334761D01*
X65791904Y57212857D01*
X65822380Y57151904D01*
X65883333Y57090952D01*
X65974761Y57060476D01*
X66127142Y57060476D01*
X65517619Y57639523D02*
X65487142Y57670000D01*
X65426190Y57700476D01*
X65273809Y57700476D01*
X65212857Y57670000D01*
X65182380Y57639523D01*
X65151904Y57578571D01*
X65151904Y57517619D01*
X65182380Y57426190D01*
X65548095Y57060476D01*
X65151904Y57060476D01*
X64542380Y57060476D02*
X64908095Y57060476D01*
X64725238Y57060476D02*
X64725238Y57700476D01*
X64786190Y57609047D01*
X64847142Y57548095D01*
X64908095Y57517619D01*
%TO.C,D29*%
X66277142Y18910476D02*
X66277142Y19550476D01*
X66124761Y19550476D01*
X66033333Y19520000D01*
X65972380Y19459047D01*
X65941904Y19398095D01*
X65911428Y19276190D01*
X65911428Y19184761D01*
X65941904Y19062857D01*
X65972380Y19001904D01*
X66033333Y18940952D01*
X66124761Y18910476D01*
X66277142Y18910476D01*
X65667619Y19489523D02*
X65637142Y19520000D01*
X65576190Y19550476D01*
X65423809Y19550476D01*
X65362857Y19520000D01*
X65332380Y19489523D01*
X65301904Y19428571D01*
X65301904Y19367619D01*
X65332380Y19276190D01*
X65698095Y18910476D01*
X65301904Y18910476D01*
X64997142Y18910476D02*
X64875238Y18910476D01*
X64814285Y18940952D01*
X64783809Y18971428D01*
X64722857Y19062857D01*
X64692380Y19184761D01*
X64692380Y19428571D01*
X64722857Y19489523D01*
X64753333Y19520000D01*
X64814285Y19550476D01*
X64936190Y19550476D01*
X64997142Y19520000D01*
X65027619Y19489523D01*
X65058095Y19428571D01*
X65058095Y19276190D01*
X65027619Y19215238D01*
X64997142Y19184761D01*
X64936190Y19154285D01*
X64814285Y19154285D01*
X64753333Y19184761D01*
X64722857Y19215238D01*
X64692380Y19276190D01*
%TO.C,R5*%
X43916666Y95697619D02*
X44250000Y96173809D01*
X44488095Y95697619D02*
X44488095Y96697619D01*
X44107142Y96697619D01*
X44011904Y96650000D01*
X43964285Y96602380D01*
X43916666Y96507142D01*
X43916666Y96364285D01*
X43964285Y96269047D01*
X44011904Y96221428D01*
X44107142Y96173809D01*
X44488095Y96173809D01*
X43011904Y96697619D02*
X43488095Y96697619D01*
X43535714Y96221428D01*
X43488095Y96269047D01*
X43392857Y96316666D01*
X43154761Y96316666D01*
X43059523Y96269047D01*
X43011904Y96221428D01*
X42964285Y96126190D01*
X42964285Y95888095D01*
X43011904Y95792857D01*
X43059523Y95745238D01*
X43154761Y95697619D01*
X43392857Y95697619D01*
X43488095Y95745238D01*
X43535714Y95792857D01*
%TO.C,D2*%
X95222380Y55158095D02*
X94222380Y55158095D01*
X94222380Y54920000D01*
X94270000Y54777142D01*
X94365238Y54681904D01*
X94460476Y54634285D01*
X94650952Y54586666D01*
X94793809Y54586666D01*
X94984285Y54634285D01*
X95079523Y54681904D01*
X95174761Y54777142D01*
X95222380Y54920000D01*
X95222380Y55158095D01*
X94317619Y54205714D02*
X94270000Y54158095D01*
X94222380Y54062857D01*
X94222380Y53824761D01*
X94270000Y53729523D01*
X94317619Y53681904D01*
X94412857Y53634285D01*
X94508095Y53634285D01*
X94650952Y53681904D01*
X95222380Y54253333D01*
X95222380Y53634285D01*
%TO.C,D4*%
X133322380Y55158095D02*
X132322380Y55158095D01*
X132322380Y54920000D01*
X132370000Y54777142D01*
X132465238Y54681904D01*
X132560476Y54634285D01*
X132750952Y54586666D01*
X132893809Y54586666D01*
X133084285Y54634285D01*
X133179523Y54681904D01*
X133274761Y54777142D01*
X133322380Y54920000D01*
X133322380Y55158095D01*
X132655714Y53729523D02*
X133322380Y53729523D01*
X132274761Y53967619D02*
X132989047Y54205714D01*
X132989047Y53586666D01*
%TO.C,D1*%
X76172380Y55158095D02*
X75172380Y55158095D01*
X75172380Y54920000D01*
X75220000Y54777142D01*
X75315238Y54681904D01*
X75410476Y54634285D01*
X75600952Y54586666D01*
X75743809Y54586666D01*
X75934285Y54634285D01*
X76029523Y54681904D01*
X76124761Y54777142D01*
X76172380Y54920000D01*
X76172380Y55158095D01*
X76172380Y53634285D02*
X76172380Y54205714D01*
X76172380Y53920000D02*
X75172380Y53920000D01*
X75315238Y54015238D01*
X75410476Y54110476D01*
X75458095Y54205714D01*
%TO.C,D8*%
X133322380Y36108095D02*
X132322380Y36108095D01*
X132322380Y35870000D01*
X132370000Y35727142D01*
X132465238Y35631904D01*
X132560476Y35584285D01*
X132750952Y35536666D01*
X132893809Y35536666D01*
X133084285Y35584285D01*
X133179523Y35631904D01*
X133274761Y35727142D01*
X133322380Y35870000D01*
X133322380Y36108095D01*
X132750952Y34965238D02*
X132703333Y35060476D01*
X132655714Y35108095D01*
X132560476Y35155714D01*
X132512857Y35155714D01*
X132417619Y35108095D01*
X132370000Y35060476D01*
X132322380Y34965238D01*
X132322380Y34774761D01*
X132370000Y34679523D01*
X132417619Y34631904D01*
X132512857Y34584285D01*
X132560476Y34584285D01*
X132655714Y34631904D01*
X132703333Y34679523D01*
X132750952Y34774761D01*
X132750952Y34965238D01*
X132798571Y35060476D01*
X132846190Y35108095D01*
X132941428Y35155714D01*
X133131904Y35155714D01*
X133227142Y35108095D01*
X133274761Y35060476D01*
X133322380Y34965238D01*
X133322380Y34774761D01*
X133274761Y34679523D01*
X133227142Y34631904D01*
X133131904Y34584285D01*
X132941428Y34584285D01*
X132846190Y34631904D01*
X132798571Y34679523D01*
X132750952Y34774761D01*
%TO.C,D16*%
X42072380Y62984285D02*
X41072380Y62984285D01*
X41072380Y62746190D01*
X41120000Y62603333D01*
X41215238Y62508095D01*
X41310476Y62460476D01*
X41500952Y62412857D01*
X41643809Y62412857D01*
X41834285Y62460476D01*
X41929523Y62508095D01*
X42024761Y62603333D01*
X42072380Y62746190D01*
X42072380Y62984285D01*
X42072380Y61460476D02*
X42072380Y62031904D01*
X42072380Y61746190D02*
X41072380Y61746190D01*
X41215238Y61841428D01*
X41310476Y61936666D01*
X41358095Y62031904D01*
X41072380Y60603333D02*
X41072380Y60793809D01*
X41120000Y60889047D01*
X41167619Y60936666D01*
X41310476Y61031904D01*
X41500952Y61079523D01*
X41881904Y61079523D01*
X41977142Y61031904D01*
X42024761Y60984285D01*
X42072380Y60889047D01*
X42072380Y60698571D01*
X42024761Y60603333D01*
X41977142Y60555714D01*
X41881904Y60508095D01*
X41643809Y60508095D01*
X41548571Y60555714D01*
X41500952Y60603333D01*
X41453333Y60698571D01*
X41453333Y60889047D01*
X41500952Y60984285D01*
X41548571Y61031904D01*
X41643809Y61079523D01*
%TO.C,D26*%
X105177142Y38210476D02*
X105177142Y38850476D01*
X105024761Y38850476D01*
X104933333Y38820000D01*
X104872380Y38759047D01*
X104841904Y38698095D01*
X104811428Y38576190D01*
X104811428Y38484761D01*
X104841904Y38362857D01*
X104872380Y38301904D01*
X104933333Y38240952D01*
X105024761Y38210476D01*
X105177142Y38210476D01*
X104567619Y38789523D02*
X104537142Y38820000D01*
X104476190Y38850476D01*
X104323809Y38850476D01*
X104262857Y38820000D01*
X104232380Y38789523D01*
X104201904Y38728571D01*
X104201904Y38667619D01*
X104232380Y38576190D01*
X104598095Y38210476D01*
X104201904Y38210476D01*
X103653333Y38850476D02*
X103775238Y38850476D01*
X103836190Y38820000D01*
X103866666Y38789523D01*
X103927619Y38698095D01*
X103958095Y38576190D01*
X103958095Y38332380D01*
X103927619Y38271428D01*
X103897142Y38240952D01*
X103836190Y38210476D01*
X103714285Y38210476D01*
X103653333Y38240952D01*
X103622857Y38271428D01*
X103592380Y38332380D01*
X103592380Y38484761D01*
X103622857Y38545714D01*
X103653333Y38576190D01*
X103714285Y38606666D01*
X103836190Y38606666D01*
X103897142Y38576190D01*
X103927619Y38545714D01*
X103958095Y38484761D01*
%TO.C,SW12*%
X103180000Y10470000D02*
X108260000Y10470000D01*
X114610000Y11994000D02*
X114610000Y12375000D01*
X114229000Y12375000D02*
X114610000Y12375000D01*
X110724162Y12375000D02*
X112451000Y12375000D01*
X112070000Y6025000D02*
X103180000Y6025000D01*
X114610000Y8565000D02*
X114610000Y8946000D01*
X103180000Y9454000D02*
X103180000Y10470000D01*
X103180000Y6025000D02*
X103180000Y6406000D01*
X112070000Y6025000D02*
G75*
G03*
X114610000Y8565000I-1J2540001D01*
G01*
X108260000Y10469999D02*
G75*
G03*
X110724162Y12393960I0J2540000D01*
G01*
%TO.C,SW16*%
X15474162Y69525000D02*
X17201000Y69525000D01*
X18979000Y69525000D02*
X19360000Y69525000D01*
X19360000Y69144000D02*
X19360000Y69525000D01*
X16820000Y63175000D02*
X7930000Y63175000D01*
X19360000Y65715000D02*
X19360000Y66096000D01*
X7930000Y67620000D02*
X13010000Y67620000D01*
X7930000Y66604000D02*
X7930000Y67620000D01*
X7930000Y63175000D02*
X7930000Y63556000D01*
X16820000Y63175000D02*
G75*
G03*
X19360000Y65715000I-1J2540001D01*
G01*
X13010000Y67619999D02*
G75*
G03*
X15474162Y69543960I0J2540000D01*
G01*
%TO.C,SW4*%
X103180000Y44125000D02*
X103180000Y44506000D01*
X103180000Y47554000D02*
X103180000Y48570000D01*
X114610000Y46665000D02*
X114610000Y47046000D01*
X110724162Y50475000D02*
X112451000Y50475000D01*
X112070000Y44125000D02*
X103180000Y44125000D01*
X114229000Y50475000D02*
X114610000Y50475000D01*
X114610000Y50094000D02*
X114610000Y50475000D01*
X103180000Y48570000D02*
X108260000Y48570000D01*
X112070000Y44125000D02*
G75*
G03*
X114610000Y46665000I-1J2540001D01*
G01*
X108260000Y48569999D02*
G75*
G03*
X110724162Y50493960I0J2540000D01*
G01*
%TO.C,SW10*%
X76510000Y8565000D02*
X76510000Y8946000D01*
X73970000Y6025000D02*
X65080000Y6025000D01*
X65080000Y9454000D02*
X65080000Y10470000D01*
X72624162Y12375000D02*
X74351000Y12375000D01*
X76510000Y11994000D02*
X76510000Y12375000D01*
X65080000Y6025000D02*
X65080000Y6406000D01*
X65080000Y10470000D02*
X70160000Y10470000D01*
X76129000Y12375000D02*
X76510000Y12375000D01*
X73970000Y6025000D02*
G75*
G03*
X76510000Y8565000I-1J2540001D01*
G01*
X70160000Y10469999D02*
G75*
G03*
X72624162Y12393960I0J2540000D01*
G01*
%TO.C,SW3*%
X84130000Y48570000D02*
X89210000Y48570000D01*
X84130000Y44125000D02*
X84130000Y44506000D01*
X84130000Y47554000D02*
X84130000Y48570000D01*
X95560000Y50094000D02*
X95560000Y50475000D01*
X95179000Y50475000D02*
X95560000Y50475000D01*
X95560000Y46665000D02*
X95560000Y47046000D01*
X91674162Y50475000D02*
X93401000Y50475000D01*
X93020000Y44125000D02*
X84130000Y44125000D01*
X89210000Y48569999D02*
G75*
G03*
X91674162Y50493960I0J2540000D01*
G01*
X93020000Y44125000D02*
G75*
G03*
X95560000Y46665000I-1J2540001D01*
G01*
%TO.C,SW11*%
X84130000Y9454000D02*
X84130000Y10470000D01*
X95560000Y8565000D02*
X95560000Y8946000D01*
X84130000Y10470000D02*
X89210000Y10470000D01*
X95179000Y12375000D02*
X95560000Y12375000D01*
X84130000Y6025000D02*
X84130000Y6406000D01*
X95560000Y11994000D02*
X95560000Y12375000D01*
X91674162Y12375000D02*
X93401000Y12375000D01*
X93020000Y6025000D02*
X84130000Y6025000D01*
X93020000Y6025000D02*
G75*
G03*
X95560000Y8565000I-1J2540001D01*
G01*
X89210000Y10469999D02*
G75*
G03*
X91674162Y12393960I0J2540000D01*
G01*
%TO.C,SW5*%
X133660000Y50094000D02*
X133660000Y50475000D01*
X133660000Y46665000D02*
X133660000Y47046000D01*
X129774162Y50475000D02*
X131501000Y50475000D01*
X122230000Y48570000D02*
X127310000Y48570000D01*
X122230000Y44125000D02*
X122230000Y44506000D01*
X131120000Y44125000D02*
X122230000Y44125000D01*
X122230000Y47554000D02*
X122230000Y48570000D01*
X133279000Y50475000D02*
X133660000Y50475000D01*
X127310000Y48569999D02*
G75*
G03*
X129774162Y50493960I0J2540000D01*
G01*
X131120000Y44125000D02*
G75*
G03*
X133660000Y46665000I-1J2540001D01*
G01*
%TO.C,SW14*%
X18979000Y88575000D02*
X19360000Y88575000D01*
X19360000Y88194000D02*
X19360000Y88575000D01*
X15474162Y88575000D02*
X17201000Y88575000D01*
X7930000Y85654000D02*
X7930000Y86670000D01*
X19360000Y84765000D02*
X19360000Y85146000D01*
X7930000Y86670000D02*
X13010000Y86670000D01*
X7930000Y82225000D02*
X7930000Y82606000D01*
X16820000Y82225000D02*
X7930000Y82225000D01*
X13010000Y86669999D02*
G75*
G03*
X15474162Y88593960I0J2540000D01*
G01*
X16820000Y82225000D02*
G75*
G03*
X19360000Y84765000I-1J2540001D01*
G01*
%TO.C,SW15*%
X34524162Y88575000D02*
X36251000Y88575000D01*
X26980000Y82225000D02*
X26980000Y82606000D01*
X38029000Y88575000D02*
X38410000Y88575000D01*
X38410000Y84765000D02*
X38410000Y85146000D01*
X38410000Y88194000D02*
X38410000Y88575000D01*
X26980000Y86670000D02*
X32060000Y86670000D01*
X26980000Y85654000D02*
X26980000Y86670000D01*
X35870000Y82225000D02*
X26980000Y82225000D01*
X32060000Y86669999D02*
G75*
G03*
X34524162Y88593960I0J2540000D01*
G01*
X35870000Y82225000D02*
G75*
G03*
X38410000Y84765000I-1J2540001D01*
G01*
%TO.C,SW9*%
X122230000Y25075000D02*
X122230000Y25456000D01*
X133660000Y31044000D02*
X133660000Y31425000D01*
X122230000Y29520000D02*
X127310000Y29520000D01*
X133279000Y31425000D02*
X133660000Y31425000D01*
X131120000Y25075000D02*
X122230000Y25075000D01*
X133660000Y27615000D02*
X133660000Y27996000D01*
X122230000Y28504000D02*
X122230000Y29520000D01*
X129774162Y31425000D02*
X131501000Y31425000D01*
X127310000Y29519999D02*
G75*
G03*
X129774162Y31443960I0J2540000D01*
G01*
X131120000Y25075000D02*
G75*
G03*
X133660000Y27615000I-1J2540001D01*
G01*
%TO.C,SW8*%
X114229000Y31425000D02*
X114610000Y31425000D01*
X103180000Y25075000D02*
X103180000Y25456000D01*
X114610000Y27615000D02*
X114610000Y27996000D01*
X103180000Y29520000D02*
X108260000Y29520000D01*
X110724162Y31425000D02*
X112451000Y31425000D01*
X112070000Y25075000D02*
X103180000Y25075000D01*
X103180000Y28504000D02*
X103180000Y29520000D01*
X114610000Y31044000D02*
X114610000Y31425000D01*
X112070000Y25075000D02*
G75*
G03*
X114610000Y27615000I-1J2540001D01*
G01*
X108260000Y29519999D02*
G75*
G03*
X110724162Y31443960I0J2540000D01*
G01*
%TO.C,SW13*%
X133660000Y8565000D02*
X133660000Y8946000D01*
X122230000Y10470000D02*
X127310000Y10470000D01*
X129774162Y12375000D02*
X131501000Y12375000D01*
X131120000Y6025000D02*
X122230000Y6025000D01*
X133660000Y11994000D02*
X133660000Y12375000D01*
X122230000Y9454000D02*
X122230000Y10470000D01*
X133279000Y12375000D02*
X133660000Y12375000D01*
X122230000Y6025000D02*
X122230000Y6406000D01*
X127310000Y10469999D02*
G75*
G03*
X129774162Y12393960I0J2540000D01*
G01*
X131120000Y6025000D02*
G75*
G03*
X133660000Y8565000I-1J2540001D01*
G01*
%TO.C,SW6*%
X76510000Y27615000D02*
X76510000Y27996000D01*
X65080000Y25075000D02*
X65080000Y25456000D01*
X76510000Y31044000D02*
X76510000Y31425000D01*
X65080000Y29520000D02*
X70160000Y29520000D01*
X73970000Y25075000D02*
X65080000Y25075000D01*
X72624162Y31425000D02*
X74351000Y31425000D01*
X76129000Y31425000D02*
X76510000Y31425000D01*
X65080000Y28504000D02*
X65080000Y29520000D01*
X73970000Y25075000D02*
G75*
G03*
X76510000Y27615000I-1J2540001D01*
G01*
X70160000Y29519999D02*
G75*
G03*
X72624162Y31443960I0J2540000D01*
G01*
%TO.C,SW2*%
X65080000Y47554000D02*
X65080000Y48570000D01*
X72624162Y50475000D02*
X74351000Y50475000D01*
X65080000Y48570000D02*
X70160000Y48570000D01*
X76129000Y50475000D02*
X76510000Y50475000D01*
X76510000Y50094000D02*
X76510000Y50475000D01*
X73970000Y44125000D02*
X65080000Y44125000D01*
X76510000Y46665000D02*
X76510000Y47046000D01*
X65080000Y44125000D02*
X65080000Y44506000D01*
X73970000Y44125000D02*
G75*
G03*
X76510000Y46665000I-1J2540001D01*
G01*
X70160000Y48569999D02*
G75*
G03*
X72624162Y50493960I0J2540000D01*
G01*
%TO.C,SW7*%
X91674162Y31425000D02*
X93401000Y31425000D01*
X84130000Y25075000D02*
X84130000Y25456000D01*
X93020000Y25075000D02*
X84130000Y25075000D01*
X95560000Y27615000D02*
X95560000Y27996000D01*
X95560000Y31044000D02*
X95560000Y31425000D01*
X84130000Y29520000D02*
X89210000Y29520000D01*
X84130000Y28504000D02*
X84130000Y29520000D01*
X95179000Y31425000D02*
X95560000Y31425000D01*
X89210000Y29519999D02*
G75*
G03*
X91674162Y31443960I0J2540000D01*
G01*
X93020000Y25075000D02*
G75*
G03*
X95560000Y27615000I-1J2540001D01*
G01*
%TO.C,SW17*%
X38410000Y65715000D02*
X38410000Y66096000D01*
X26980000Y67620000D02*
X32060000Y67620000D01*
X26980000Y63175000D02*
X26980000Y63556000D01*
X35870000Y63175000D02*
X26980000Y63175000D01*
X26980000Y66604000D02*
X26980000Y67620000D01*
X34524162Y69525000D02*
X36251000Y69525000D01*
X38410000Y69144000D02*
X38410000Y69525000D01*
X38029000Y69525000D02*
X38410000Y69525000D01*
X35870000Y63175000D02*
G75*
G03*
X38410000Y65715000I-1J2540001D01*
G01*
X32060000Y67619999D02*
G75*
G03*
X34524162Y69543960I0J2540000D01*
G01*
D13*
%TO.C,D5*%
X76720000Y37620000D02*
X76720000Y33720000D01*
X78720000Y37620000D02*
X78720000Y33720000D01*
X76720000Y37620000D02*
X78720000Y37620000D01*
%TO.C,D27*%
X92760000Y35260000D02*
X92260000Y34760000D01*
X92260000Y35260000D02*
X92760000Y35260000D01*
X92260000Y34760000D02*
X92260000Y35260000D01*
D14*
X91010000Y38110000D02*
X91010000Y35110000D01*
X87410000Y35110000D02*
X87410000Y38110000D01*
X88210000Y38110000D02*
X90210000Y38110000D01*
X90210000Y35110000D02*
X88210000Y35110000D01*
D15*
X87410000Y35110000D02*
G75*
G03*
X88210000Y35110000I400000J0D01*
G01*
X88210000Y38110000D02*
G75*
G03*
X87410000Y38110000I-400000J0D01*
G01*
X90210000Y35110000D02*
G75*
G03*
X91010000Y35110000I400000J0D01*
G01*
X91010000Y38110000D02*
G75*
G03*
X90210000Y38110000I-400000J0D01*
G01*
D13*
%TO.C,D3*%
X114820000Y56670000D02*
X114820000Y52770000D01*
X116820000Y56670000D02*
X116820000Y52770000D01*
X114820000Y56670000D02*
X116820000Y56670000D01*
%TO.C,C12*%
X127048748Y40075000D02*
X127571252Y40075000D01*
X127048748Y41545000D02*
X127571252Y41545000D01*
%TO.C,C6*%
X89471252Y59125000D02*
X88948748Y59125000D01*
X89471252Y60595000D02*
X88948748Y60595000D01*
%TO.C,R1*%
X128577064Y65335000D02*
X128122936Y65335000D01*
X128577064Y63865000D02*
X128122936Y63865000D01*
%TO.C,D25*%
X130360000Y34760000D02*
X130360000Y35260000D01*
X130860000Y35260000D02*
X130360000Y34760000D01*
X130360000Y35260000D02*
X130860000Y35260000D01*
D14*
X128310000Y35110000D02*
X126310000Y35110000D01*
X129110000Y38110000D02*
X129110000Y35110000D01*
X126310000Y38110000D02*
X128310000Y38110000D01*
X125510000Y35110000D02*
X125510000Y38110000D01*
D15*
X129110000Y38110000D02*
G75*
G03*
X128310000Y38110000I-400000J0D01*
G01*
X126310000Y38110000D02*
G75*
G03*
X125510000Y38110000I-400000J0D01*
G01*
X125510000Y35110000D02*
G75*
G03*
X126310000Y35110000I400000J0D01*
G01*
X128310000Y35110000D02*
G75*
G03*
X129110000Y35110000I400000J0D01*
G01*
D13*
%TO.C,D32*%
X124260000Y19410000D02*
X124260000Y18910000D01*
X123760000Y18910000D02*
X124260000Y19410000D01*
X124260000Y18910000D02*
X123760000Y18910000D01*
D14*
X126310000Y19060000D02*
X128310000Y19060000D01*
X128310000Y16060000D02*
X126310000Y16060000D01*
X129110000Y19060000D02*
X129110000Y16060000D01*
X125510000Y16060000D02*
X125510000Y19060000D01*
D15*
X128310000Y16060000D02*
G75*
G03*
X129110000Y16060000I400000J0D01*
G01*
X126310000Y19060000D02*
G75*
G03*
X125510000Y19060000I-400000J0D01*
G01*
X125510000Y16060000D02*
G75*
G03*
X126310000Y16060000I400000J0D01*
G01*
X129110000Y19060000D02*
G75*
G03*
X128310000Y19060000I-400000J0D01*
G01*
D13*
%TO.C,C5*%
X70421252Y59125000D02*
X69898748Y59125000D01*
X70421252Y60595000D02*
X69898748Y60595000D01*
%TO.C,D30*%
X86160000Y18910000D02*
X85660000Y18910000D01*
X86160000Y19410000D02*
X86160000Y18910000D01*
X85660000Y18910000D02*
X86160000Y19410000D01*
D14*
X88210000Y19060000D02*
X90210000Y19060000D01*
X90210000Y16060000D02*
X88210000Y16060000D01*
X87410000Y16060000D02*
X87410000Y19060000D01*
X91010000Y19060000D02*
X91010000Y16060000D01*
D15*
X87410000Y16060000D02*
G75*
G03*
X88210000Y16060000I400000J0D01*
G01*
X90210000Y16060000D02*
G75*
G03*
X91010000Y16060000I400000J0D01*
G01*
X91010000Y19060000D02*
G75*
G03*
X90210000Y19060000I-400000J0D01*
G01*
X88210000Y19060000D02*
G75*
G03*
X87410000Y19060000I-400000J0D01*
G01*
D13*
%TO.C,C10*%
X88948748Y40075000D02*
X89471252Y40075000D01*
X88948748Y41545000D02*
X89471252Y41545000D01*
%TO.C,D18*%
X16060000Y91910000D02*
X16060000Y92410000D01*
X16060000Y92410000D02*
X16560000Y92410000D01*
X16560000Y92410000D02*
X16060000Y91910000D01*
D14*
X14010000Y92260000D02*
X12010000Y92260000D01*
X14810000Y95260000D02*
X14810000Y92260000D01*
X12010000Y95260000D02*
X14010000Y95260000D01*
X11210000Y92260000D02*
X11210000Y95260000D01*
D15*
X14010000Y92260000D02*
G75*
G03*
X14810000Y92260000I400000J0D01*
G01*
X11210000Y92260000D02*
G75*
G03*
X12010000Y92260000I400000J0D01*
G01*
X14810000Y95260000D02*
G75*
G03*
X14010000Y95260000I-400000J0D01*
G01*
X12010000Y95260000D02*
G75*
G03*
X11210000Y95260000I-400000J0D01*
G01*
D13*
%TO.C,D22*%
X86160000Y57510000D02*
X86160000Y57010000D01*
X86160000Y57010000D02*
X85660000Y57010000D01*
X85660000Y57010000D02*
X86160000Y57510000D01*
D14*
X87410000Y54160000D02*
X87410000Y57160000D01*
X91010000Y57160000D02*
X91010000Y54160000D01*
X88210000Y57160000D02*
X90210000Y57160000D01*
X90210000Y54160000D02*
X88210000Y54160000D01*
D15*
X87410000Y54160000D02*
G75*
G03*
X88210000Y54160000I400000J0D01*
G01*
X91010000Y57160000D02*
G75*
G03*
X90210000Y57160000I-400000J0D01*
G01*
X90210000Y54160000D02*
G75*
G03*
X91010000Y54160000I400000J0D01*
G01*
X88210000Y57160000D02*
G75*
G03*
X87410000Y57160000I-400000J0D01*
G01*
D13*
%TO.C,C16*%
X127571252Y22495000D02*
X127048748Y22495000D01*
X127571252Y21025000D02*
X127048748Y21025000D01*
%TO.C,D23*%
X105210000Y57010000D02*
X104710000Y57010000D01*
X104710000Y57010000D02*
X105210000Y57510000D01*
X105210000Y57510000D02*
X105210000Y57010000D01*
D14*
X106460000Y54160000D02*
X106460000Y57160000D01*
X107260000Y57160000D02*
X109260000Y57160000D01*
X109260000Y54160000D02*
X107260000Y54160000D01*
X110060000Y57160000D02*
X110060000Y54160000D01*
D15*
X106460000Y54160000D02*
G75*
G03*
X107260000Y54160000I400000J0D01*
G01*
X107260000Y57160000D02*
G75*
G03*
X106460000Y57160000I-400000J0D01*
G01*
X110060000Y57160000D02*
G75*
G03*
X109260000Y57160000I-400000J0D01*
G01*
X109260000Y54160000D02*
G75*
G03*
X110060000Y54160000I400000J0D01*
G01*
D13*
%TO.C,C1*%
X31798748Y97225000D02*
X32321252Y97225000D01*
X31798748Y98695000D02*
X32321252Y98695000D01*
%TO.C,D28*%
X73210000Y34760000D02*
X73210000Y35260000D01*
X73210000Y35260000D02*
X73710000Y35260000D01*
X73710000Y35260000D02*
X73210000Y34760000D01*
D14*
X71160000Y35110000D02*
X69160000Y35110000D01*
X69160000Y38110000D02*
X71160000Y38110000D01*
X71960000Y38110000D02*
X71960000Y35110000D01*
X68360000Y35110000D02*
X68360000Y38110000D01*
D15*
X68360000Y35110000D02*
G75*
G03*
X69160000Y35110000I400000J0D01*
G01*
X71960000Y38110000D02*
G75*
G03*
X71160000Y38110000I-400000J0D01*
G01*
X69160000Y38110000D02*
G75*
G03*
X68360000Y38110000I-400000J0D01*
G01*
X71160000Y35110000D02*
G75*
G03*
X71960000Y35110000I400000J0D01*
G01*
D13*
%TO.C,C4*%
X32321252Y78175000D02*
X31798748Y78175000D01*
X32321252Y79645000D02*
X31798748Y79645000D01*
%TO.C,C8*%
X127571252Y60595000D02*
X127048748Y60595000D01*
X127571252Y59125000D02*
X127048748Y59125000D01*
%TO.C,R2*%
X131077064Y66215000D02*
X130622936Y66215000D01*
X131077064Y67685000D02*
X130622936Y67685000D01*
%TO.C,C14*%
X89471252Y21025000D02*
X88948748Y21025000D01*
X89471252Y22495000D02*
X88948748Y22495000D01*
%TO.C,D24*%
X124260000Y57510000D02*
X124260000Y57010000D01*
X124260000Y57010000D02*
X123760000Y57010000D01*
X123760000Y57010000D02*
X124260000Y57510000D01*
D14*
X128310000Y54160000D02*
X126310000Y54160000D01*
X129110000Y57160000D02*
X129110000Y54160000D01*
X125510000Y54160000D02*
X125510000Y57160000D01*
X126310000Y57160000D02*
X128310000Y57160000D01*
D15*
X126310000Y57160000D02*
G75*
G03*
X125510000Y57160000I-400000J0D01*
G01*
X125510000Y54160000D02*
G75*
G03*
X126310000Y54160000I400000J0D01*
G01*
X129110000Y57160000D02*
G75*
G03*
X128310000Y57160000I-400000J0D01*
G01*
X128310000Y54160000D02*
G75*
G03*
X129110000Y54160000I400000J0D01*
G01*
D13*
%TO.C,D11*%
X114820000Y18570000D02*
X114820000Y14670000D01*
X116820000Y18570000D02*
X116820000Y14670000D01*
X114820000Y18570000D02*
X116820000Y18570000D01*
%TO.C,D17*%
X35110000Y92410000D02*
X35610000Y92410000D01*
X35610000Y92410000D02*
X35110000Y91910000D01*
X35110000Y91910000D02*
X35110000Y92410000D01*
D14*
X33060000Y92260000D02*
X31060000Y92260000D01*
X33860000Y95260000D02*
X33860000Y92260000D01*
X30260000Y92260000D02*
X30260000Y95260000D01*
X31060000Y95260000D02*
X33060000Y95260000D01*
D15*
X31060000Y95260000D02*
G75*
G03*
X30260000Y95260000I-400000J0D01*
G01*
X33860000Y95260000D02*
G75*
G03*
X33060000Y95260000I-400000J0D01*
G01*
X30260000Y92260000D02*
G75*
G03*
X31060000Y92260000I400000J0D01*
G01*
X33060000Y92260000D02*
G75*
G03*
X33860000Y92260000I400000J0D01*
G01*
D13*
%TO.C,R4*%
X54765000Y81927064D02*
X54765000Y81472936D01*
X56235000Y81927064D02*
X56235000Y81472936D01*
%TO.C,D14*%
X40620000Y78570000D02*
X38620000Y78570000D01*
X40620000Y78570000D02*
X40620000Y82470000D01*
X38620000Y78570000D02*
X38620000Y82470000D01*
%TO.C,D9*%
X78720000Y18570000D02*
X78720000Y14670000D01*
X76720000Y18570000D02*
X76720000Y14670000D01*
X76720000Y18570000D02*
X78720000Y18570000D01*
%TO.C,C9*%
X69898748Y41545000D02*
X70421252Y41545000D01*
X69898748Y40075000D02*
X70421252Y40075000D01*
%TO.C,D10*%
X97770000Y18570000D02*
X97770000Y14670000D01*
X95770000Y18570000D02*
X95770000Y14670000D01*
X95770000Y18570000D02*
X97770000Y18570000D01*
%TO.C,C13*%
X70421252Y22495000D02*
X69898748Y22495000D01*
X70421252Y21025000D02*
X69898748Y21025000D01*
%TO.C,D12*%
X133870000Y18570000D02*
X135870000Y18570000D01*
X133870000Y18570000D02*
X133870000Y14670000D01*
X135870000Y18570000D02*
X135870000Y14670000D01*
%TO.C,JP1*%
X111042500Y99700000D02*
X111042500Y95600000D01*
X113042500Y95600000D02*
X113042500Y99700000D01*
X111042500Y95600000D02*
X113042500Y95600000D01*
X110542500Y96050000D02*
X110542500Y96650000D01*
X110842500Y96350000D02*
X110542500Y96650000D01*
X113042500Y99700000D02*
X111042500Y99700000D01*
X110842500Y96350000D02*
X110542500Y96050000D01*
%TO.C,D13*%
X19570000Y78570000D02*
X19570000Y82470000D01*
X21570000Y78570000D02*
X19570000Y78570000D01*
X21570000Y78570000D02*
X21570000Y82470000D01*
%TO.C,D19*%
X9460000Y76060000D02*
X9960000Y76560000D01*
X9960000Y76060000D02*
X9460000Y76060000D01*
X9960000Y76560000D02*
X9960000Y76060000D01*
D14*
X11210000Y73210000D02*
X11210000Y76210000D01*
X14810000Y76210000D02*
X14810000Y73210000D01*
X14010000Y73210000D02*
X12010000Y73210000D01*
X12010000Y76210000D02*
X14010000Y76210000D01*
D15*
X11210000Y73210000D02*
G75*
G03*
X12010000Y73210000I400000J0D01*
G01*
X12010000Y76210000D02*
G75*
G03*
X11210000Y76210000I-400000J0D01*
G01*
X14810000Y76210000D02*
G75*
G03*
X14010000Y76210000I-400000J0D01*
G01*
X14010000Y73210000D02*
G75*
G03*
X14810000Y73210000I400000J0D01*
G01*
D13*
%TO.C,D7*%
X114820000Y37620000D02*
X114820000Y33720000D01*
X116820000Y37620000D02*
X116820000Y33720000D01*
X114820000Y37620000D02*
X116820000Y37620000D01*
%TO.C,R3*%
X53235000Y81472936D02*
X53235000Y81927064D01*
X51765000Y81472936D02*
X51765000Y81927064D01*
%TO.C,D20*%
X28510000Y76060000D02*
X29010000Y76560000D01*
X29010000Y76560000D02*
X29010000Y76060000D01*
X29010000Y76060000D02*
X28510000Y76060000D01*
D14*
X31060000Y76210000D02*
X33060000Y76210000D01*
X33060000Y73210000D02*
X31060000Y73210000D01*
X30260000Y73210000D02*
X30260000Y76210000D01*
X33860000Y76210000D02*
X33860000Y73210000D01*
D15*
X33860000Y76210000D02*
G75*
G03*
X33060000Y76210000I-400000J0D01*
G01*
X30260000Y73210000D02*
G75*
G03*
X31060000Y73210000I400000J0D01*
G01*
X31060000Y76210000D02*
G75*
G03*
X30260000Y76210000I-400000J0D01*
G01*
X33060000Y73210000D02*
G75*
G03*
X33860000Y73210000I400000J0D01*
G01*
D13*
%TO.C,C3*%
X13271252Y78175000D02*
X12748748Y78175000D01*
X13271252Y79645000D02*
X12748748Y79645000D01*
%TO.C,D6*%
X97770000Y37620000D02*
X97770000Y33720000D01*
X95770000Y37620000D02*
X97770000Y37620000D01*
X95770000Y37620000D02*
X95770000Y33720000D01*
%TO.C,C11*%
X107998748Y40075000D02*
X108521252Y40075000D01*
X107998748Y41545000D02*
X108521252Y41545000D01*
%TO.C,D31*%
X105210000Y19410000D02*
X105210000Y18910000D01*
X105210000Y18910000D02*
X104710000Y18910000D01*
X104710000Y18910000D02*
X105210000Y19410000D01*
D14*
X109260000Y16060000D02*
X107260000Y16060000D01*
X107260000Y19060000D02*
X109260000Y19060000D01*
X106460000Y16060000D02*
X106460000Y19060000D01*
X110060000Y19060000D02*
X110060000Y16060000D01*
D15*
X109260000Y16060000D02*
G75*
G03*
X110060000Y16060000I400000J0D01*
G01*
X106460000Y16060000D02*
G75*
G03*
X107260000Y16060000I400000J0D01*
G01*
X110060000Y19060000D02*
G75*
G03*
X109260000Y19060000I-400000J0D01*
G01*
X107260000Y19060000D02*
G75*
G03*
X106460000Y19060000I-400000J0D01*
G01*
D13*
%TO.C,D15*%
X21570000Y59520000D02*
X21570000Y63420000D01*
X19570000Y59520000D02*
X19570000Y63420000D01*
X21570000Y59520000D02*
X19570000Y59520000D01*
%TO.C,C15*%
X108521252Y21025000D02*
X107998748Y21025000D01*
X108521252Y22495000D02*
X107998748Y22495000D01*
%TO.C,C7*%
X108521252Y59125000D02*
X107998748Y59125000D01*
X108521252Y60595000D02*
X107998748Y60595000D01*
%TO.C,C2*%
X12748748Y98695000D02*
X13271252Y98695000D01*
X12748748Y97225000D02*
X13271252Y97225000D01*
%TO.C,D21*%
X66610000Y57010000D02*
X67110000Y57510000D01*
X67110000Y57010000D02*
X66610000Y57010000D01*
X67110000Y57510000D02*
X67110000Y57010000D01*
D14*
X69160000Y57160000D02*
X71160000Y57160000D01*
X71960000Y57160000D02*
X71960000Y54160000D01*
X68360000Y54160000D02*
X68360000Y57160000D01*
X71160000Y54160000D02*
X69160000Y54160000D01*
D15*
X68360000Y54160000D02*
G75*
G03*
X69160000Y54160000I400000J0D01*
G01*
X71960000Y57160000D02*
G75*
G03*
X71160000Y57160000I-400000J0D01*
G01*
X71160000Y54160000D02*
G75*
G03*
X71960000Y54160000I400000J0D01*
G01*
X69160000Y57160000D02*
G75*
G03*
X68360000Y57160000I-400000J0D01*
G01*
D13*
%TO.C,D29*%
X66610000Y18910000D02*
X67110000Y19410000D01*
X67110000Y19410000D02*
X67110000Y18910000D01*
X67110000Y18910000D02*
X66610000Y18910000D01*
D14*
X68360000Y16060000D02*
X68360000Y19060000D01*
X69160000Y19060000D02*
X71160000Y19060000D01*
X71160000Y16060000D02*
X69160000Y16060000D01*
X71960000Y19060000D02*
X71960000Y16060000D01*
D15*
X71160000Y16060000D02*
G75*
G03*
X71960000Y16060000I400000J0D01*
G01*
X68360000Y16060000D02*
G75*
G03*
X69160000Y16060000I400000J0D01*
G01*
X69160000Y19060000D02*
G75*
G03*
X68360000Y19060000I-400000J0D01*
G01*
X71960000Y19060000D02*
G75*
G03*
X71160000Y19060000I-400000J0D01*
G01*
D13*
%TO.C,R5*%
X43977064Y95235000D02*
X43522936Y95235000D01*
X43977064Y93765000D02*
X43522936Y93765000D01*
%TO.C,D2*%
X95770000Y56670000D02*
X95770000Y52770000D01*
X97770000Y56670000D02*
X97770000Y52770000D01*
X95770000Y56670000D02*
X97770000Y56670000D01*
%TO.C,D4*%
X133870000Y56670000D02*
X133870000Y52770000D01*
X133870000Y56670000D02*
X135870000Y56670000D01*
X135870000Y56670000D02*
X135870000Y52770000D01*
%TO.C,D1*%
X78720000Y56670000D02*
X78720000Y52770000D01*
X76720000Y56670000D02*
X76720000Y52770000D01*
X76720000Y56670000D02*
X78720000Y56670000D01*
%TO.C,D8*%
X133870000Y37620000D02*
X135870000Y37620000D01*
X133870000Y37620000D02*
X133870000Y33720000D01*
X135870000Y37620000D02*
X135870000Y33720000D01*
%TO.C,D16*%
X40620000Y59520000D02*
X40620000Y63420000D01*
X38620000Y59520000D02*
X38620000Y63420000D01*
X40620000Y59520000D02*
X38620000Y59520000D01*
%TO.C,D26*%
X111310000Y35260000D02*
X111810000Y35260000D01*
X111310000Y34760000D02*
X111310000Y35260000D01*
X111810000Y35260000D02*
X111310000Y34760000D01*
D14*
X109260000Y35110000D02*
X107260000Y35110000D01*
X110060000Y38110000D02*
X110060000Y35110000D01*
X107260000Y38110000D02*
X109260000Y38110000D01*
X106460000Y35110000D02*
X106460000Y38110000D01*
D15*
X106460000Y35110000D02*
G75*
G03*
X107260000Y35110000I400000J0D01*
G01*
X110060000Y38110000D02*
G75*
G03*
X109260000Y38110000I-400000J0D01*
G01*
X107260000Y38110000D02*
G75*
G03*
X106460000Y38110000I-400000J0D01*
G01*
X109260000Y35110000D02*
G75*
G03*
X110060000Y35110000I400000J0D01*
G01*
%TD*%
M02*
