M48
INCH,TZ
T1C0.0670
T2C0.1181
T3C0.1575
%
G90
G05
T1
X3122Y35122
X3122Y27622
X7122Y35122
X7122Y27622
X10622Y35122
X10622Y27622
X14622Y35122
X14622Y27622
X25622Y20122
X25622Y12622
X25622Y5122
X29622Y20122
X29622Y12622
X29622Y5122
X33122Y20122
X33122Y12622
X33122Y5122
X37122Y20122
X37122Y12622
X37122Y5122
X40622Y20122
X40622Y12622
X40622Y5122
X44622Y20122
X44622Y12622
X44622Y5122
X48122Y20122
X48122Y12622
X48122Y5122
X52122Y20122
X52122Y12622
X52122Y5122
T2
X4122Y33122
X4122Y25622
X6622Y34122
X6622Y26622
X11622Y33122
X11622Y25622
X14122Y34122
X14122Y26622
X26622Y18122
X26622Y10622
X26622Y3122
X29122Y19122
X29122Y11622
X29122Y4122
X34122Y18122
X34122Y10622
X34122Y3122
X36622Y19122
X36622Y11622
X36622Y4122
X41622Y18122
X41622Y10622
X41622Y3122
X44122Y19122
X44122Y11622
X44122Y4122
X49122Y18122
X49122Y10622
X49122Y3122
X51622Y19122
X51622Y11622
X51622Y4122
T3
X5122Y35122
X5122Y27622
X12622Y35122
X12622Y27622
X27622Y20122
X27622Y12622
X27622Y5122
X35122Y20122
X35122Y12622
X35122Y5122
X42622Y20122
X42622Y12622
X42622Y5122
X50122Y20122
X50122Y12622
X50122Y5122
T0
M30
