%TF.GenerationSoftware,KiCad,Pcbnew,(6.0.8)*%
%TF.CreationDate,2022-10-26T23:50:22+02:00*%
%TF.ProjectId,KeypadV2,4b657970-6164-4563-922e-6b696361645f,rev?*%
%TF.SameCoordinates,Original*%
%TF.FileFunction,Copper,L2,Bot*%
%TF.FilePolarity,Positive*%
%FSLAX46Y46*%
G04 Gerber Fmt 4.6, Leading zero omitted, Abs format (unit mm)*
G04 Created by KiCad (PCBNEW (6.0.8)) date 2022-10-26 23:50:22*
%MOMM*%
%LPD*%
G01*
G04 APERTURE LIST*
G04 Aperture macros list*
%AMRoundRect*
0 Rectangle with rounded corners*
0 $1 Rounding radius*
0 $2 $3 $4 $5 $6 $7 $8 $9 X,Y pos of 4 corners*
0 Add a 4 corners polygon primitive as box body*
4,1,4,$2,$3,$4,$5,$6,$7,$8,$9,$2,$3,0*
0 Add four circle primitives for the rounded corners*
1,1,$1+$1,$2,$3*
1,1,$1+$1,$4,$5*
1,1,$1+$1,$6,$7*
1,1,$1+$1,$8,$9*
0 Add four rect primitives between the rounded corners*
20,1,$1+$1,$2,$3,$4,$5,0*
20,1,$1+$1,$4,$5,$6,$7,0*
20,1,$1+$1,$6,$7,$8,$9,0*
20,1,$1+$1,$8,$9,$2,$3,0*%
G04 Aperture macros list end*
%TA.AperFunction,Profile*%
%ADD10C,0.100000*%
%TD*%
%TA.AperFunction,Profile*%
%ADD11C,0.000100*%
%TD*%
%TA.AperFunction,Profile*%
%ADD12C,0.000025*%
%TD*%
%TA.AperFunction,ComponentPad*%
%ADD13R,1.700000X1.700000*%
%TD*%
%TA.AperFunction,ComponentPad*%
%ADD14O,1.700000X1.700000*%
%TD*%
%TA.AperFunction,SMDPad,CuDef*%
%ADD15R,2.550000X2.500000*%
%TD*%
%TA.AperFunction,SMDPad,CuDef*%
%ADD16R,1.200000X0.900000*%
%TD*%
%TA.AperFunction,SMDPad,CuDef*%
%ADD17R,1.800000X0.820000*%
%TD*%
%TA.AperFunction,SMDPad,CuDef*%
%ADD18RoundRect,0.250000X-0.337500X-0.475000X0.337500X-0.475000X0.337500X0.475000X-0.337500X0.475000X0*%
%TD*%
%TA.AperFunction,SMDPad,CuDef*%
%ADD19RoundRect,0.250000X0.337500X0.475000X-0.337500X0.475000X-0.337500X-0.475000X0.337500X-0.475000X0*%
%TD*%
%TA.AperFunction,SMDPad,CuDef*%
%ADD20RoundRect,0.250000X0.350000X0.450000X-0.350000X0.450000X-0.350000X-0.450000X0.350000X-0.450000X0*%
%TD*%
%TA.AperFunction,SMDPad,CuDef*%
%ADD21RoundRect,0.370000X0.370000X-0.630000X0.370000X0.630000X-0.370000X0.630000X-0.370000X-0.630000X0*%
%TD*%
%TA.AperFunction,SMDPad,CuDef*%
%ADD22RoundRect,0.355600X0.355600X-0.644400X0.355600X0.644400X-0.355600X0.644400X-0.355600X-0.644400X0*%
%TD*%
%TA.AperFunction,SMDPad,CuDef*%
%ADD23RoundRect,0.250000X-0.450000X0.350000X-0.450000X-0.350000X0.450000X-0.350000X0.450000X0.350000X0*%
%TD*%
%TA.AperFunction,SMDPad,CuDef*%
%ADD24R,1.500000X1.000000*%
%TD*%
%TA.AperFunction,SMDPad,CuDef*%
%ADD25RoundRect,0.250000X0.450000X-0.350000X0.450000X0.350000X-0.450000X0.350000X-0.450000X-0.350000X0*%
%TD*%
%TA.AperFunction,ViaPad*%
%ADD26C,0.800000*%
%TD*%
%TA.AperFunction,Conductor*%
%ADD27C,0.250000*%
%TD*%
%TA.AperFunction,Conductor*%
%ADD28C,0.400000*%
%TD*%
G04 APERTURE END LIST*
D10*
X140850000Y51100000D02*
G75*
G03*
X140850000Y51100000I-1550000J0D01*
G01*
X2550000Y51100000D02*
G75*
G03*
X2550000Y51100000I-1550000J0D01*
G01*
X71700000Y1000000D02*
G75*
G03*
X71700000Y1000000I-1550000J0D01*
G01*
X71700000Y101200000D02*
G75*
G03*
X71700000Y101200000I-1550000J0D01*
G01*
X2550000Y1000000D02*
G75*
G03*
X2550000Y1000000I-1550000J0D01*
G01*
X140850000Y1000000D02*
G75*
G03*
X140850000Y1000000I-1550000J0D01*
G01*
X140850000Y101200000D02*
G75*
G03*
X140850000Y101200000I-1550000J0D01*
G01*
X2550000Y101200000D02*
G75*
G03*
X2550000Y101200000I-1550000J0D01*
G01*
X144300000Y-1000000D02*
X144300000Y103200000D01*
X-1000000Y-4000000D02*
X141300000Y-4000000D01*
X-4000000Y103200000D02*
X-4000000Y-1000000D01*
X-1000000Y106200000D02*
X141300000Y106200000D01*
X-1000000Y106200000D02*
G75*
G03*
X-4000000Y103200000I0J-3000000D01*
G01*
X-4000000Y-1000000D02*
G75*
G03*
X-1000000Y-4000000I3000000J0D01*
G01*
X141300000Y-4000000D02*
G75*
G03*
X144300000Y-1000000I0J3000000D01*
G01*
X144300000Y103200000D02*
G75*
G03*
X141300000Y106200000I-3000000J0D01*
G01*
X31250000Y32050000D02*
G75*
G03*
X31250000Y32050000I-10000000J0D01*
G01*
D11*
%TO.C,D27*%
X91010000Y38110000D02*
X91010000Y35110000D01*
X87410000Y35110000D02*
X87410000Y38110000D01*
X88210000Y38110000D02*
X90210000Y38110000D01*
X90210000Y35110000D02*
X88210000Y35110000D01*
D12*
X87410000Y35110000D02*
G75*
G03*
X88210000Y35110000I400000J0D01*
G01*
X88210000Y38110000D02*
G75*
G03*
X87410000Y38110000I-400000J0D01*
G01*
X90210000Y35110000D02*
G75*
G03*
X91010000Y35110000I400000J0D01*
G01*
X91010000Y38110000D02*
G75*
G03*
X90210000Y38110000I-400000J0D01*
G01*
D11*
%TO.C,D25*%
X128310000Y35110000D02*
X126310000Y35110000D01*
X129110000Y38110000D02*
X129110000Y35110000D01*
X126310000Y38110000D02*
X128310000Y38110000D01*
X125510000Y35110000D02*
X125510000Y38110000D01*
D12*
X129110000Y38110000D02*
G75*
G03*
X128310000Y38110000I-400000J0D01*
G01*
X126310000Y38110000D02*
G75*
G03*
X125510000Y38110000I-400000J0D01*
G01*
X125510000Y35110000D02*
G75*
G03*
X126310000Y35110000I400000J0D01*
G01*
X128310000Y35110000D02*
G75*
G03*
X129110000Y35110000I400000J0D01*
G01*
D11*
%TO.C,D32*%
X126310000Y19060000D02*
X128310000Y19060000D01*
X128310000Y16060000D02*
X126310000Y16060000D01*
X129110000Y19060000D02*
X129110000Y16060000D01*
X125510000Y16060000D02*
X125510000Y19060000D01*
D12*
X128310000Y16060000D02*
G75*
G03*
X129110000Y16060000I400000J0D01*
G01*
X126310000Y19060000D02*
G75*
G03*
X125510000Y19060000I-400000J0D01*
G01*
X125510000Y16060000D02*
G75*
G03*
X126310000Y16060000I400000J0D01*
G01*
X129110000Y19060000D02*
G75*
G03*
X128310000Y19060000I-400000J0D01*
G01*
D11*
%TO.C,D30*%
X88210000Y19060000D02*
X90210000Y19060000D01*
X90210000Y16060000D02*
X88210000Y16060000D01*
X87410000Y16060000D02*
X87410000Y19060000D01*
X91010000Y19060000D02*
X91010000Y16060000D01*
D12*
X87410000Y16060000D02*
G75*
G03*
X88210000Y16060000I400000J0D01*
G01*
X90210000Y16060000D02*
G75*
G03*
X91010000Y16060000I400000J0D01*
G01*
X91010000Y19060000D02*
G75*
G03*
X90210000Y19060000I-400000J0D01*
G01*
X88210000Y19060000D02*
G75*
G03*
X87410000Y19060000I-400000J0D01*
G01*
D11*
%TO.C,D18*%
X14010000Y92260000D02*
X12010000Y92260000D01*
X14810000Y95260000D02*
X14810000Y92260000D01*
X12010000Y95260000D02*
X14010000Y95260000D01*
X11210000Y92260000D02*
X11210000Y95260000D01*
D12*
X14010000Y92260000D02*
G75*
G03*
X14810000Y92260000I400000J0D01*
G01*
X11210000Y92260000D02*
G75*
G03*
X12010000Y92260000I400000J0D01*
G01*
X14810000Y95260000D02*
G75*
G03*
X14010000Y95260000I-400000J0D01*
G01*
X12010000Y95260000D02*
G75*
G03*
X11210000Y95260000I-400000J0D01*
G01*
D11*
%TO.C,D22*%
X87410000Y54160000D02*
X87410000Y57160000D01*
X91010000Y57160000D02*
X91010000Y54160000D01*
X88210000Y57160000D02*
X90210000Y57160000D01*
X90210000Y54160000D02*
X88210000Y54160000D01*
D12*
X87410000Y54160000D02*
G75*
G03*
X88210000Y54160000I400000J0D01*
G01*
X91010000Y57160000D02*
G75*
G03*
X90210000Y57160000I-400000J0D01*
G01*
X90210000Y54160000D02*
G75*
G03*
X91010000Y54160000I400000J0D01*
G01*
X88210000Y57160000D02*
G75*
G03*
X87410000Y57160000I-400000J0D01*
G01*
D11*
%TO.C,D23*%
X106460000Y54160000D02*
X106460000Y57160000D01*
X107260000Y57160000D02*
X109260000Y57160000D01*
X109260000Y54160000D02*
X107260000Y54160000D01*
X110060000Y57160000D02*
X110060000Y54160000D01*
D12*
X106460000Y54160000D02*
G75*
G03*
X107260000Y54160000I400000J0D01*
G01*
X107260000Y57160000D02*
G75*
G03*
X106460000Y57160000I-400000J0D01*
G01*
X110060000Y57160000D02*
G75*
G03*
X109260000Y57160000I-400000J0D01*
G01*
X109260000Y54160000D02*
G75*
G03*
X110060000Y54160000I400000J0D01*
G01*
D11*
%TO.C,D28*%
X71160000Y35110000D02*
X69160000Y35110000D01*
X69160000Y38110000D02*
X71160000Y38110000D01*
X71960000Y38110000D02*
X71960000Y35110000D01*
X68360000Y35110000D02*
X68360000Y38110000D01*
D12*
X68360000Y35110000D02*
G75*
G03*
X69160000Y35110000I400000J0D01*
G01*
X71960000Y38110000D02*
G75*
G03*
X71160000Y38110000I-400000J0D01*
G01*
X69160000Y38110000D02*
G75*
G03*
X68360000Y38110000I-400000J0D01*
G01*
X71160000Y35110000D02*
G75*
G03*
X71960000Y35110000I400000J0D01*
G01*
D11*
%TO.C,D24*%
X128310000Y54160000D02*
X126310000Y54160000D01*
X129110000Y57160000D02*
X129110000Y54160000D01*
X125510000Y54160000D02*
X125510000Y57160000D01*
X126310000Y57160000D02*
X128310000Y57160000D01*
D12*
X126310000Y57160000D02*
G75*
G03*
X125510000Y57160000I-400000J0D01*
G01*
X125510000Y54160000D02*
G75*
G03*
X126310000Y54160000I400000J0D01*
G01*
X129110000Y57160000D02*
G75*
G03*
X128310000Y57160000I-400000J0D01*
G01*
X128310000Y54160000D02*
G75*
G03*
X129110000Y54160000I400000J0D01*
G01*
D11*
%TO.C,D17*%
X33060000Y92260000D02*
X31060000Y92260000D01*
X33860000Y95260000D02*
X33860000Y92260000D01*
X30260000Y92260000D02*
X30260000Y95260000D01*
X31060000Y95260000D02*
X33060000Y95260000D01*
D12*
X31060000Y95260000D02*
G75*
G03*
X30260000Y95260000I-400000J0D01*
G01*
X33860000Y95260000D02*
G75*
G03*
X33060000Y95260000I-400000J0D01*
G01*
X30260000Y92260000D02*
G75*
G03*
X31060000Y92260000I400000J0D01*
G01*
X33060000Y92260000D02*
G75*
G03*
X33860000Y92260000I400000J0D01*
G01*
D11*
%TO.C,D19*%
X11210000Y73210000D02*
X11210000Y76210000D01*
X14810000Y76210000D02*
X14810000Y73210000D01*
X14010000Y73210000D02*
X12010000Y73210000D01*
X12010000Y76210000D02*
X14010000Y76210000D01*
D12*
X11210000Y73210000D02*
G75*
G03*
X12010000Y73210000I400000J0D01*
G01*
X12010000Y76210000D02*
G75*
G03*
X11210000Y76210000I-400000J0D01*
G01*
X14810000Y76210000D02*
G75*
G03*
X14010000Y76210000I-400000J0D01*
G01*
X14010000Y73210000D02*
G75*
G03*
X14810000Y73210000I400000J0D01*
G01*
D11*
%TO.C,D20*%
X31060000Y76210000D02*
X33060000Y76210000D01*
X33060000Y73210000D02*
X31060000Y73210000D01*
X30260000Y73210000D02*
X30260000Y76210000D01*
X33860000Y76210000D02*
X33860000Y73210000D01*
D12*
X33860000Y76210000D02*
G75*
G03*
X33060000Y76210000I-400000J0D01*
G01*
X30260000Y73210000D02*
G75*
G03*
X31060000Y73210000I400000J0D01*
G01*
X31060000Y76210000D02*
G75*
G03*
X30260000Y76210000I-400000J0D01*
G01*
X33060000Y73210000D02*
G75*
G03*
X33860000Y73210000I400000J0D01*
G01*
D11*
%TO.C,D31*%
X109260000Y16060000D02*
X107260000Y16060000D01*
X107260000Y19060000D02*
X109260000Y19060000D01*
X106460000Y16060000D02*
X106460000Y19060000D01*
X110060000Y19060000D02*
X110060000Y16060000D01*
D12*
X109260000Y16060000D02*
G75*
G03*
X110060000Y16060000I400000J0D01*
G01*
X106460000Y16060000D02*
G75*
G03*
X107260000Y16060000I400000J0D01*
G01*
X110060000Y19060000D02*
G75*
G03*
X109260000Y19060000I-400000J0D01*
G01*
X107260000Y19060000D02*
G75*
G03*
X106460000Y19060000I-400000J0D01*
G01*
D11*
%TO.C,D21*%
X69160000Y57160000D02*
X71160000Y57160000D01*
X71960000Y57160000D02*
X71960000Y54160000D01*
X68360000Y54160000D02*
X68360000Y57160000D01*
X71160000Y54160000D02*
X69160000Y54160000D01*
D12*
X68360000Y54160000D02*
G75*
G03*
X69160000Y54160000I400000J0D01*
G01*
X71960000Y57160000D02*
G75*
G03*
X71160000Y57160000I-400000J0D01*
G01*
X71160000Y54160000D02*
G75*
G03*
X71960000Y54160000I400000J0D01*
G01*
X69160000Y57160000D02*
G75*
G03*
X68360000Y57160000I-400000J0D01*
G01*
D11*
%TO.C,D29*%
X68360000Y16060000D02*
X68360000Y19060000D01*
X69160000Y19060000D02*
X71160000Y19060000D01*
X71160000Y16060000D02*
X69160000Y16060000D01*
X71960000Y19060000D02*
X71960000Y16060000D01*
D12*
X71160000Y16060000D02*
G75*
G03*
X71960000Y16060000I400000J0D01*
G01*
X68360000Y16060000D02*
G75*
G03*
X69160000Y16060000I400000J0D01*
G01*
X69160000Y19060000D02*
G75*
G03*
X68360000Y19060000I-400000J0D01*
G01*
X71960000Y19060000D02*
G75*
G03*
X71160000Y19060000I-400000J0D01*
G01*
D11*
%TO.C,D26*%
X109260000Y35110000D02*
X107260000Y35110000D01*
X110060000Y38110000D02*
X110060000Y35110000D01*
X107260000Y38110000D02*
X109260000Y38110000D01*
X106460000Y35110000D02*
X106460000Y38110000D01*
D12*
X106460000Y35110000D02*
G75*
G03*
X107260000Y35110000I400000J0D01*
G01*
X110060000Y38110000D02*
G75*
G03*
X109260000Y38110000I-400000J0D01*
G01*
X107260000Y38110000D02*
G75*
G03*
X106460000Y38110000I-400000J0D01*
G01*
X109260000Y35110000D02*
G75*
G03*
X110060000Y35110000I400000J0D01*
G01*
%TD*%
D13*
%TO.P,SW1,1,A*%
%TO.N,Net-(J2-Pad1)*%
X91875000Y100000000D03*
D14*
%TO.P,SW1,2,B*%
%TO.N,Net-(J1-Pad1)*%
X89335000Y100000000D03*
%TO.P,SW1,3,C*%
%TO.N,unconnected-(SW1-Pad3)*%
X86795000Y100000000D03*
%TD*%
D15*
%TO.P,SW12,1,1*%
%TO.N,/R_3*%
X101970000Y7930000D03*
%TO.P,SW12,2,2*%
%TO.N,Net-(D11-Pad2)*%
X115820000Y10470000D03*
%TD*%
%TO.P,SW16,1,1*%
%TO.N,/R_4*%
X6720000Y65080000D03*
%TO.P,SW16,2,2*%
%TO.N,Net-(D15-Pad2)*%
X20570000Y67620000D03*
%TD*%
%TO.P,SW4,1,1*%
%TO.N,/R_1*%
X101970000Y46030000D03*
%TO.P,SW4,2,2*%
%TO.N,Net-(D3-Pad2)*%
X115820000Y48570000D03*
%TD*%
%TO.P,SW10,1,1*%
%TO.N,/R_3*%
X63870000Y7930000D03*
%TO.P,SW10,2,2*%
%TO.N,Net-(D9-Pad2)*%
X77720000Y10470000D03*
%TD*%
%TO.P,SW3,1,1*%
%TO.N,/R_1*%
X82920000Y46030000D03*
%TO.P,SW3,2,2*%
%TO.N,Net-(D2-Pad2)*%
X96770000Y48570000D03*
%TD*%
D13*
%TO.P,U2,1,3V3*%
%TO.N,+3.3V*%
X40750000Y28225000D03*
D14*
%TO.P,U2,2,GND*%
%TO.N,GND*%
X40750000Y30765000D03*
%TO.P,U2,3,SDA*%
%TO.N,/T_SDA*%
X40750000Y33305000D03*
%TO.P,U2,4,SCL*%
%TO.N,/T_SCL*%
X40750000Y35845000D03*
%TO.P,U2,5,DR*%
%TO.N,/T_DR*%
X40750000Y38385000D03*
%TD*%
D15*
%TO.P,SW11,1,1*%
%TO.N,/R_3*%
X82920000Y7930000D03*
%TO.P,SW11,2,2*%
%TO.N,Net-(D10-Pad2)*%
X96770000Y10470000D03*
%TD*%
%TO.P,SW5,1,1*%
%TO.N,/R_1*%
X121020000Y46030000D03*
%TO.P,SW5,2,2*%
%TO.N,Net-(D4-Pad2)*%
X134870000Y48570000D03*
%TD*%
%TO.P,SW14,1,1*%
%TO.N,/R_4*%
X6720000Y84130000D03*
%TO.P,SW14,2,2*%
%TO.N,Net-(D13-Pad2)*%
X20570000Y86670000D03*
%TD*%
%TO.P,SW15,1,1*%
%TO.N,/R_4*%
X25770000Y84130000D03*
%TO.P,SW15,2,2*%
%TO.N,Net-(D14-Pad2)*%
X39620000Y86670000D03*
%TD*%
D13*
%TO.P,U1,1,Vcc*%
%TO.N,+3.3V*%
X59400000Y73600000D03*
D14*
%TO.P,U1,2,GND*%
%TO.N,GND*%
X59400000Y76140000D03*
%TO.P,U1,3,DIN*%
%TO.N,/E_MOSI*%
X59400000Y78680000D03*
%TO.P,U1,4,CLK*%
%TO.N,/E_SCK*%
X59400000Y81220000D03*
%TO.P,U1,5,CS*%
%TO.N,/E_CS*%
X59400000Y83760000D03*
%TO.P,U1,6,DC*%
%TO.N,/E_DC*%
X59400000Y86300000D03*
%TO.P,U1,7,RST*%
%TO.N,/E_RST*%
X59400000Y88840000D03*
%TO.P,U1,8,BUSY*%
%TO.N,/E_BUSY*%
X59400000Y91380000D03*
%TD*%
D13*
%TO.P,J2,1,Pin_1*%
%TO.N,Net-(J2-Pad1)*%
X82050000Y89850000D03*
%TD*%
D15*
%TO.P,SW9,1,1*%
%TO.N,/R_2*%
X121020000Y26980000D03*
%TO.P,SW9,2,2*%
%TO.N,Net-(D8-Pad2)*%
X134870000Y29520000D03*
%TD*%
%TO.P,SW8,1,1*%
%TO.N,/R_2*%
X101970000Y26980000D03*
%TO.P,SW8,2,2*%
%TO.N,Net-(D7-Pad2)*%
X115820000Y29520000D03*
%TD*%
%TO.P,SW13,1,1*%
%TO.N,/R_3*%
X121020000Y7930000D03*
%TO.P,SW13,2,2*%
%TO.N,Net-(D12-Pad2)*%
X134870000Y10470000D03*
%TD*%
D13*
%TO.P,J1,1,Pin_1*%
%TO.N,Net-(J1-Pad1)*%
X76150000Y89850000D03*
%TD*%
D15*
%TO.P,SW6,1,1*%
%TO.N,/R_2*%
X63870000Y26980000D03*
%TO.P,SW6,2,2*%
%TO.N,Net-(D5-Pad2)*%
X77720000Y29520000D03*
%TD*%
%TO.P,SW2,1,1*%
%TO.N,/R_1*%
X63870000Y46030000D03*
%TO.P,SW2,2,2*%
%TO.N,Net-(D1-Pad2)*%
X77720000Y48570000D03*
%TD*%
%TO.P,SW7,1,1*%
%TO.N,/R_2*%
X82920000Y26980000D03*
%TO.P,SW7,2,2*%
%TO.N,Net-(D6-Pad2)*%
X96770000Y29520000D03*
%TD*%
%TO.P,SW17,1,1*%
%TO.N,/R_4*%
X25770000Y65080000D03*
%TO.P,SW17,2,2*%
%TO.N,Net-(D16-Pad2)*%
X39620000Y67620000D03*
%TD*%
D16*
%TO.P,D5,1,K*%
%TO.N,/C_1*%
X77720000Y37020000D03*
%TO.P,D5,2,A*%
%TO.N,Net-(D5-Pad2)*%
X77720000Y33720000D03*
%TD*%
D17*
%TO.P,D27,1,VSS*%
%TO.N,GND*%
X91910000Y35860000D03*
%TO.P,D27,2,DIN*%
%TO.N,Net-(D26-Pad4)*%
X91910000Y37360000D03*
%TO.P,D27,3,VDD*%
%TO.N,/LED_PWR*%
X86510000Y37360000D03*
%TO.P,D27,4,DOUT*%
%TO.N,Net-(D27-Pad4)*%
X86510000Y35860000D03*
%TD*%
D16*
%TO.P,D3,1,K*%
%TO.N,/C_3*%
X115820000Y56070000D03*
%TO.P,D3,2,A*%
%TO.N,Net-(D3-Pad2)*%
X115820000Y52770000D03*
%TD*%
D18*
%TO.P,C12,1*%
%TO.N,/LED_PWR*%
X126272500Y40810000D03*
%TO.P,C12,2*%
%TO.N,GND*%
X128347500Y40810000D03*
%TD*%
D19*
%TO.P,C6,1*%
%TO.N,/LED_PWR*%
X90247500Y59860000D03*
%TO.P,C6,2*%
%TO.N,GND*%
X88172500Y59860000D03*
%TD*%
D20*
%TO.P,R1,1*%
%TO.N,+3.3V*%
X129350000Y64600000D03*
%TO.P,R1,2*%
%TO.N,/T_SDA*%
X127350000Y64600000D03*
%TD*%
D17*
%TO.P,D25,1,VSS*%
%TO.N,GND*%
X130010000Y35860000D03*
%TO.P,D25,2,DIN*%
%TO.N,Net-(D24-Pad4)*%
X130010000Y37360000D03*
%TO.P,D25,3,VDD*%
%TO.N,/LED_PWR*%
X124610000Y37360000D03*
%TO.P,D25,4,DOUT*%
%TO.N,Net-(D25-Pad4)*%
X124610000Y35860000D03*
%TD*%
%TO.P,D32,1,VSS*%
%TO.N,GND*%
X124610000Y18310000D03*
%TO.P,D32,2,DIN*%
%TO.N,Net-(D31-Pad4)*%
X124610000Y16810000D03*
%TO.P,D32,3,VDD*%
%TO.N,/LED_PWR*%
X130010000Y16810000D03*
%TO.P,D32,4,DOUT*%
%TO.N,unconnected-(D32-Pad4)*%
X130010000Y18310000D03*
%TD*%
D19*
%TO.P,C5,1*%
%TO.N,/LED_PWR*%
X71197500Y59860000D03*
%TO.P,C5,2*%
%TO.N,GND*%
X69122500Y59860000D03*
%TD*%
D17*
%TO.P,D30,1,VSS*%
%TO.N,GND*%
X86510000Y18310000D03*
%TO.P,D30,2,DIN*%
%TO.N,Net-(D29-Pad4)*%
X86510000Y16810000D03*
%TO.P,D30,3,VDD*%
%TO.N,/LED_PWR*%
X91910000Y16810000D03*
%TO.P,D30,4,DOUT*%
%TO.N,Net-(D30-Pad4)*%
X91910000Y18310000D03*
%TD*%
D18*
%TO.P,C10,1*%
%TO.N,/LED_PWR*%
X88172500Y40810000D03*
%TO.P,C10,2*%
%TO.N,GND*%
X90247500Y40810000D03*
%TD*%
D17*
%TO.P,D18,1,VSS*%
%TO.N,GND*%
X15710000Y93010000D03*
%TO.P,D18,2,DIN*%
%TO.N,Net-(D17-Pad4)*%
X15710000Y94510000D03*
%TO.P,D18,3,VDD*%
%TO.N,/LED_PWR*%
X10310000Y94510000D03*
%TO.P,D18,4,DOUT*%
%TO.N,Net-(D18-Pad4)*%
X10310000Y93010000D03*
%TD*%
%TO.P,D22,1,VSS*%
%TO.N,GND*%
X86510000Y56410000D03*
%TO.P,D22,2,DIN*%
%TO.N,Net-(D21-Pad4)*%
X86510000Y54910000D03*
%TO.P,D22,3,VDD*%
%TO.N,/LED_PWR*%
X91910000Y54910000D03*
%TO.P,D22,4,DOUT*%
%TO.N,Net-(D22-Pad4)*%
X91910000Y56410000D03*
%TD*%
D19*
%TO.P,C16,1*%
%TO.N,/LED_PWR*%
X128347500Y21760000D03*
%TO.P,C16,2*%
%TO.N,GND*%
X126272500Y21760000D03*
%TD*%
D17*
%TO.P,D23,1,VSS*%
%TO.N,GND*%
X105560000Y56410000D03*
%TO.P,D23,2,DIN*%
%TO.N,Net-(D22-Pad4)*%
X105560000Y54910000D03*
%TO.P,D23,3,VDD*%
%TO.N,/LED_PWR*%
X110960000Y54910000D03*
%TO.P,D23,4,DOUT*%
%TO.N,Net-(D23-Pad4)*%
X110960000Y56410000D03*
%TD*%
D18*
%TO.P,C1,1*%
%TO.N,/LED_PWR*%
X31022500Y97960000D03*
%TO.P,C1,2*%
%TO.N,GND*%
X33097500Y97960000D03*
%TD*%
D17*
%TO.P,D28,1,VSS*%
%TO.N,GND*%
X72860000Y35860000D03*
%TO.P,D28,2,DIN*%
%TO.N,Net-(D27-Pad4)*%
X72860000Y37360000D03*
%TO.P,D28,3,VDD*%
%TO.N,/LED_PWR*%
X67460000Y37360000D03*
%TO.P,D28,4,DOUT*%
%TO.N,Net-(D28-Pad4)*%
X67460000Y35860000D03*
%TD*%
D19*
%TO.P,C4,1*%
%TO.N,/LED_PWR*%
X33097500Y78910000D03*
%TO.P,C4,2*%
%TO.N,GND*%
X31022500Y78910000D03*
%TD*%
%TO.P,C8,1*%
%TO.N,/LED_PWR*%
X128347500Y59860000D03*
%TO.P,C8,2*%
%TO.N,GND*%
X126272500Y59860000D03*
%TD*%
D20*
%TO.P,R2,1*%
%TO.N,+3.3V*%
X131850000Y66950000D03*
%TO.P,R2,2*%
%TO.N,/T_SCL*%
X129850000Y66950000D03*
%TD*%
D19*
%TO.P,C14,1*%
%TO.N,/LED_PWR*%
X90247500Y21760000D03*
%TO.P,C14,2*%
%TO.N,GND*%
X88172500Y21760000D03*
%TD*%
D17*
%TO.P,D24,1,VSS*%
%TO.N,GND*%
X124610000Y56410000D03*
%TO.P,D24,2,DIN*%
%TO.N,Net-(D23-Pad4)*%
X124610000Y54910000D03*
%TO.P,D24,3,VDD*%
%TO.N,/LED_PWR*%
X130010000Y54910000D03*
%TO.P,D24,4,DOUT*%
%TO.N,Net-(D24-Pad4)*%
X130010000Y56410000D03*
%TD*%
D21*
%TO.P,U3,1,VBAT*%
%TO.N,/VBAT*%
X140024000Y88775000D03*
%TO.P,U3,2,GND*%
%TO.N,GND*%
X137480000Y88775000D03*
%TO.P,U3,3,5V*%
%TO.N,+5V*%
X134944000Y88775000D03*
%TO.P,U3,4,3V3*%
%TO.N,+3.3V*%
X132404000Y88775000D03*
%TO.P,U3,5,IO1*%
%TO.N,/E_CS*%
X129864000Y88775000D03*
%TO.P,U3,6,IO2*%
%TO.N,/E_DC*%
X127324000Y88775000D03*
%TO.P,U3,7,IO3*%
%TO.N,unconnected-(U3-Pad7)*%
X124784000Y88775000D03*
%TO.P,U3,8,IO4*%
%TO.N,/E_RST*%
X122244000Y88775000D03*
%TO.P,U3,9,IO5*%
%TO.N,/E_BUSY*%
X119704000Y88775000D03*
%TO.P,U3,10,IO21*%
%TO.N,unconnected-(U3-Pad10)*%
X117164000Y88775000D03*
%TO.P,U3,11,IO0*%
%TO.N,unconnected-(U3-Pad11)*%
X114624000Y88775000D03*
%TO.P,U3,12,LDO2_OUT*%
%TO.N,/LDO2*%
X112084000Y88775000D03*
D22*
%TO.P,U3,13,IO16*%
%TO.N,unconnected-(U3-Pad13)*%
X109544000Y88775000D03*
%TO.P,U3,14,IO15*%
%TO.N,unconnected-(U3-Pad14)*%
X107004000Y88775000D03*
%TO.P,U3,15,IO14*%
%TO.N,unconnected-(U3-Pad15)*%
X104464000Y88775000D03*
%TO.P,U3,16,IO13*%
%TO.N,/KEY_LED_DATA*%
X101924000Y88775000D03*
%TO.P,U3,17,IO12*%
%TO.N,/R_4*%
X99384000Y88775000D03*
%TO.P,U3,18,IO42*%
%TO.N,/C_1*%
X99376422Y70575000D03*
%TO.P,U3,19,IO41*%
%TO.N,/C_2*%
X101916422Y70575000D03*
%TO.P,U3,20,IO40*%
%TO.N,/R_3*%
X104456422Y70575000D03*
%TO.P,U3,21,IO39*%
%TO.N,/R_2*%
X106996422Y70575000D03*
%TO.P,U3,22,IO38*%
%TO.N,/R_1*%
X109536422Y70575000D03*
D21*
%TO.P,U3,23,RX*%
%TO.N,unconnected-(U3-Pad23)*%
X112076422Y70575000D03*
%TO.P,U3,24,TX*%
%TO.N,unconnected-(U3-Pad24)*%
X114616422Y70575000D03*
%TO.P,U3,25,GND*%
%TO.N,GND*%
X117156422Y70575000D03*
%TO.P,U3,26,RST*%
%TO.N,unconnected-(U3-Pad26)*%
X119696422Y70575000D03*
%TO.P,U3,27,IO6*%
%TO.N,/C_3*%
X122236422Y70575000D03*
%TO.P,U3,28,IO7*%
%TO.N,/T_DR*%
X124776422Y70575000D03*
%TO.P,U3,29,IO8/SDA*%
%TO.N,/T_SDA*%
X127316422Y70575000D03*
%TO.P,U3,30,IO9/SCL*%
%TO.N,/T_SCL*%
X129856422Y70575000D03*
%TO.P,U3,31,IO34*%
%TO.N,/C_4*%
X132396422Y70575000D03*
%TO.P,U3,32,IO36/SCK*%
%TO.N,/E_SCK*%
X134936422Y70575000D03*
%TO.P,U3,33,IO37/MISO*%
%TO.N,unconnected-(U3-Pad33)*%
X137472422Y70575000D03*
%TO.P,U3,34,IO35/MOSI*%
%TO.N,/E_MOSI*%
X140016422Y70575000D03*
%TD*%
D16*
%TO.P,D11,1,K*%
%TO.N,/C_3*%
X115820000Y17970000D03*
%TO.P,D11,2,A*%
%TO.N,Net-(D11-Pad2)*%
X115820000Y14670000D03*
%TD*%
D17*
%TO.P,D17,1,VSS*%
%TO.N,GND*%
X34760000Y93010000D03*
%TO.P,D17,2,DIN*%
%TO.N,Net-(D17-Pad2)*%
X34760000Y94510000D03*
%TO.P,D17,3,VDD*%
%TO.N,/LED_PWR*%
X29360000Y94510000D03*
%TO.P,D17,4,DOUT*%
%TO.N,Net-(D17-Pad4)*%
X29360000Y93010000D03*
%TD*%
D23*
%TO.P,R4,1*%
%TO.N,/E_CS*%
X55500000Y82700000D03*
%TO.P,R4,2*%
%TO.N,GND*%
X55500000Y80700000D03*
%TD*%
D16*
%TO.P,D14,1,K*%
%TO.N,/C_2*%
X39620000Y79170000D03*
%TO.P,D14,2,A*%
%TO.N,Net-(D14-Pad2)*%
X39620000Y82470000D03*
%TD*%
%TO.P,D9,1,K*%
%TO.N,/C_1*%
X77720000Y17970000D03*
%TO.P,D9,2,A*%
%TO.N,Net-(D9-Pad2)*%
X77720000Y14670000D03*
%TD*%
D18*
%TO.P,C9,1*%
%TO.N,/LED_PWR*%
X69122500Y40810000D03*
%TO.P,C9,2*%
%TO.N,GND*%
X71197500Y40810000D03*
%TD*%
D16*
%TO.P,D10,1,K*%
%TO.N,/C_2*%
X96770000Y17970000D03*
%TO.P,D10,2,A*%
%TO.N,Net-(D10-Pad2)*%
X96770000Y14670000D03*
%TD*%
D19*
%TO.P,C13,1*%
%TO.N,/LED_PWR*%
X71197500Y21760000D03*
%TO.P,C13,2*%
%TO.N,GND*%
X69122500Y21760000D03*
%TD*%
D16*
%TO.P,D12,1,K*%
%TO.N,/C_4*%
X134870000Y17970000D03*
%TO.P,D12,2,A*%
%TO.N,Net-(D12-Pad2)*%
X134870000Y14670000D03*
%TD*%
D24*
%TO.P,JP1,1,A*%
%TO.N,/LDO2*%
X112042500Y96350000D03*
%TO.P,JP1,2,C*%
%TO.N,/LED_PWR*%
X112042500Y97650000D03*
%TO.P,JP1,3,B*%
%TO.N,/VBAT*%
X112042500Y98950000D03*
%TD*%
D16*
%TO.P,D13,1,K*%
%TO.N,/C_1*%
X20570000Y79170000D03*
%TO.P,D13,2,A*%
%TO.N,Net-(D13-Pad2)*%
X20570000Y82470000D03*
%TD*%
D17*
%TO.P,D19,1,VSS*%
%TO.N,GND*%
X10310000Y75460000D03*
%TO.P,D19,2,DIN*%
%TO.N,Net-(D18-Pad4)*%
X10310000Y73960000D03*
%TO.P,D19,3,VDD*%
%TO.N,/LED_PWR*%
X15710000Y73960000D03*
%TO.P,D19,4,DOUT*%
%TO.N,Net-(D19-Pad4)*%
X15710000Y75460000D03*
%TD*%
D16*
%TO.P,D7,1,K*%
%TO.N,/C_3*%
X115820000Y37020000D03*
%TO.P,D7,2,A*%
%TO.N,Net-(D7-Pad2)*%
X115820000Y33720000D03*
%TD*%
D25*
%TO.P,R3,1*%
%TO.N,+3.3V*%
X52500000Y80700000D03*
%TO.P,R3,2*%
%TO.N,/E_RST*%
X52500000Y82700000D03*
%TD*%
D17*
%TO.P,D20,1,VSS*%
%TO.N,GND*%
X29360000Y75460000D03*
%TO.P,D20,2,DIN*%
%TO.N,Net-(D19-Pad4)*%
X29360000Y73960000D03*
%TO.P,D20,3,VDD*%
%TO.N,/LED_PWR*%
X34760000Y73960000D03*
%TO.P,D20,4,DOUT*%
%TO.N,Net-(D20-Pad4)*%
X34760000Y75460000D03*
%TD*%
D19*
%TO.P,C3,1*%
%TO.N,/LED_PWR*%
X14047500Y78910000D03*
%TO.P,C3,2*%
%TO.N,GND*%
X11972500Y78910000D03*
%TD*%
D16*
%TO.P,D6,1,K*%
%TO.N,/C_2*%
X96770000Y37020000D03*
%TO.P,D6,2,A*%
%TO.N,Net-(D6-Pad2)*%
X96770000Y33720000D03*
%TD*%
D18*
%TO.P,C11,1*%
%TO.N,/LED_PWR*%
X107222500Y40810000D03*
%TO.P,C11,2*%
%TO.N,GND*%
X109297500Y40810000D03*
%TD*%
D17*
%TO.P,D31,1,VSS*%
%TO.N,GND*%
X105560000Y18310000D03*
%TO.P,D31,2,DIN*%
%TO.N,Net-(D30-Pad4)*%
X105560000Y16810000D03*
%TO.P,D31,3,VDD*%
%TO.N,/LED_PWR*%
X110960000Y16810000D03*
%TO.P,D31,4,DOUT*%
%TO.N,Net-(D31-Pad4)*%
X110960000Y18310000D03*
%TD*%
D16*
%TO.P,D15,1,K*%
%TO.N,/C_3*%
X20570000Y60120000D03*
%TO.P,D15,2,A*%
%TO.N,Net-(D15-Pad2)*%
X20570000Y63420000D03*
%TD*%
D19*
%TO.P,C15,1*%
%TO.N,/LED_PWR*%
X109297500Y21760000D03*
%TO.P,C15,2*%
%TO.N,GND*%
X107222500Y21760000D03*
%TD*%
%TO.P,C7,1*%
%TO.N,/LED_PWR*%
X109297500Y59860000D03*
%TO.P,C7,2*%
%TO.N,GND*%
X107222500Y59860000D03*
%TD*%
D18*
%TO.P,C2,1*%
%TO.N,/LED_PWR*%
X11972500Y97960000D03*
%TO.P,C2,2*%
%TO.N,GND*%
X14047500Y97960000D03*
%TD*%
D17*
%TO.P,D21,1,VSS*%
%TO.N,GND*%
X67460000Y56410000D03*
%TO.P,D21,2,DIN*%
%TO.N,Net-(D20-Pad4)*%
X67460000Y54910000D03*
%TO.P,D21,3,VDD*%
%TO.N,/LED_PWR*%
X72860000Y54910000D03*
%TO.P,D21,4,DOUT*%
%TO.N,Net-(D21-Pad4)*%
X72860000Y56410000D03*
%TD*%
%TO.P,D29,1,VSS*%
%TO.N,GND*%
X67460000Y18310000D03*
%TO.P,D29,2,DIN*%
%TO.N,Net-(D28-Pad4)*%
X67460000Y16810000D03*
%TO.P,D29,3,VDD*%
%TO.N,/LED_PWR*%
X72860000Y16810000D03*
%TO.P,D29,4,DOUT*%
%TO.N,Net-(D29-Pad4)*%
X72860000Y18310000D03*
%TD*%
D20*
%TO.P,R5,1*%
%TO.N,/KEY_LED_DATA*%
X44750000Y94500000D03*
%TO.P,R5,2*%
%TO.N,Net-(D17-Pad2)*%
X42750000Y94500000D03*
%TD*%
D16*
%TO.P,D2,1,K*%
%TO.N,/C_2*%
X96770000Y56070000D03*
%TO.P,D2,2,A*%
%TO.N,Net-(D2-Pad2)*%
X96770000Y52770000D03*
%TD*%
%TO.P,D4,1,K*%
%TO.N,/C_4*%
X134870000Y56070000D03*
%TO.P,D4,2,A*%
%TO.N,Net-(D4-Pad2)*%
X134870000Y52770000D03*
%TD*%
%TO.P,D1,1,K*%
%TO.N,/C_1*%
X77720000Y56070000D03*
%TO.P,D1,2,A*%
%TO.N,Net-(D1-Pad2)*%
X77720000Y52770000D03*
%TD*%
%TO.P,D8,1,K*%
%TO.N,/C_4*%
X134870000Y37020000D03*
%TO.P,D8,2,A*%
%TO.N,Net-(D8-Pad2)*%
X134870000Y33720000D03*
%TD*%
%TO.P,D16,1,K*%
%TO.N,/C_4*%
X39620000Y60120000D03*
%TO.P,D16,2,A*%
%TO.N,Net-(D16-Pad2)*%
X39620000Y63420000D03*
%TD*%
D17*
%TO.P,D26,1,VSS*%
%TO.N,GND*%
X110960000Y35860000D03*
%TO.P,D26,2,DIN*%
%TO.N,Net-(D25-Pad4)*%
X110960000Y37360000D03*
%TO.P,D26,3,VDD*%
%TO.N,/LED_PWR*%
X105560000Y37360000D03*
%TO.P,D26,4,DOUT*%
%TO.N,Net-(D26-Pad4)*%
X105560000Y35860000D03*
%TD*%
D26*
%TO.N,/C_3*%
X122250000Y65200000D03*
%TO.N,/C_2*%
X103100000Y65250000D03*
%TO.N,/R_3*%
X104350000Y65250000D03*
%TO.N,/R_2*%
X105500000Y65200000D03*
%TO.N,/R_1*%
X106650000Y65150000D03*
%TO.N,/LED_PWR*%
X138750000Y62050000D03*
X18300000Y80050000D03*
X74700000Y19300000D03*
X131750000Y57550000D03*
X112700000Y16800000D03*
X138750000Y24450000D03*
X74650000Y54900000D03*
X138750000Y43350000D03*
X134450000Y43350000D03*
X93700000Y16800000D03*
X131750000Y54900000D03*
X93750000Y19300000D03*
X93650000Y54900000D03*
X74650000Y57500000D03*
X93650000Y57450000D03*
X112750000Y57400000D03*
X36450000Y73950000D03*
X17450000Y73950000D03*
X24600000Y80450000D03*
X133800000Y62000000D03*
X112700000Y19250000D03*
X55550000Y92650000D03*
X17450000Y76700000D03*
X36450000Y76450000D03*
X112750000Y54900000D03*
X136000000Y24450000D03*
X55550000Y95550000D03*
X74700000Y16800000D03*
%TO.N,GND*%
X10400000Y78900000D03*
X84700000Y18300000D03*
X86350000Y21800000D03*
X103750000Y56400000D03*
X29550000Y78900000D03*
X124400000Y59850000D03*
X124700000Y21750000D03*
X111050000Y40800000D03*
X34650000Y97900000D03*
X91950000Y40800000D03*
X74650000Y35850000D03*
X67550000Y21750000D03*
X67200000Y59850000D03*
X93650000Y35850000D03*
X122750000Y18300000D03*
X36600000Y93000000D03*
X65550000Y18300000D03*
X27650000Y75450000D03*
X17550000Y93000000D03*
X105350000Y59900000D03*
X73000000Y40800000D03*
X131800000Y35850000D03*
X8550000Y75450000D03*
X65550000Y56450000D03*
X84550000Y56400000D03*
X86200000Y59850000D03*
X137500000Y90800000D03*
X15650000Y98000000D03*
X130150000Y40800000D03*
X117150000Y68650000D03*
X105600000Y21750000D03*
X55500000Y79200000D03*
X112750000Y35850000D03*
X122550000Y56400000D03*
X103800000Y18300000D03*
%TO.N,/C_1*%
X79900000Y45100000D03*
X79900000Y7150000D03*
X79900000Y60850000D03*
X79900000Y23450000D03*
X22250000Y62950000D03*
X22250000Y75450000D03*
X79900000Y42400000D03*
X79900000Y15850000D03*
X79900000Y17950000D03*
X22250000Y57700000D03*
X79900000Y53900000D03*
X22250000Y72650000D03*
X79900000Y56050000D03*
X79900000Y65100000D03*
X79900000Y5150000D03*
X79900000Y26050000D03*
X79900000Y34850000D03*
X79900000Y37050000D03*
%TO.N,/C_2*%
X99100000Y42300000D03*
X99100000Y5050000D03*
X99100000Y23300000D03*
X37800000Y73950000D03*
X99100000Y17950000D03*
X99100000Y53700000D03*
X99100000Y56050000D03*
X37800000Y76500000D03*
X99100000Y45300000D03*
X99100000Y26300000D03*
X99100000Y15900000D03*
X99100000Y34900000D03*
X99100000Y60900000D03*
X99100000Y7000000D03*
X99100000Y37050000D03*
%TO.N,/C_3*%
X118250000Y60900000D03*
X118250000Y45050000D03*
X118250000Y5000000D03*
X118250000Y54000000D03*
X118250000Y26100000D03*
X118250000Y7050000D03*
X118250000Y37050000D03*
X118250000Y23550000D03*
X118250000Y17950000D03*
X118250000Y42300000D03*
X118250000Y56050000D03*
X118250000Y34800000D03*
X118250000Y15850000D03*
%TO.N,+3.3V*%
X131850000Y64700000D03*
X131850000Y74250000D03*
%TO.N,/T_SCL*%
X128250000Y66950000D03*
X126350000Y66950000D03*
%TO.N,/R_1*%
X102650000Y53550000D03*
X102650000Y60900000D03*
X102650000Y56000000D03*
%TO.N,/R_2*%
X101500000Y42250000D03*
X101500000Y48350000D03*
X101500000Y53600000D03*
X101500000Y60900000D03*
X101500000Y37000000D03*
X101500000Y34850000D03*
X101500000Y56000000D03*
%TO.N,/R_3*%
X100350000Y34900000D03*
X100350000Y48350000D03*
X100350000Y29200000D03*
X100350000Y53650000D03*
X100350000Y56000000D03*
X100350000Y37000000D03*
X100350000Y23350000D03*
X100350000Y15900000D03*
X100350000Y17800000D03*
X100350000Y60900000D03*
X100350000Y42250000D03*
%TO.N,/R_4*%
X23600000Y75500000D03*
X23600000Y72700000D03*
%TO.N,/E_MOSI*%
X131000000Y76950000D03*
X134700000Y76950000D03*
%TO.N,/E_SCK*%
X131050000Y78450000D03*
X133600000Y78450000D03*
%TO.N,Net-(D20-Pad4)*%
X62450000Y59600000D03*
X57750000Y59550000D03*
%TO.N,Net-(D28-Pad4)*%
X64350000Y24000000D03*
X64350000Y29300000D03*
%TD*%
D27*
%TO.N,/C_4*%
X137000000Y53940000D02*
X134870000Y56070000D01*
X134870000Y37020000D02*
X137000000Y39150000D01*
X137000000Y39150000D02*
X137000000Y53940000D01*
%TO.N,Net-(D24-Pad4)*%
X136550000Y43900000D02*
X130010000Y37360000D01*
X136550000Y52600000D02*
X136550000Y43900000D01*
X132740000Y56410000D02*
X136550000Y52600000D01*
X130010000Y56410000D02*
X132740000Y56410000D01*
D28*
%TO.N,/LED_PWR*%
X142100000Y48100000D02*
X142100000Y58700000D01*
X142100000Y58700000D02*
X138750000Y62050000D01*
X138750000Y44750000D02*
X142100000Y48100000D01*
X138750000Y24450000D02*
X138750000Y44750000D01*
D27*
%TO.N,/C_4*%
X137300000Y15540000D02*
X134870000Y17970000D01*
X137300000Y5250000D02*
X137300000Y15540000D01*
X133350000Y1300000D02*
X137300000Y5250000D01*
X79850000Y1300000D02*
X133350000Y1300000D01*
X77600000Y3550000D02*
X79850000Y1300000D01*
X65400000Y1300000D02*
X67650000Y3550000D01*
X7350000Y1300000D02*
X65400000Y1300000D01*
X67650000Y3550000D02*
X77600000Y3550000D01*
X1700000Y6950000D02*
X7350000Y1300000D01*
X38490000Y61250000D02*
X16750000Y61250000D01*
X1700000Y46200000D02*
X1700000Y6950000D01*
X16750000Y61250000D02*
X1700000Y46200000D01*
X39620000Y60120000D02*
X38490000Y61250000D01*
%TO.N,/C_3*%
X115250000Y2000000D02*
X118250000Y5000000D01*
X80000000Y2000000D02*
X115250000Y2000000D01*
X67400000Y4150000D02*
X77850000Y4150000D01*
X77850000Y4150000D02*
X80000000Y2000000D01*
X7450000Y2000000D02*
X65250000Y2000000D01*
X2750000Y45450000D02*
X2750000Y6700000D01*
X2750000Y6700000D02*
X7450000Y2000000D01*
X17420000Y60120000D02*
X2750000Y45450000D01*
X65250000Y2000000D02*
X67400000Y4150000D01*
X20570000Y60120000D02*
X17420000Y60120000D01*
%TO.N,/C_2*%
X97150000Y3100000D02*
X99100000Y5050000D01*
X79900000Y3100000D02*
X97150000Y3100000D01*
X67250000Y4700000D02*
X78300000Y4700000D01*
X65650000Y3100000D02*
X67250000Y4700000D01*
X7300000Y3100000D02*
X65650000Y3100000D01*
X78300000Y4700000D02*
X79900000Y3100000D01*
X17700000Y58750000D02*
X4050000Y45100000D01*
X40900000Y58750000D02*
X17700000Y58750000D01*
X41700000Y59550000D02*
X40900000Y58750000D01*
X4050000Y45100000D02*
X4050000Y6350000D01*
X41700000Y70050000D02*
X41700000Y59550000D01*
X4050000Y6350000D02*
X7300000Y3100000D01*
X37800000Y73950000D02*
X41700000Y70050000D01*
%TO.N,/C_1*%
X7200000Y3950000D02*
X65600000Y3950000D01*
X5000000Y44600000D02*
X5000000Y6150000D01*
X5000000Y6150000D02*
X7200000Y3950000D01*
X18100000Y57700000D02*
X5000000Y44600000D01*
X65600000Y3950000D02*
X66800000Y5150000D01*
X66800000Y5150000D02*
X79900000Y5150000D01*
X22250000Y57700000D02*
X18100000Y57700000D01*
%TO.N,/C_4*%
X134870000Y67601422D02*
X134870000Y56070000D01*
X132396422Y70075000D02*
X134870000Y67601422D01*
%TO.N,/T_SDA*%
X125450000Y62700000D02*
X127350000Y64600000D01*
X61450000Y61350000D02*
X62800000Y62700000D01*
X62800000Y62700000D02*
X125450000Y62700000D01*
X61450000Y54005000D02*
X61450000Y61350000D01*
X40750000Y33305000D02*
X61450000Y54005000D01*
%TO.N,/T_SCL*%
X126350000Y66500000D02*
X126350000Y66950000D01*
X62650000Y63250000D02*
X123100000Y63250000D01*
X60850000Y61450000D02*
X62650000Y63250000D01*
X60850000Y55945000D02*
X60850000Y61450000D01*
X123100000Y63250000D02*
X126350000Y66500000D01*
X40750000Y35845000D02*
X60850000Y55945000D01*
%TO.N,/T_DR*%
X124776422Y66176422D02*
X124776422Y70075000D01*
X122750000Y64150000D02*
X124776422Y66176422D01*
X62650000Y64150000D02*
X122750000Y64150000D01*
X60100000Y61600000D02*
X62650000Y64150000D01*
X60100000Y57735000D02*
X60100000Y61600000D01*
X40750000Y38385000D02*
X60100000Y57735000D01*
%TO.N,/C_1*%
X99376422Y66326422D02*
X99376422Y70075000D01*
X98150000Y65100000D02*
X99376422Y66326422D01*
X79900000Y65100000D02*
X98150000Y65100000D01*
D28*
%TO.N,+3.3V*%
X98350000Y72600000D02*
X130200000Y72600000D01*
X97950000Y72200000D02*
X98350000Y72600000D01*
X130200000Y72600000D02*
X131850000Y74250000D01*
X97950000Y69050000D02*
X97950000Y72200000D01*
X95350000Y66450000D02*
X97950000Y69050000D01*
X59400000Y73600000D02*
X66550000Y66450000D01*
X66550000Y66450000D02*
X95350000Y66450000D01*
D27*
%TO.N,/KEY_LED_DATA*%
X96699000Y94500000D02*
X101924000Y89275000D01*
X44750000Y94500000D02*
X96699000Y94500000D01*
%TO.N,/R_4*%
X54500000Y93750000D02*
X94909000Y93750000D01*
X94909000Y93750000D02*
X99384000Y89275000D01*
X41950000Y81200000D02*
X54500000Y93750000D01*
X28700000Y81200000D02*
X41950000Y81200000D01*
X25770000Y84130000D02*
X28700000Y81200000D01*
D28*
%TO.N,/LED_PWR*%
X55550000Y97650000D02*
X112042500Y97650000D01*
D27*
%TO.N,/E_BUSY*%
X119704000Y87154000D02*
X119704000Y89275000D01*
X119150000Y86600000D02*
X119704000Y87154000D01*
X64180000Y86600000D02*
X119150000Y86600000D01*
X59400000Y91380000D02*
X64180000Y86600000D01*
%TO.N,/E_RST*%
X122244000Y86544000D02*
X122244000Y89275000D01*
X121450000Y85750000D02*
X122244000Y86544000D01*
X62490000Y85750000D02*
X121450000Y85750000D01*
X59400000Y88840000D02*
X62490000Y85750000D01*
%TO.N,/E_DC*%
X127324000Y86324000D02*
X127324000Y89275000D01*
X125750000Y84750000D02*
X127324000Y86324000D01*
X60950000Y84750000D02*
X125750000Y84750000D01*
X59400000Y86300000D02*
X60950000Y84750000D01*
%TO.N,/E_CS*%
X129864000Y86464000D02*
X129864000Y89275000D01*
X127160000Y83760000D02*
X129864000Y86464000D01*
X59400000Y83760000D02*
X127160000Y83760000D01*
%TO.N,/E_MOSI*%
X127000000Y76950000D02*
X131000000Y76950000D01*
%TO.N,/E_SCK*%
X127050000Y78450000D02*
X131050000Y78450000D01*
D28*
%TO.N,/LED_PWR*%
X141750000Y65050000D02*
X138750000Y62050000D01*
X141750000Y72950000D02*
X141750000Y65050000D01*
X138750000Y75950000D02*
X141750000Y72950000D01*
X72290000Y59860000D02*
X71197500Y59860000D01*
X128347500Y21760000D02*
X129940000Y21760000D01*
X74700000Y19300000D02*
X72240000Y21760000D01*
X72860000Y16810000D02*
X74690000Y16810000D01*
X72050000Y24450000D02*
X71197500Y23597500D01*
X125860000Y40810000D02*
X124610000Y39560000D01*
X129440000Y59860000D02*
X128347500Y59860000D01*
X88172500Y40810000D02*
X88172500Y43327500D01*
X33100000Y80450000D02*
X24600000Y80450000D01*
X131750000Y57550000D02*
X129440000Y59860000D01*
X18300000Y80050000D02*
X15187500Y80050000D01*
X15720000Y73950000D02*
X15710000Y73960000D01*
X43350000Y80450000D02*
X33100000Y80450000D01*
X109300000Y62000000D02*
X116600000Y62000000D01*
X55550000Y97650000D02*
X39400000Y97650000D01*
X72240000Y21760000D02*
X71197500Y21760000D01*
X36440000Y73960000D02*
X36450000Y73950000D01*
X119550000Y24450000D02*
X109300000Y24450000D01*
X91290000Y21760000D02*
X90247500Y21760000D01*
X110960000Y16810000D02*
X112690000Y16810000D01*
X72860000Y54910000D02*
X74640000Y54910000D01*
X110190000Y21760000D02*
X109297500Y21760000D01*
X31022500Y97960000D02*
X30110000Y97960000D01*
X74640000Y54910000D02*
X74650000Y54900000D01*
X55550000Y92650000D02*
X43500000Y80600000D01*
X107222500Y40810000D02*
X107222500Y43327500D01*
X71197500Y23597500D02*
X71197500Y21760000D01*
X116600000Y62000000D02*
X90250000Y62000000D01*
X14012500Y100000000D02*
X11972500Y97960000D01*
X107222500Y43327500D02*
X107200000Y43350000D01*
X128347500Y24447500D02*
X128350000Y24450000D01*
X124610000Y39560000D02*
X124610000Y37360000D01*
X17450000Y73950000D02*
X15720000Y73950000D01*
X128350000Y62000000D02*
X133800000Y62000000D01*
X90250000Y62000000D02*
X71650000Y62000000D01*
X126272500Y40810000D02*
X126272500Y43327500D01*
X90247500Y59860000D02*
X90247500Y61997500D01*
X43400000Y80500000D02*
X43350000Y80450000D01*
X67460000Y39960000D02*
X67460000Y37360000D01*
X14450000Y77500000D02*
X16950000Y77500000D01*
X109300000Y24450000D02*
X103700000Y24450000D01*
X128350000Y24450000D02*
X119550000Y24450000D01*
X106560000Y40810000D02*
X105560000Y39810000D01*
X86510000Y40060000D02*
X86510000Y37360000D01*
X39400000Y97650000D02*
X37050000Y100000000D01*
X16950000Y77500000D02*
X17450000Y77000000D01*
X136300000Y97650000D02*
X112042500Y97650000D01*
X36450000Y76450000D02*
X33990000Y78910000D01*
X88150000Y43350000D02*
X69700000Y43350000D01*
X138750000Y75950000D02*
X138750000Y95200000D01*
X110960000Y54910000D02*
X112740000Y54910000D01*
X90250000Y24450000D02*
X72050000Y24450000D01*
X11972500Y97960000D02*
X10860000Y97960000D01*
X30110000Y97960000D02*
X29360000Y97210000D01*
X31022500Y97960000D02*
X31022500Y99972500D01*
X29360000Y97210000D02*
X29360000Y94510000D01*
X31022500Y99972500D02*
X31050000Y100000000D01*
X91910000Y16810000D02*
X93690000Y16810000D01*
X112700000Y19250000D02*
X110190000Y21760000D01*
X74690000Y16810000D02*
X74700000Y16800000D01*
X74650000Y57500000D02*
X72290000Y59860000D01*
X131740000Y54910000D02*
X131750000Y54900000D01*
X112690000Y16810000D02*
X112700000Y16800000D01*
X105560000Y39810000D02*
X105560000Y37360000D01*
X33097500Y78910000D02*
X33097500Y80447500D01*
X103700000Y24450000D02*
X90250000Y24450000D01*
X131900000Y17250000D02*
X131460000Y16810000D01*
X90247500Y61997500D02*
X90250000Y62000000D01*
X71197500Y61547500D02*
X71197500Y59860000D01*
X34760000Y73960000D02*
X36440000Y73960000D01*
X33097500Y80447500D02*
X33100000Y80450000D01*
X109297500Y61997500D02*
X109300000Y62000000D01*
X68310000Y40810000D02*
X67460000Y39960000D01*
X37050000Y100000000D02*
X31050000Y100000000D01*
X134450000Y43350000D02*
X126250000Y43350000D01*
X128347500Y61997500D02*
X128350000Y62000000D01*
X33990000Y78910000D02*
X33097500Y78910000D01*
X116600000Y62000000D02*
X128350000Y62000000D01*
X128347500Y59860000D02*
X128347500Y61997500D01*
X90247500Y24447500D02*
X90250000Y24450000D01*
X91240000Y59860000D02*
X90247500Y59860000D01*
X10860000Y97960000D02*
X10310000Y97410000D01*
X88172500Y40810000D02*
X87260000Y40810000D01*
X126250000Y43350000D02*
X107200000Y43350000D01*
X107200000Y43350000D02*
X88150000Y43350000D01*
X14047500Y78910000D02*
X14047500Y77902500D01*
X110290000Y59860000D02*
X109297500Y59860000D01*
X17450000Y77000000D02*
X17450000Y76700000D01*
X14047500Y77902500D02*
X14450000Y77500000D01*
X69122500Y40810000D02*
X68310000Y40810000D01*
X131900000Y19800000D02*
X131900000Y17250000D01*
X69700000Y43350000D02*
X69122500Y42772500D01*
X112740000Y54910000D02*
X112750000Y54900000D01*
X128347500Y21760000D02*
X128347500Y24447500D01*
X107222500Y40810000D02*
X106560000Y40810000D01*
X91910000Y54910000D02*
X93640000Y54910000D01*
X109297500Y59860000D02*
X109297500Y61997500D01*
X87260000Y40810000D02*
X86510000Y40060000D01*
X93750000Y19300000D02*
X91290000Y21760000D01*
X138750000Y95200000D02*
X136300000Y97650000D01*
X90247500Y21760000D02*
X90247500Y24447500D01*
X112750000Y57400000D02*
X110290000Y59860000D01*
X136000000Y24450000D02*
X128350000Y24450000D01*
X93650000Y57450000D02*
X91240000Y59860000D01*
X93690000Y16810000D02*
X93700000Y16800000D01*
X71650000Y62000000D02*
X71197500Y61547500D01*
X126272500Y40810000D02*
X125860000Y40810000D01*
X69122500Y42772500D02*
X69122500Y40810000D01*
X15187500Y80050000D02*
X14047500Y78910000D01*
X126272500Y43327500D02*
X126250000Y43350000D01*
X31050000Y100000000D02*
X14012500Y100000000D01*
X130010000Y54910000D02*
X131740000Y54910000D01*
X129940000Y21760000D02*
X131900000Y19800000D01*
X131460000Y16810000D02*
X130010000Y16810000D01*
X88172500Y43327500D02*
X88150000Y43350000D01*
X109297500Y24447500D02*
X109300000Y24450000D01*
X55550000Y97650000D02*
X55550000Y95550000D01*
X10310000Y97410000D02*
X10310000Y94510000D01*
X43500000Y80600000D02*
X43400000Y80500000D01*
X109297500Y21760000D02*
X109297500Y24447500D01*
X93640000Y54910000D02*
X93650000Y54900000D01*
D27*
%TO.N,GND*%
X15710000Y93010000D02*
X17540000Y93010000D01*
X74640000Y35860000D02*
X74650000Y35850000D01*
X107222500Y21760000D02*
X105610000Y21760000D01*
X109297500Y40810000D02*
X111040000Y40810000D01*
X8560000Y75460000D02*
X8550000Y75450000D01*
X91910000Y35860000D02*
X93640000Y35860000D01*
X111040000Y40810000D02*
X111050000Y40800000D01*
X86510000Y18310000D02*
X84710000Y18310000D01*
D28*
X117156422Y70075000D02*
X117156422Y68656422D01*
D27*
X122560000Y56410000D02*
X122550000Y56400000D01*
X131790000Y35860000D02*
X131800000Y35850000D01*
X105610000Y21760000D02*
X105600000Y21750000D01*
X103760000Y56410000D02*
X103750000Y56400000D01*
X124410000Y59860000D02*
X124400000Y59850000D01*
X91940000Y40810000D02*
X91950000Y40800000D01*
X10310000Y75460000D02*
X8560000Y75460000D01*
X130010000Y35860000D02*
X131790000Y35860000D01*
X15610000Y97960000D02*
X15650000Y98000000D01*
X86390000Y21760000D02*
X86350000Y21800000D01*
X90247500Y40810000D02*
X91940000Y40810000D01*
X88172500Y59860000D02*
X86210000Y59860000D01*
X34760000Y93010000D02*
X36590000Y93010000D01*
X67460000Y56410000D02*
X65590000Y56410000D01*
X65560000Y18310000D02*
X65550000Y18300000D01*
X84710000Y18310000D02*
X84700000Y18300000D01*
X72990000Y40810000D02*
X73000000Y40800000D01*
X67210000Y59860000D02*
X67200000Y59850000D01*
X93640000Y35860000D02*
X93650000Y35850000D01*
X88172500Y21760000D02*
X86390000Y21760000D01*
X86210000Y59860000D02*
X86200000Y59850000D01*
X124610000Y18310000D02*
X122760000Y18310000D01*
X105560000Y56410000D02*
X103760000Y56410000D01*
X105560000Y18310000D02*
X103810000Y18310000D01*
X34590000Y97960000D02*
X34650000Y97900000D01*
X71197500Y40810000D02*
X72990000Y40810000D01*
X17540000Y93010000D02*
X17550000Y93000000D01*
X14047500Y97960000D02*
X15610000Y97960000D01*
X29360000Y75460000D02*
X27660000Y75460000D01*
X29560000Y78910000D02*
X29550000Y78900000D01*
X67460000Y18310000D02*
X65560000Y18310000D01*
X103810000Y18310000D02*
X103800000Y18300000D01*
X69122500Y21760000D02*
X67560000Y21760000D01*
X122760000Y18310000D02*
X122750000Y18300000D01*
X110960000Y35860000D02*
X112740000Y35860000D01*
D28*
X137480000Y89275000D02*
X137480000Y90780000D01*
D27*
X11972500Y78910000D02*
X10410000Y78910000D01*
X124610000Y56410000D02*
X122560000Y56410000D01*
X112740000Y35860000D02*
X112750000Y35850000D01*
X69122500Y59860000D02*
X67210000Y59860000D01*
X124710000Y21760000D02*
X124700000Y21750000D01*
X65590000Y56410000D02*
X65550000Y56450000D01*
X107222500Y59860000D02*
X105390000Y59860000D01*
X10410000Y78910000D02*
X10400000Y78900000D01*
X55500000Y80700000D02*
X55500000Y79200000D01*
X27660000Y75460000D02*
X27650000Y75450000D01*
X126272500Y21760000D02*
X124710000Y21760000D01*
X105390000Y59860000D02*
X105350000Y59900000D01*
X126272500Y59860000D02*
X124410000Y59860000D01*
X86510000Y56410000D02*
X84560000Y56410000D01*
X128347500Y40810000D02*
X130140000Y40810000D01*
X31022500Y78910000D02*
X29560000Y78910000D01*
X36590000Y93010000D02*
X36600000Y93000000D01*
X84560000Y56410000D02*
X84550000Y56400000D01*
X130140000Y40810000D02*
X130150000Y40800000D01*
X72860000Y35860000D02*
X74640000Y35860000D01*
X67560000Y21760000D02*
X67550000Y21750000D01*
X33097500Y97960000D02*
X34590000Y97960000D01*
%TO.N,/C_1*%
X79880000Y56070000D02*
X79900000Y56050000D01*
X79900000Y37050000D02*
X77750000Y37050000D01*
X79900000Y45100000D02*
X79900000Y53900000D01*
X79900000Y34850000D02*
X79900000Y26050000D01*
X20570000Y79170000D02*
X20570000Y77130000D01*
X22250000Y72650000D02*
X22250000Y62950000D01*
X79900000Y15850000D02*
X79900000Y7150000D01*
X20570000Y77130000D02*
X22250000Y75450000D01*
X77720000Y56070000D02*
X79880000Y56070000D01*
X79900000Y56050000D02*
X79900000Y60850000D01*
X79900000Y42400000D02*
X79900000Y37050000D01*
X79900000Y23450000D02*
X79900000Y17950000D01*
X77750000Y37050000D02*
X77720000Y37020000D01*
X77740000Y17950000D02*
X77720000Y17970000D01*
X79900000Y17950000D02*
X77740000Y17950000D01*
%TO.N,Net-(D1-Pad2)*%
X77720000Y48570000D02*
X77720000Y52770000D01*
%TO.N,/C_2*%
X39620000Y79170000D02*
X39620000Y78320000D01*
X99100000Y17950000D02*
X96790000Y17950000D01*
X39620000Y78320000D02*
X37800000Y76500000D01*
X96790000Y17950000D02*
X96770000Y17970000D01*
X99100000Y20300000D02*
X99100000Y17950000D01*
X103100000Y65250000D02*
X103100000Y68891422D01*
X99100000Y60900000D02*
X99100000Y56050000D01*
X96770000Y56070000D02*
X99080000Y56070000D01*
X103100000Y68891422D02*
X101916422Y70075000D01*
X99080000Y56070000D02*
X99100000Y56050000D01*
X99100000Y20300000D02*
X99100000Y23300000D01*
X99100000Y34900000D02*
X99100000Y26300000D01*
X99100000Y37050000D02*
X99100000Y42300000D01*
X99100000Y37050000D02*
X96800000Y37050000D01*
X99100000Y53700000D02*
X99100000Y45300000D01*
X96800000Y37050000D02*
X96770000Y37020000D01*
X99100000Y15900000D02*
X99100000Y7000000D01*
%TO.N,Net-(D2-Pad2)*%
X96770000Y48570000D02*
X96770000Y52770000D01*
%TO.N,/C_3*%
X118250000Y15850000D02*
X118250000Y7050000D01*
X118250000Y42300000D02*
X118250000Y37050000D01*
X118230000Y56070000D02*
X118250000Y56050000D01*
X118250000Y37050000D02*
X115850000Y37050000D01*
X115850000Y37050000D02*
X115820000Y37020000D01*
X118250000Y54000000D02*
X118250000Y45050000D01*
X118250000Y60900000D02*
X118250000Y56050000D01*
X122250000Y65200000D02*
X122250000Y70061422D01*
X118250000Y34800000D02*
X118250000Y26100000D01*
X115840000Y17950000D02*
X115820000Y17970000D01*
X115820000Y56070000D02*
X118230000Y56070000D01*
X118250000Y17950000D02*
X115840000Y17950000D01*
X118250000Y23550000D02*
X118250000Y17950000D01*
%TO.N,Net-(D3-Pad2)*%
X115820000Y48570000D02*
X115820000Y52770000D01*
%TO.N,/C_4*%
X137150000Y20250000D02*
X134870000Y17970000D01*
X137150000Y34740000D02*
X137150000Y20250000D01*
X134870000Y37020000D02*
X137150000Y34740000D01*
%TO.N,Net-(D4-Pad2)*%
X134870000Y48570000D02*
X134870000Y52770000D01*
%TO.N,Net-(D5-Pad2)*%
X77720000Y33720000D02*
X77720000Y29520000D01*
%TO.N,Net-(D6-Pad2)*%
X96770000Y33720000D02*
X96770000Y29520000D01*
%TO.N,Net-(D7-Pad2)*%
X115820000Y29520000D02*
X115820000Y33720000D01*
%TO.N,Net-(D8-Pad2)*%
X134870000Y29520000D02*
X134870000Y33720000D01*
%TO.N,Net-(D9-Pad2)*%
X77720000Y14670000D02*
X77720000Y10470000D01*
%TO.N,Net-(D10-Pad2)*%
X96770000Y10470000D02*
X96770000Y14670000D01*
%TO.N,Net-(D11-Pad2)*%
X115820000Y10470000D02*
X115820000Y14670000D01*
%TO.N,Net-(D12-Pad2)*%
X134870000Y10470000D02*
X134870000Y14670000D01*
%TO.N,Net-(D13-Pad2)*%
X20570000Y86670000D02*
X20570000Y82470000D01*
%TO.N,Net-(D14-Pad2)*%
X39620000Y86670000D02*
X39620000Y82470000D01*
%TO.N,Net-(D15-Pad2)*%
X20570000Y67620000D02*
X20570000Y63420000D01*
%TO.N,Net-(D16-Pad2)*%
X39620000Y67620000D02*
X39620000Y63420000D01*
D28*
%TO.N,/LDO2*%
X112042500Y89316500D02*
X112042500Y96350000D01*
%TO.N,/VBAT*%
X136650000Y98950000D02*
X140024000Y95576000D01*
X140024000Y89275000D02*
X140024000Y95576000D01*
X112042500Y98950000D02*
X136650000Y98950000D01*
%TO.N,+3.3V*%
X59400000Y59600000D02*
X59400000Y73600000D01*
X40750000Y28225000D02*
X39425000Y28225000D01*
X39425000Y28225000D02*
X38350000Y29300000D01*
X132404000Y74804000D02*
X132404000Y89275000D01*
X131850000Y64700000D02*
X129450000Y64700000D01*
X38350000Y29300000D02*
X38350000Y38550000D01*
X131850000Y64700000D02*
X131850000Y66950000D01*
X52500000Y80700000D02*
X52500000Y80500000D01*
X38350000Y38550000D02*
X59400000Y59600000D01*
X52500000Y80500000D02*
X59400000Y73600000D01*
X131850000Y74250000D02*
X132404000Y74804000D01*
D27*
%TO.N,/T_SDA*%
X127350000Y64600000D02*
X127350000Y70041422D01*
%TO.N,/T_SCL*%
X129850000Y66950000D02*
X129850000Y70068578D01*
X129850000Y66950000D02*
X128250000Y66950000D01*
%TO.N,/E_RST*%
X52500000Y82700000D02*
X58640000Y88840000D01*
X58640000Y88840000D02*
X59400000Y88840000D01*
%TO.N,/E_CS*%
X55500000Y82700000D02*
X56560000Y83760000D01*
X56560000Y83760000D02*
X59400000Y83760000D01*
%TO.N,Net-(D17-Pad2)*%
X34760000Y94510000D02*
X42740000Y94510000D01*
X42740000Y94510000D02*
X42750000Y94500000D01*
%TO.N,/R_1*%
X65745001Y44154999D02*
X81044999Y44154999D01*
X106650000Y65150000D02*
X106650000Y67188578D01*
X103845001Y44154999D02*
X119144999Y44154999D01*
X63870000Y46030000D02*
X65745001Y44154999D01*
X119144999Y44154999D02*
X121020000Y46030000D01*
X105050000Y49110000D02*
X105050000Y52550000D01*
X104050000Y53550000D02*
X102650000Y53550000D01*
X105050000Y52550000D02*
X104050000Y53550000D01*
X104405901Y48465901D02*
X105050000Y49110000D01*
X102650000Y56000000D02*
X102650000Y60900000D01*
X101970000Y46030000D02*
X104405901Y48465901D01*
X82920000Y46030000D02*
X84795001Y44154999D01*
X100094999Y44154999D02*
X101970000Y46030000D01*
X84795001Y44154999D02*
X100094999Y44154999D01*
X81044999Y44154999D02*
X82920000Y46030000D01*
X106650000Y67188578D02*
X109536422Y70075000D01*
X101970000Y46030000D02*
X103845001Y44154999D01*
%TO.N,/R_2*%
X101970000Y26980000D02*
X101500000Y27450000D01*
X63870000Y26980000D02*
X65745001Y25104999D01*
X119144999Y25104999D02*
X121020000Y26980000D01*
X101500000Y60900000D02*
X101500000Y56000000D01*
X101500000Y48350000D02*
X101500000Y53600000D01*
X82920000Y26980000D02*
X84795001Y25104999D01*
X103845001Y25104999D02*
X119144999Y25104999D01*
X105500000Y65200000D02*
X105500000Y68578578D01*
X101500000Y27450000D02*
X101500000Y34850000D01*
X65745001Y25104999D02*
X81044999Y25104999D01*
X101970000Y26980000D02*
X103845001Y25104999D01*
X84795001Y25104999D02*
X100094999Y25104999D01*
X105500000Y68578578D02*
X106996422Y70075000D01*
X100094999Y25104999D02*
X101970000Y26980000D01*
X81044999Y25104999D02*
X82920000Y26980000D01*
X101500000Y42250000D02*
X101500000Y37000000D01*
%TO.N,/R_3*%
X100094999Y6054999D02*
X101970000Y7930000D01*
X82920000Y7930000D02*
X84795001Y6054999D01*
X100350000Y56000000D02*
X100350000Y60900000D01*
X100350000Y11250000D02*
X100350000Y15900000D01*
X101970000Y7930000D02*
X103845001Y6054999D01*
X104350000Y65250000D02*
X104350000Y69968578D01*
X101970000Y7930000D02*
X101970000Y9630000D01*
X101970000Y9630000D02*
X100350000Y11250000D01*
X100350000Y29200000D02*
X100350000Y34900000D01*
X63870000Y7930000D02*
X65745001Y6054999D01*
X100350000Y37000000D02*
X100350000Y42250000D01*
X100350000Y48350000D02*
X100350000Y53650000D01*
X103845001Y6054999D02*
X119144999Y6054999D01*
X100350000Y23350000D02*
X100350000Y17800000D01*
X84795001Y6054999D02*
X100094999Y6054999D01*
X65745001Y6054999D02*
X81044999Y6054999D01*
X119144999Y6054999D02*
X121020000Y7930000D01*
X81044999Y6054999D02*
X82920000Y7930000D01*
%TO.N,/R_4*%
X23600000Y80100000D02*
X22750000Y80950000D01*
X23600000Y67250000D02*
X23600000Y72700000D01*
X22750000Y80950000D02*
X9900000Y80950000D01*
X25770000Y65080000D02*
X23600000Y67250000D01*
X9900000Y80950000D02*
X6720000Y84130000D01*
X6720000Y65080000D02*
X9950000Y61850000D01*
X23600000Y75500000D02*
X23600000Y80100000D01*
X25770000Y83970000D02*
X22750000Y80950000D01*
X25770000Y84130000D02*
X25770000Y83970000D01*
X22540000Y61850000D02*
X25770000Y65080000D01*
X9950000Y61850000D02*
X22540000Y61850000D01*
%TO.N,/E_MOSI*%
X59400000Y78680000D02*
X83180000Y78680000D01*
X86350000Y81850000D02*
X122100000Y81850000D01*
X83180000Y78680000D02*
X86350000Y81850000D01*
X134700000Y76950000D02*
X140016422Y71633578D01*
X140016422Y71633578D02*
X140016422Y70075000D01*
X122100000Y81850000D02*
X127000000Y76950000D01*
%TO.N,/E_SCK*%
X86250000Y82900000D02*
X122600000Y82900000D01*
X59400000Y81220000D02*
X84570000Y81220000D01*
X84570000Y81220000D02*
X86250000Y82900000D01*
X134936422Y72913578D02*
X134936422Y70075000D01*
X133600000Y78450000D02*
X133600000Y74250000D01*
X122600000Y82900000D02*
X127050000Y78450000D01*
X133600000Y74250000D02*
X134936422Y72913578D01*
%TO.N,Net-(D17-Pad4)*%
X15710000Y94510000D02*
X21340000Y94510000D01*
X21340000Y94510000D02*
X22840000Y93010000D01*
X22840000Y93010000D02*
X29360000Y93010000D01*
%TO.N,Net-(D18-Pad4)*%
X7090000Y73960000D02*
X10310000Y73960000D01*
X5510000Y93010000D02*
X4500000Y92000000D01*
X4500000Y92000000D02*
X4500000Y76550000D01*
X10310000Y93010000D02*
X5510000Y93010000D01*
X4500000Y76550000D02*
X7090000Y73960000D01*
%TO.N,Net-(D19-Pad4)*%
X17840000Y75460000D02*
X15710000Y75460000D01*
X19340000Y73960000D02*
X17840000Y75460000D01*
X29360000Y73960000D02*
X19340000Y73960000D01*
%TO.N,Net-(D20-Pad4)*%
X34760000Y75460000D02*
X46840000Y75460000D01*
X50250000Y72050000D02*
X50250000Y61350000D01*
X57750000Y59550000D02*
X52050000Y59550000D01*
X64840000Y54910000D02*
X67460000Y54910000D01*
X50250000Y61350000D02*
X52050000Y59550000D01*
X62450000Y59600000D02*
X62450000Y57300000D01*
X46840000Y75460000D02*
X50250000Y72050000D01*
X62450000Y57300000D02*
X64840000Y54910000D01*
%TO.N,Net-(D21-Pad4)*%
X74940000Y56410000D02*
X76440000Y54910000D01*
X72860000Y56410000D02*
X74940000Y56410000D01*
X76440000Y54910000D02*
X86510000Y54910000D01*
%TO.N,Net-(D22-Pad4)*%
X95140000Y54910000D02*
X105560000Y54910000D01*
X91910000Y56410000D02*
X93640000Y56410000D01*
X93640000Y56410000D02*
X95140000Y54910000D01*
%TO.N,Net-(D23-Pad4)*%
X110960000Y56410000D02*
X113140000Y56410000D01*
X114640000Y54910000D02*
X124610000Y54910000D01*
X113140000Y56410000D02*
X114640000Y54910000D01*
%TO.N,Net-(D25-Pad4)*%
X113290000Y37360000D02*
X114790000Y35860000D01*
X114790000Y35860000D02*
X124610000Y35860000D01*
X110960000Y37360000D02*
X113290000Y37360000D01*
%TO.N,Net-(D26-Pad4)*%
X94540000Y37360000D02*
X96040000Y35860000D01*
X96040000Y35860000D02*
X105560000Y35860000D01*
X91910000Y37360000D02*
X94540000Y37360000D01*
%TO.N,Net-(D27-Pad4)*%
X74940000Y37360000D02*
X76450000Y35850000D01*
X72860000Y37360000D02*
X74940000Y37360000D01*
X76450000Y35850000D02*
X76460000Y35860000D01*
X76460000Y35860000D02*
X86510000Y35860000D01*
%TO.N,Net-(D28-Pad4)*%
X67460000Y35860000D02*
X67460000Y31560000D01*
X64350000Y17700000D02*
X65240000Y16810000D01*
X64350000Y24000000D02*
X64350000Y17700000D01*
X65240000Y16810000D02*
X67460000Y16810000D01*
X67460000Y31560000D02*
X65200000Y29300000D01*
X65200000Y29300000D02*
X64350000Y29300000D01*
%TO.N,Net-(D29-Pad4)*%
X74640000Y18310000D02*
X76140000Y16810000D01*
X72860000Y18310000D02*
X74640000Y18310000D01*
X76140000Y16810000D02*
X86510000Y16810000D01*
%TO.N,Net-(D30-Pad4)*%
X95540000Y16810000D02*
X105560000Y16810000D01*
X91910000Y18310000D02*
X94040000Y18310000D01*
X94040000Y18310000D02*
X95540000Y16810000D01*
%TO.N,Net-(D31-Pad4)*%
X114540000Y16810000D02*
X124610000Y16810000D01*
X110960000Y18310000D02*
X113040000Y18310000D01*
X113040000Y18310000D02*
X114540000Y16810000D01*
%TD*%
M02*
